<svg version="1.1" xmlns="http://www.w3.org/2000/svg" viewBox="0 0 4727.946339925129 1290.5330581665041" width="4727.946339925129" height="1290.5330581665041" filter="invert(93%) hue-rotate(180deg)">
  <!-- svg-source:excalidraw -->
  
  <defs>
    <style class="style-fonts">
      @font-face {
        font-family: "Virgil";
        src: url("https://excalidraw.com/Virgil.woff2");
      }
      @font-face {
        font-family: "Cascadia";
        src: url("https://excalidraw.com/Cascadia.woff2");
      }
      @font-face {
        font-family: "Assistant";
        src: url("https://excalidraw.com/Assistant-Regular.woff2");
      }
    </style>
    
  </defs>
  <rect x="0" y="0" width="4727.946339925129" height="1290.5330581665041" fill="#ffffff"></rect><g transform="translate(197.99995930989735 1180.8000666300454) rotate(0 55.20597839355469 22.5)"><text x="0" y="31.536" font-family="Virgil, Segoe UI Emoji" font-size="36px" fill="#1e1e1e" text-anchor="start" style="white-space: pre;" direction="ltr" dominant-baseline="alphabetic">tipado</text></g><g transform="translate(10 920.5330581665041) rotate(0 123.2099609375 180)"><text x="0" y="31.536" font-family="Virgil, Segoe UI Emoji" font-size="36px" fill="#1e1e1e" text-anchor="start" style="white-space: pre;" direction="ltr" dominant-baseline="alphabetic">tipos de dato</text><text x="0" y="76.536" font-family="Virgil, Segoe UI Emoji" font-size="36px" fill="#1e1e1e" text-anchor="start" style="white-space: pre;" direction="ltr" dominant-baseline="alphabetic">    texto</text><text x="0" y="121.536" font-family="Virgil, Segoe UI Emoji" font-size="36px" fill="#1e1e1e" text-anchor="start" style="white-space: pre;" direction="ltr" dominant-baseline="alphabetic">    numeros</text><text x="0" y="166.536" font-family="Virgil, Segoe UI Emoji" font-size="36px" fill="#1e1e1e" text-anchor="start" style="white-space: pre;" direction="ltr" dominant-baseline="alphabetic">    boolean</text><text x="0" y="211.536" font-family="Virgil, Segoe UI Emoji" font-size="36px" fill="#1e1e1e" text-anchor="start" style="white-space: pre;" direction="ltr" dominant-baseline="alphabetic">    Listas</text><text x="0" y="256.536" font-family="Virgil, Segoe UI Emoji" font-size="36px" fill="#1e1e1e" text-anchor="start" style="white-space: pre;" direction="ltr" dominant-baseline="alphabetic">    Objeto</text><text x="0" y="301.536" font-family="Virgil, Segoe UI Emoji" font-size="36px" fill="#1e1e1e" text-anchor="start" style="white-space: pre;" direction="ltr" dominant-baseline="alphabetic">    Acciones</text><text x="0" y="346.536" font-family="Virgil, Segoe UI Emoji" font-size="36px" fill="#1e1e1e" text-anchor="start" style="white-space: pre;" direction="ltr" dominant-baseline="alphabetic">    </text></g><g transform="translate(1211.8666687011723 861.1999740600588) rotate(0 179.72994995117188 90)"><text x="0" y="31.536" font-family="Virgil, Segoe UI Emoji" font-size="36px" fill="#1e1e1e" text-anchor="start" style="white-space: pre;" direction="ltr" dominant-baseline="alphabetic">orientado a objetos</text><text x="0" y="76.536" font-family="Virgil, Segoe UI Emoji" font-size="36px" fill="#1e1e1e" text-anchor="start" style="white-space: pre;" direction="ltr" dominant-baseline="alphabetic">orientado a eventos</text><text x="0" y="121.536" font-family="Virgil, Segoe UI Emoji" font-size="36px" fill="#1e1e1e" text-anchor="start" style="white-space: pre;" direction="ltr" dominant-baseline="alphabetic">funcional</text><text x="0" y="166.536" font-family="Virgil, Segoe UI Emoji" font-size="36px" fill="#1e1e1e" text-anchor="start" style="white-space: pre;" direction="ltr" dominant-baseline="alphabetic"></text></g><g transform="translate(1722.0001424153638 10) rotate(0 95.54396057128906 22.5)"><text x="0" y="31.536" font-family="Virgil, Segoe UI Emoji" font-size="36px" fill="#e03131" text-anchor="start" style="white-space: pre;" direction="ltr" dominant-baseline="alphabetic">JavaScript</text></g><g transform="translate(1197.2002156575513 121.99996948242176) rotate(0 756.2877807617188 67.5)"><text x="0" y="31.536" font-family="Virgil, Segoe UI Emoji" font-size="36px" fill="#e03131" text-anchor="start" style="white-space: pre;" direction="ltr" dominant-baseline="alphabetic">Es un lenguaje de programación creado para dar interactividad a sitios web,</text><text x="0" y="76.536" font-family="Virgil, Segoe UI Emoji" font-size="36px" fill="#e03131" text-anchor="start" style="white-space: pre;" direction="ltr" dominant-baseline="alphabetic">aunque hoy en día se puede usar para crear bases de datos, interfaces de usuario</text><text x="0" y="121.536" font-family="Virgil, Segoe UI Emoji" font-size="36px" fill="#e03131" text-anchor="start" style="white-space: pre;" direction="ltr" dominant-baseline="alphabetic">y otro tipo de usos</text></g><g transform="translate(254.8002217610673 430.000030517578) rotate(0 135.53994750976562 22.5)"><text x="0" y="31.536" font-family="Virgil, Segoe UI Emoji" font-size="36px" fill="#2f9e44" text-anchor="start" style="white-space: pre;" direction="ltr" dominant-baseline="alphabetic">Tipado dinámico</text></g><g transform="translate(1146.0002950032545 465.1999511718749) rotate(0 130.0859375 22.5)"><text x="0" y="31.536" font-family="Virgil, Segoe UI Emoji" font-size="36px" fill="#2f9e44" text-anchor="start" style="white-space: pre;" direction="ltr" dominant-baseline="alphabetic">Multiparadigma</text></g><g transform="translate(2239.600118001301 425.20001220703114) rotate(0 140.50794982910156 22.5)"><text x="0" y="31.536" font-family="Virgil, Segoe UI Emoji" font-size="36px" fill="#2f9e44" text-anchor="start" style="white-space: pre;" direction="ltr" dominant-baseline="alphabetic">Multiplataforma</text></g><g transform="translate(3547.600423177082 461.99988555908203) rotate(0 193.98593139648438 22.5)"><text x="0" y="31.536" font-family="Virgil, Segoe UI Emoji" font-size="36px" fill="#2f9e44" text-anchor="start" style="white-space: pre;" direction="ltr" dominant-baseline="alphabetic">Lenguaje interpretado</text></g><g transform="translate(54.66667683919161 529.3335876464837) rotate(0 398.2318420410156 90)"><text x="0" y="31.536" font-family="Virgil, Segoe UI Emoji" font-size="36px" fill="#1971c2" text-anchor="start" style="white-space: pre;" direction="ltr" dominant-baseline="alphabetic">Javascript interpreta el tipo de dato</text><text x="0" y="76.536" font-family="Virgil, Segoe UI Emoji" font-size="36px" fill="#1971c2" text-anchor="start" style="white-space: pre;" direction="ltr" dominant-baseline="alphabetic">que se esta creando con base en el valor</text><text x="0" y="121.536" font-family="Virgil, Segoe UI Emoji" font-size="36px" fill="#1971c2" text-anchor="start" style="white-space: pre;" direction="ltr" dominant-baseline="alphabetic">que se le asigna, no es necesario especificar</text><text x="0" y="166.536" font-family="Virgil, Segoe UI Emoji" font-size="36px" fill="#1971c2" text-anchor="start" style="white-space: pre;" direction="ltr" dominant-baseline="alphabetic">los tipos de dato que se van a usar</text></g><g transform="translate(1144.6666768391915 571.3335189819329) rotate(0 391.3918762207031 45)"><text x="0" y="31.536" font-family="Virgil, Segoe UI Emoji" font-size="36px" fill="#1971c2" text-anchor="start" style="white-space: pre;" direction="ltr" dominant-baseline="alphabetic">Funciona como lenguaje orientado a objetos,</text><text x="0" y="76.536" font-family="Virgil, Segoe UI Emoji" font-size="36px" fill="#1971c2" text-anchor="start" style="white-space: pre;" direction="ltr" dominant-baseline="alphabetic">orientado a eventos, y funcional</text></g><g transform="translate(2248.666768391926 559.3335876464837) rotate(0 548.0457763671875 45)"><text x="0" y="31.536" font-family="Virgil, Segoe UI Emoji" font-size="36px" fill="#1971c2" text-anchor="start" style="white-space: pre;" direction="ltr" dominant-baseline="alphabetic">Se puede usar en la parte de front-end, también en</text><text x="0" y="76.536" font-family="Virgil, Segoe UI Emoji" font-size="36px" fill="#1971c2" text-anchor="start" style="white-space: pre;" direction="ltr" dominant-baseline="alphabetic">backend, y además se puede ejecutar en diversos dispositivos</text></g><g transform="translate(3566.666798909504 593.3335647583001) rotate(0 575.6397705078125 45)"><text x="0" y="31.536" font-family="Virgil, Segoe UI Emoji" font-size="36px" fill="#1971c2" text-anchor="start" style="white-space: pre;" direction="ltr" dominant-baseline="alphabetic">El navegador procesa las instrucciones declaradas sin necesidad</text><text x="0" y="76.536" font-family="Virgil, Segoe UI Emoji" font-size="36px" fill="#1971c2" text-anchor="start" style="white-space: pre;" direction="ltr" dominant-baseline="alphabetic">de un traductor ( compilador )</text></g><g stroke-linecap="round"><g transform="translate(1823.999847412109 67.33406321207758) rotate(0 -1.5999755859375 28.79998779296875)"><path d="M-0.87 0.1 C-1.49 9.76, -3.16 48.36, -3.42 58.05 M0.88 -0.9 C0.05 8.4, -3.88 46.65, -4.48 56.17" stroke="#1e1e1e" stroke-width="2" fill="none"></path></g><g transform="translate(1823.999847412109 67.33406321207758) rotate(0 -1.5999755859375 28.79998779296875)"><path d="M-10.99 32.04 C-8.7 39.6, -5.97 49.21, -4.48 56.17 M-10.99 32.04 C-8.68 39.98, -5.29 49.44, -4.48 56.17" stroke="#1e1e1e" stroke-width="2" fill="none"></path></g><g transform="translate(1823.999847412109 67.33406321207758) rotate(0 -1.5999755859375 28.79998779296875)"><path d="M6.05 33.49 C2.78 40.46, -0.05 49.59, -4.48 56.17 M6.05 33.49 C2.3 41, -0.35 49.95, -4.48 56.17" stroke="#1e1e1e" stroke-width="2" fill="none"></path></g></g><mask></mask><g stroke-linecap="round"><g transform="translate(1116.8000183105466 224.13400522867914) rotate(0 -276.0000305175781 80.80000305175781)"><path d="M-0.47 -0.15 C-92.18 26.71, -459.01 135.3, -550.92 162.32 M1.49 -1.27 C-90.23 25.75, -458.95 133.72, -551.3 160.58" stroke="#1e1e1e" stroke-width="2" fill="none"></path></g><g transform="translate(1116.8000183105466 224.13400522867914) rotate(0 -276.0000305175781 80.80000305175781)"><path d="M-531.15 145.78 C-536.19 151.13, -539.68 153.1, -551.3 160.58 M-531.15 145.78 C-538.19 150.52, -544.69 155.83, -551.3 160.58" stroke="#1e1e1e" stroke-width="2" fill="none"></path></g><g transform="translate(1116.8000183105466 224.13400522867914) rotate(0 -276.0000305175781 80.80000305175781)"><path d="M-526.35 162.2 C-532.73 163.51, -537.39 161.46, -551.3 160.58 M-526.35 162.2 C-534.86 161.49, -542.96 161.33, -551.3 160.58" stroke="#1e1e1e" stroke-width="2" fill="none"></path></g></g><mask></mask><g stroke-linecap="round"><g transform="translate(1377.5999450683591 275.3340174357104) rotate(0 -28.79998779296875 88.79998779296875)"><path d="M1.15 -0.67 C-8.16 28.81, -46.67 146.9, -56.43 176.54 M0.29 1.59 C-9.02 31.21, -47.03 148.07, -56.76 177.53" stroke="#1e1e1e" stroke-width="2" fill="none"></path></g><g transform="translate(1377.5999450683591 275.3340174357104) rotate(0 -28.79998779296875 88.79998779296875)"><path d="M-57.58 152.54 C-58.56 160.79, -58.99 165.45, -56.76 177.53 M-57.58 152.54 C-57.04 159.72, -56.27 165.02, -56.76 177.53" stroke="#1e1e1e" stroke-width="2" fill="none"></path></g><g transform="translate(1377.5999450683591 275.3340174357104) rotate(0 -28.79998779296875 88.79998779296875)"><path d="M-41.33 157.86 C-46.39 164.92, -50.92 168.25, -56.76 177.53 M-41.33 157.86 C-45.14 163.76, -48.71 167.63, -56.76 177.53" stroke="#1e1e1e" stroke-width="2" fill="none"></path></g></g><mask></mask><g stroke-linecap="round"><g transform="translate(2099.1996765136714 217.73396555582758) rotate(0 80.800048828125 88.80001068115234)"><path d="M-0.96 0.44 C26.16 30.24, 134.94 149.14, 161.97 178.55 M0.73 -0.37 C27.8 29.12, 134.63 147.22, 161.21 176.93" stroke="#1e1e1e" stroke-width="2" fill="none"></path></g><g transform="translate(2099.1996765136714 217.73396555582758) rotate(0 80.800048828125 88.80001068115234)"><path d="M139.14 165.2 C145 168.72, 151 170.18, 161.21 176.93 M139.14 165.2 C144.89 167.32, 149.38 171.15, 161.21 176.93" stroke="#1e1e1e" stroke-width="2" fill="none"></path></g><g transform="translate(2099.1996765136714 217.73396555582758) rotate(0 80.800048828125 88.80001068115234)"><path d="M151.85 153.75 C154.73 159.85, 157.76 163.97, 161.21 176.93 M151.85 153.75 C154.43 158.59, 155.8 165.22, 161.21 176.93" stroke="#1e1e1e" stroke-width="2" fill="none"></path></g></g><mask></mask><g stroke-linecap="round"><g transform="translate(2812.799652099609 206.53402964274164) rotate(0 358.39996337890625 118.39997863769531)"><path d="M-0.36 -0.94 C119.03 38.42, 596.76 197.47, 716.19 236.91 M1.66 1.19 C121.46 40.69, 599.66 199.3, 718.57 238.51" stroke="#1e1e1e" stroke-width="2" fill="none"></path></g><g transform="translate(2812.799652099609 206.53402964274164) rotate(0 358.39996337890625 118.39997863769531)"><path d="M693.59 239.25 C699.18 238.09, 708.1 237.94, 718.57 238.51 M693.59 239.25 C698.17 239.2, 705.08 239.73, 718.57 238.51" stroke="#1e1e1e" stroke-width="2" fill="none"></path></g><g transform="translate(2812.799652099609 206.53402964274164) rotate(0 358.39996337890625 118.39997863769531)"><path d="M698.96 223.02 C703.12 226.49, 710.5 230.99, 718.57 238.51 M698.96 223.02 C702.41 226.35, 708.2 230.29, 718.57 238.51" stroke="#1e1e1e" stroke-width="2" fill="none"></path></g></g><mask></mask><g stroke-linecap="round"><g transform="translate(252.79928588867153 764.9341150919604) rotate(0 -50.399993896484375 67.20001220703125)"><path d="M0.21 -0.19 C-16.63 22.2, -83.6 111.35, -100.29 133.59 M-1.14 -1.34 C-18.16 21.26, -84.45 112.15, -100.98 134.71" stroke="#1e1e1e" stroke-width="2" fill="none"></path></g><g transform="translate(252.79928588867153 764.9341150919604) rotate(0 -50.399993896484375 67.20001220703125)"><path d="M-94.01 110.7 C-96.99 120.2, -100.52 129.38, -100.98 134.71 M-94.01 110.7 C-95.98 115.29, -96.31 120.94, -100.98 134.71" stroke="#1e1e1e" stroke-width="2" fill="none"></path></g><g transform="translate(252.79928588867153 764.9341150919604) rotate(0 -50.399993896484375 67.20001220703125)"><path d="M-80.21 120.79 C-88.09 126.68, -96.6 132.23, -100.98 134.71 M-80.21 120.79 C-85.11 123.31, -88.29 126.87, -100.98 134.71" stroke="#1e1e1e" stroke-width="2" fill="none"></path></g></g><mask></mask><g stroke-linecap="round"><g transform="translate(1318.3993835449214 702.534121195476) rotate(0 6.4000244140625 64.80000305175781)"><path d="M-0.84 -1.07 C1.29 20.34, 10.26 107.46, 12.47 129.39 M0.92 0.98 C2.89 22.5, 9.6 109.54, 11.36 130.82" stroke="#1e1e1e" stroke-width="2" fill="none"></path></g><g transform="translate(1318.3993835449214 702.534121195476) rotate(0 6.4000244140625 64.80000305175781)"><path d="M0.97 108.08 C2.24 113.91, 6.55 120.14, 11.36 130.82 M0.97 108.08 C5.82 116.74, 8.57 125.97, 11.36 130.82" stroke="#1e1e1e" stroke-width="2" fill="none"></path></g><g transform="translate(1318.3993835449214 702.534121195476) rotate(0 6.4000244140625 64.80000305175781)"><path d="M18.01 106.72 C14.57 112.81, 14.16 119.41, 11.36 130.82 M18.01 106.72 C16.46 116, 12.79 125.74, 11.36 130.82" stroke="#1e1e1e" stroke-width="2" fill="none"></path></g></g><mask></mask></svg>