<svg version="1.1" xmlns="http://www.w3.org/2000/svg" viewBox="0 0 3513.406411852155 2320.2456992013113" width="3513.406411852155" height="2320.2456992013113" filter="invert(93%) hue-rotate(180deg)">
  <!-- svg-source:excalidraw -->
  
  <defs>
    <style class="style-fonts">
      @font-face {
        font-family: "Virgil";
        src: url("https://excalidraw.com/Virgil.woff2");
      }
      @font-face {
        font-family: "Cascadia";
        src: url("https://excalidraw.com/Cascadia.woff2");
      }
      @font-face {
        font-family: "Assistant";
        src: url("https://excalidraw.com/Assistant-Regular.woff2");
      }
    </style>
    
  </defs>
  <rect x="0" y="0" width="3513.406411852155" height="2320.2456992013113" fill="#ffffff"></rect><g transform="translate(1368.4641646733353 10) rotate(0 231.80392456054688 22.5)"><text x="0" y="31.536" font-family="Virgil, Segoe UI Emoji" font-size="36px" fill="#1e1e1e" text-anchor="start" style="white-space: pre;" direction="ltr" dominant-baseline="alphabetic">Pensamiento estructurado</text></g><g transform="translate(1388.0196931021549 92.00002034505209) rotate(0 196.81190490722656 22.5)"><text x="0" y="31.536" font-family="Virgil, Segoe UI Emoji" font-size="36px" fill="#e03131" text-anchor="start" style="white-space: pre;" direction="ltr" dominant-baseline="alphabetic">Definición del problema</text></g><g transform="translate(1354.2419560144813 193.33329942491315) rotate(0 400.9678955078125 45)"><text x="0" y="31.536" font-family="Virgil, Segoe UI Emoji" font-size="36px" fill="#e03131" text-anchor="start" style="white-space: pre;" direction="ltr" dominant-baseline="alphabetic">Saber cuáles números de una lista son pares</text><text x="0" y="76.536" font-family="Virgil, Segoe UI Emoji" font-size="36px" fill="#e03131" text-anchor="start" style="white-space: pre;" direction="ltr" dominant-baseline="alphabetic">y cuáles son nones</text></g><g transform="translate(2486.2102622985835 395.3651682535806) rotate(0 179.00991821289062 22.5)"><text x="0" y="31.536" font-family="Virgil, Segoe UI Emoji" font-size="36px" fill="#2f9e44" text-anchor="start" style="white-space: pre;" direction="ltr" dominant-baseline="alphabetic">Análisis del problema</text></g><g transform="translate(2383.1625734965 588.6986469087145) rotate(0 370.20587158203114 157.5)"><text x="0" y="31.536" font-family="Virgil, Segoe UI Emoji" font-size="36px" fill="#2f9e44" text-anchor="start" style="white-space: pre;" direction="ltr" dominant-baseline="alphabetic">¿qué es par y qué es non?</text><text x="0" y="76.536" font-family="Virgil, Segoe UI Emoji" font-size="36px" fill="#2f9e44" text-anchor="start" style="white-space: pre;" direction="ltr" dominant-baseline="alphabetic">¿la lista ya existe?</text><text x="0" y="121.536" font-family="Virgil, Segoe UI Emoji" font-size="36px" fill="#2f9e44" text-anchor="start" style="white-space: pre;" direction="ltr" dominant-baseline="alphabetic">¿cuáles números?</text><text x="0" y="166.536" font-family="Virgil, Segoe UI Emoji" font-size="36px" fill="#2f9e44" text-anchor="start" style="white-space: pre;" direction="ltr" dominant-baseline="alphabetic">¿cuántos números?</text><text x="0" y="211.536" font-family="Virgil, Segoe UI Emoji" font-size="36px" fill="#2f9e44" text-anchor="start" style="white-space: pre;" direction="ltr" dominant-baseline="alphabetic">¿son sólo enteros o tienen decimales?</text><text x="0" y="256.536" font-family="Virgil, Segoe UI Emoji" font-size="36px" fill="#2f9e44" text-anchor="start" style="white-space: pre;" direction="ltr" dominant-baseline="alphabetic">¿tenemos que evaluar todos los números?</text><text x="0" y="301.536" font-family="Virgil, Segoe UI Emoji" font-size="36px" fill="#2f9e44" text-anchor="start" style="white-space: pre;" direction="ltr" dominant-baseline="alphabetic">¿Cómo se entrega el resultado?</text></g><g transform="translate(2497.638833727155 468.50804283505374) rotate(0 502.8837890625 67.5)"><text x="0" y="31.536" font-family="Virgil, Segoe UI Emoji" font-size="36px" fill="#2f9e44" text-anchor="start" style="white-space: pre;" direction="ltr" dominant-baseline="alphabetic">Se observan todas las posibles variantes e implicaciones</text><text x="0" y="76.536" font-family="Virgil, Segoe UI Emoji" font-size="36px" fill="#2f9e44" text-anchor="start" style="white-space: pre;" direction="ltr" dominant-baseline="alphabetic">derivadas de la definición inicial del problema</text><text x="0" y="121.536" font-family="Virgil, Segoe UI Emoji" font-size="36px" fill="#2f9e44" text-anchor="start" style="white-space: pre;" direction="ltr" dominant-baseline="alphabetic"></text></g><g transform="translate(3134.210314614432 581.6507648286364) rotate(0 -0.5714634486607792 0)" stroke="none"><path fill="#2f9e44" d="M 4.24,-1.32 Q 4.24,-1.32 4.30,-0.26 4.36,0.80 3.93,1.76 3.49,2.73 2.65,3.39 1.82,4.05 0.77,4.24 -0.26,4.43 -1.28,4.11 -2.29,3.80 -3.04,3.04 -3.80,2.29 -4.11,1.28 -4.43,0.26 -4.24,-0.77 -4.04,-1.82 -3.39,-2.65 -2.73,-3.49 -1.76,-3.93 -0.79,-4.36 0.26,-4.30 1.32,-4.23 2.23,-3.68 3.14,-3.13 3.69,-2.23 L 4.24,-1.32 Z"></path></g><g transform="translate(2849.6388686043874 534.7936394101096) rotate(0 0.00004999999998744897 0.00004999999998744897)" stroke="none"><path fill="#2f9e44" d="M 3.14,-3.14 Q 3.14,-3.14 3.55,-2.55 3.97,-1.97 4.18,-1.28 4.40,-0.59 4.38,0.11 4.36,0.83 4.11,1.51 3.86,2.18 3.41,2.74 2.96,3.30 2.36,3.69 1.75,4.08 1.05,4.25 0.36,4.42 -0.35,4.36 -1.07,4.31 -1.73,4.02 -2.39,3.74 -2.92,3.26 -3.46,2.78 -3.81,2.15 -4.16,1.53 -4.30,0.82 -4.43,0.11 -4.34,-0.59 -4.24,-1.30 -3.92,-1.94 -3.60,-2.59 -3.09,-3.09 -2.59,-3.60 -1.94,-3.92 -1.30,-4.24 -0.59,-4.34 0.12,-4.43 0.82,-4.30 1.53,-4.16 2.15,-3.81 2.78,-3.46 3.26,-2.92 3.74,-2.39 4.02,-1.73 4.31,-1.07 4.36,-0.35 4.42,0.36 4.25,1.05 4.07,1.75 3.69,2.36 3.30,2.96 2.74,3.41 2.18,3.86 1.51,4.11 0.83,4.36 0.11,4.38 -0.60,4.40 -1.28,4.18 -1.97,3.97 -2.55,3.55 -3.14,3.13 -3.14,3.14 -3.14,3.14 -3.47,2.71 -3.80,2.29 -4.02,1.80 -4.24,1.32 -4.33,0.79 -4.43,0.26 -4.40,-0.26 -4.36,-0.80 -4.20,-1.31 -4.04,-1.82 -3.77,-2.28 -3.49,-2.73 -3.11,-3.11 -2.73,-3.49 -2.28,-3.77 -1.82,-4.05 -1.31,-4.20 -0.80,-4.36 -0.26,-4.40 0.26,-4.43 0.79,-4.33 1.32,-4.24 1.80,-4.02 2.29,-3.80 2.71,-3.47 3.14,-3.14 3.14,-3.14 L 3.14,-3.14 Z"></path></g><g transform="translate(2850.7817083086284 534.7936394101096) rotate(0 0.00004999999998744897 0.00004999999998744897)" stroke="none"><path fill="#2f9e44" d="M 3.14,-3.14 Q 3.14,-3.14 3.55,-2.55 3.97,-1.97 4.18,-1.28 4.40,-0.59 4.38,0.11 4.36,0.83 4.11,1.51 3.86,2.18 3.41,2.74 2.96,3.30 2.36,3.69 1.75,4.08 1.05,4.25 0.36,4.42 -0.35,4.36 -1.07,4.31 -1.73,4.02 -2.39,3.74 -2.92,3.26 -3.46,2.78 -3.81,2.15 -4.16,1.53 -4.30,0.82 -4.43,0.11 -4.34,-0.59 -4.24,-1.30 -3.92,-1.94 -3.60,-2.59 -3.09,-3.09 -2.59,-3.60 -1.94,-3.92 -1.30,-4.24 -0.59,-4.34 0.12,-4.43 0.82,-4.30 1.53,-4.16 2.15,-3.81 2.78,-3.46 3.26,-2.92 3.74,-2.39 4.02,-1.73 4.31,-1.07 4.36,-0.35 4.42,0.36 4.25,1.05 4.07,1.75 3.69,2.36 3.30,2.96 2.74,3.41 2.18,3.86 1.51,4.11 0.83,4.36 0.11,4.38 -0.60,4.40 -1.28,4.18 -1.97,3.97 -2.55,3.55 -3.14,3.13 -3.14,3.14 -3.14,3.14 -3.47,2.71 -3.80,2.29 -4.02,1.80 -4.24,1.32 -4.33,0.79 -4.43,0.26 -4.40,-0.26 -4.36,-0.80 -4.20,-1.31 -4.04,-1.82 -3.77,-2.28 -3.49,-2.73 -3.11,-3.11 -2.73,-3.49 -2.28,-3.77 -1.82,-4.05 -1.31,-4.20 -0.80,-4.36 -0.26,-4.40 0.26,-4.43 0.79,-4.33 1.32,-4.24 1.80,-4.02 2.29,-3.80 2.71,-3.47 3.14,-3.14 3.14,-3.14 L 3.14,-3.14 Z"></path></g><g transform="translate(1352.2099309648784 389.65065365745903) rotate(0 463.121826171875 202.49999999999997)"><text x="0" y="31.536" font-family="Virgil, Segoe UI Emoji" font-size="36px" fill="#e03131" text-anchor="start" style="white-space: pre;" direction="ltr" dominant-baseline="alphabetic">Dada la siguiente lista de números:</text><text x="0" y="76.536" font-family="Virgil, Segoe UI Emoji" font-size="36px" fill="#e03131" text-anchor="start" style="white-space: pre;" direction="ltr" dominant-baseline="alphabetic">1,3,5</text><text x="0" y="121.536" font-family="Virgil, Segoe UI Emoji" font-size="36px" fill="#e03131" text-anchor="start" style="white-space: pre;" direction="ltr" dominant-baseline="alphabetic"></text><text x="0" y="166.536" font-family="Virgil, Segoe UI Emoji" font-size="36px" fill="#e03131" text-anchor="start" style="white-space: pre;" direction="ltr" dominant-baseline="alphabetic">determinar de todos los números, cuáles son pares</text><text x="0" y="211.536" font-family="Virgil, Segoe UI Emoji" font-size="36px" fill="#e03131" text-anchor="start" style="white-space: pre;" direction="ltr" dominant-baseline="alphabetic">y cuáles son nones, y entregar una nueva lista con </text><text x="0" y="256.536" font-family="Virgil, Segoe UI Emoji" font-size="36px" fill="#e03131" text-anchor="start" style="white-space: pre;" direction="ltr" dominant-baseline="alphabetic">los números y el resultado de su evaluación</text><text x="0" y="301.536" font-family="Virgil, Segoe UI Emoji" font-size="36px" fill="#e03131" text-anchor="start" style="white-space: pre;" direction="ltr" dominant-baseline="alphabetic"></text><text x="0" y="346.536" font-family="Virgil, Segoe UI Emoji" font-size="36px" fill="#e03131" text-anchor="start" style="white-space: pre;" direction="ltr" dominant-baseline="alphabetic">    x - par</text><text x="0" y="391.536" font-family="Virgil, Segoe UI Emoji" font-size="36px" fill="#e03131" text-anchor="start" style="white-space: pre;" direction="ltr" dominant-baseline="alphabetic">    y - non</text></g><g transform="translate(2531.3527793884273 969.0790376209073) rotate(0 481.9678039550781 90)"><text x="0" y="31.536" font-family="Virgil, Segoe UI Emoji" font-size="36px" fill="#1971c2" text-anchor="start" style="white-space: pre;" direction="ltr" dominant-baseline="alphabetic">Definición de herramientas:</text><text x="0" y="76.536" font-family="Virgil, Segoe UI Emoji" font-size="36px" fill="#1971c2" text-anchor="start" style="white-space: pre;" direction="ltr" dominant-baseline="alphabetic">Aquí es donde anotamos todas las herramientas que </text><text x="0" y="121.536" font-family="Virgil, Segoe UI Emoji" font-size="36px" fill="#1971c2" text-anchor="start" style="white-space: pre;" direction="ltr" dominant-baseline="alphabetic">potencialmente pueden ayudarnos a crear una solución</text><text x="0" y="166.536" font-family="Virgil, Segoe UI Emoji" font-size="36px" fill="#1971c2" text-anchor="start" style="white-space: pre;" direction="ltr" dominant-baseline="alphabetic">para el problema</text></g><g transform="translate(2765.352718353271 1219.0790376209075) rotate(0 104.29196166992188 22.5)"><text x="0" y="31.536" font-family="Virgil, Segoe UI Emoji" font-size="36px" fill="#1971c2" text-anchor="start" style="white-space: pre;" direction="ltr" dominant-baseline="alphabetic">Calculadora</text></g><g transform="translate(3120.6861737569166 1219.745744977678) rotate(0 44.33396911621094 22.5)"><text x="0" y="31.536" font-family="Virgil, Segoe UI Emoji" font-size="36px" fill="#1971c2" text-anchor="start" style="white-space: pre;" direction="ltr" dominant-baseline="alphabetic">papel</text></g><g transform="translate(3327.3531455993652 1217.7457500639416) rotate(0 37.94397735595703 22.5)"><text x="0" y="31.536" font-family="Virgil, Segoe UI Emoji" font-size="36px" fill="#1971c2" text-anchor="start" style="white-space: pre;" direction="ltr" dominant-baseline="alphabetic">lápiz</text></g><g transform="translate(2812.68649927775 1339.0789613269626) rotate(0 63.323974609375 22.5)"><text x="0" y="31.536" font-family="Virgil, Segoe UI Emoji" font-size="36px" fill="#1971c2" text-anchor="start" style="white-space: pre;" direction="ltr" dominant-baseline="alphabetic">cerebro</text></g><g transform="translate(3116.686336517334 1340.412426903134) rotate(0 50.07598114013672 22.5)"><text x="0" y="31.536" font-family="Virgil, Segoe UI Emoji" font-size="36px" fill="#1971c2" text-anchor="start" style="white-space: pre;" direction="ltr" dominant-baseline="alphabetic">dedos</text></g><g transform="translate(3318.0196495056143 1337.7457500639412) rotate(0 50.25598907470703 22.5)"><text x="0" y="31.536" font-family="Virgil, Segoe UI Emoji" font-size="36px" fill="#1971c2" text-anchor="start" style="white-space: pre;" direction="ltr" dominant-baseline="alphabetic">ábaco</text></g><g transform="translate(3114.0198122660313 1437.7458517892019) rotate(0 45.30597686767578 22.5)"><text x="0" y="31.536" font-family="Virgil, Segoe UI Emoji" font-size="36px" fill="#1971c2" text-anchor="start" style="white-space: pre;" direction="ltr" dominant-baseline="alphabetic">libros</text></g><g transform="translate(1532.6864738464353 1409.7457704089934) rotate(0 571.121826171875 135)"><text x="0" y="31.536" font-family="Virgil, Segoe UI Emoji" font-size="36px" fill="#f08c00" text-anchor="start" style="white-space: pre;" direction="ltr" dominant-baseline="alphabetic">Análisis de las herramientas:</text><text x="0" y="76.536" font-family="Virgil, Segoe UI Emoji" font-size="36px" fill="#f08c00" text-anchor="start" style="white-space: pre;" direction="ltr" dominant-baseline="alphabetic">En esta etapa, determinamos cuáles son las herramientas</text><text x="0" y="121.536" font-family="Virgil, Segoe UI Emoji" font-size="36px" fill="#f08c00" text-anchor="start" style="white-space: pre;" direction="ltr" dominant-baseline="alphabetic">que interactúan entre sí, cuáles son las que dependen de otras</text><text x="0" y="166.536" font-family="Virgil, Segoe UI Emoji" font-size="36px" fill="#f08c00" text-anchor="start" style="white-space: pre;" direction="ltr" dominant-baseline="alphabetic">herramientas, y el propósito es agruparlas para poder plantear</text><text x="0" y="211.536" font-family="Virgil, Segoe UI Emoji" font-size="36px" fill="#f08c00" text-anchor="start" style="white-space: pre;" direction="ltr" dominant-baseline="alphabetic">soluciones al problema, y descartar las que no sean de </text><text x="0" y="256.536" font-family="Virgil, Segoe UI Emoji" font-size="36px" fill="#f08c00" text-anchor="start" style="white-space: pre;" direction="ltr" dominant-baseline="alphabetic">utilidad</text></g><g transform="translate(1996.7634722391765 1818.5790071033293) rotate(0 104.29196166992188 22.5)"><text x="0" y="31.536" font-family="Virgil, Segoe UI Emoji" font-size="36px" fill="#1971c2" text-anchor="start" style="white-space: pre;" direction="ltr" dominant-baseline="alphabetic">Calculadora</text></g><g transform="translate(1585.4302609761553 1861.9124421619235) rotate(0 44.33396911621094 22.5)"><text x="0" y="31.536" font-family="Virgil, Segoe UI Emoji" font-size="36px" fill="#1971c2" text-anchor="start" style="white-space: pre;" direction="ltr" dominant-baseline="alphabetic">papel</text></g><g transform="translate(1584.0973040262866 1939.9124472481867) rotate(0 37.94397735595703 22.5)"><text x="0" y="31.536" font-family="Virgil, Segoe UI Emoji" font-size="36px" fill="#1971c2" text-anchor="start" style="white-space: pre;" direction="ltr" dominant-baseline="alphabetic">lápiz</text></g><g transform="translate(1584.097354888916 1734.5789409819113) rotate(0 63.323974609375 22.5)"><text x="0" y="31.536" font-family="Virgil, Segoe UI Emoji" font-size="36px" fill="#1971c2" text-anchor="start" style="white-space: pre;" direction="ltr" dominant-baseline="alphabetic">cerebro</text></g><g transform="translate(1585.4305152893076 1798.5791342599055) rotate(0 50.07598114013672 22.5)"><text x="0" y="31.536" font-family="Virgil, Segoe UI Emoji" font-size="36px" fill="#1971c2" text-anchor="start" style="white-space: pre;" direction="ltr" dominant-baseline="alphabetic">dedos</text></g><g transform="translate(2497.4304847717285 1819.9124981108162) rotate(0 50.25598907470703 22.5)"><text x="0" y="31.536" font-family="Virgil, Segoe UI Emoji" font-size="36px" fill="#1971c2" text-anchor="start" style="white-space: pre;" direction="ltr" dominant-baseline="alphabetic">ábaco</text></g><g transform="translate(2232.0973345438642 2265.2456992013113) rotate(0 45.30597686767578 22.5)"><text x="0" y="31.536" font-family="Virgil, Segoe UI Emoji" font-size="36px" fill="#1971c2" text-anchor="start" style="white-space: pre;" direction="ltr" dominant-baseline="alphabetic">libros</text></g><g transform="translate(1994.610106150309 1883.2457805815202) rotate(0 50.07598114013672 22.5)"><text x="0" y="31.536" font-family="Virgil, Segoe UI Emoji" font-size="36px" fill="#1971c2" text-anchor="start" style="white-space: pre;" direction="ltr" dominant-baseline="alphabetic">dedos</text></g><g transform="translate(2020.0287996927898 1752.5790732247492) rotate(0 63.323974609375 22.5)"><text x="0" y="31.536" font-family="Virgil, Segoe UI Emoji" font-size="36px" fill="#1971c2" text-anchor="start" style="white-space: pre;" direction="ltr" dominant-baseline="alphabetic">cerebro</text></g><g transform="translate(3131.3528556823726 1524.4124167306086) rotate(0 99.08995819091797 67.5)"><text x="0" y="31.536" font-family="Virgil, Segoe UI Emoji" font-size="36px" fill="#1971c2" text-anchor="start" style="white-space: pre;" direction="ltr" dominant-baseline="alphabetic">baterías</text><text x="0" y="76.536" font-family="Virgil, Segoe UI Emoji" font-size="36px" fill="#1971c2" text-anchor="start" style="white-space: pre;" direction="ltr" dominant-baseline="alphabetic"></text><text x="0" y="121.536" font-family="Virgil, Segoe UI Emoji" font-size="36px" fill="#1971c2" text-anchor="start" style="white-space: pre;" direction="ltr" dominant-baseline="alphabetic">celda solar</text></g><g transform="translate(3152.6860669453936 1720.4124269031345) rotate(0 163.29592895507812 22.5)"><text x="0" y="31.536" font-family="Virgil, Segoe UI Emoji" font-size="36px" fill="#1971c2" text-anchor="start" style="white-space: pre;" direction="ltr" dominant-baseline="alphabetic">corriente eléctrica</text></g><g transform="translate(2001.3901583353677 1945.9125591459733) rotate(0 163.29592895507812 22.5)"><text x="0" y="31.536" font-family="Virgil, Segoe UI Emoji" font-size="36px" fill="#1971c2" text-anchor="start" style="white-space: pre;" direction="ltr" dominant-baseline="alphabetic">corriente eléctrica</text></g><g transform="translate(2502.609984079997 1760.5790528796965) rotate(0 50.07598114013672 22.5)"><text x="0" y="31.536" font-family="Virgil, Segoe UI Emoji" font-size="36px" fill="#1971c2" text-anchor="start" style="white-space: pre;" direction="ltr" dominant-baseline="alphabetic">dedos</text></g><g transform="translate(2493.362031300863 1696.5790630522224) rotate(0 63.323974609375 22.5)"><text x="0" y="31.536" font-family="Virgil, Segoe UI Emoji" font-size="36px" fill="#1971c2" text-anchor="start" style="white-space: pre;" direction="ltr" dominant-baseline="alphabetic">cerebro</text></g><g transform="translate(2519.3526318868003 1899.0790630522229) rotate(0 134.80194091796875 22.5)"><text x="0" y="31.536" font-family="Virgil, Segoe UI Emoji" font-size="36px" fill="#1971c2" text-anchor="start" style="white-space: pre;" direction="ltr" dominant-baseline="alphabetic">*(saber usarlo)</text></g><g transform="translate(2229.9859771728516 2203.24583144415) rotate(0 50.07598114013672 22.5)"><text x="0" y="31.536" font-family="Virgil, Segoe UI Emoji" font-size="36px" fill="#1971c2" text-anchor="start" style="white-space: pre;" direction="ltr" dominant-baseline="alphabetic">dedos</text></g><g transform="translate(2228.738004048666 2143.24588230678) rotate(0 63.323974609375 22.5)"><text x="0" y="31.536" font-family="Virgil, Segoe UI Emoji" font-size="36px" fill="#1971c2" text-anchor="start" style="white-space: pre;" direction="ltr" dominant-baseline="alphabetic">cerebro</text></g><g transform="translate(170.6948712666823 1647.9125794910237) rotate(0 44.33396911621094 22.5)"><text x="0" y="31.536" font-family="Virgil, Segoe UI Emoji" font-size="36px" fill="#6741d9" text-anchor="start" style="white-space: pre;" direction="ltr" dominant-baseline="alphabetic">papel</text></g><g transform="translate(169.3619143168138 1725.912584577287) rotate(0 37.94397735595703 22.5)"><text x="0" y="31.536" font-family="Virgil, Segoe UI Emoji" font-size="36px" fill="#6741d9" text-anchor="start" style="white-space: pre;" direction="ltr" dominant-baseline="alphabetic">lápiz</text></g><g transform="translate(170.6952781677245 1519.2456635974704) rotate(0 63.323974609375 22.5)"><text x="0" y="31.536" font-family="Virgil, Segoe UI Emoji" font-size="36px" fill="#6741d9" text-anchor="start" style="white-space: pre;" direction="ltr" dominant-baseline="alphabetic">cerebro</text></g><g transform="translate(170.69512557983455 1584.5792715890057) rotate(0 50.07598114013672 22.5)"><text x="0" y="31.536" font-family="Virgil, Segoe UI Emoji" font-size="36px" fill="#6741d9" text-anchor="start" style="white-space: pre;" direction="ltr" dominant-baseline="alphabetic">dedos</text></g><g transform="translate(358.0193188985195 1223.078849429175) rotate(0 204.04791259765625 22.5)"><text x="0" y="31.536" font-family="Virgil, Segoe UI Emoji" font-size="36px" fill="#6741d9" text-anchor="start" style="white-space: pre;" direction="ltr" dominant-baseline="alphabetic">Definición de soluciones</text></g><g transform="translate(352.685965220134 1307.0789155505945) rotate(0 434.8618469238281 67.5)"><text x="0" y="31.536" font-family="Virgil, Segoe UI Emoji" font-size="36px" fill="#6741d9" text-anchor="start" style="white-space: pre;" direction="ltr" dominant-baseline="alphabetic">En este paso, planteamos las posibles soluciones</text><text x="0" y="76.536" font-family="Virgil, Segoe UI Emoji" font-size="36px" fill="#6741d9" text-anchor="start" style="white-space: pre;" direction="ltr" dominant-baseline="alphabetic">al problema, basándonos en los diferentes grupos</text><text x="0" y="121.536" font-family="Virgil, Segoe UI Emoji" font-size="36px" fill="#6741d9" text-anchor="start" style="white-space: pre;" direction="ltr" dominant-baseline="alphabetic">de herramientas que encontramos</text></g><g transform="translate(500.6859448750821 1543.0789257231208) rotate(0 472.48187255859375 112.5)"><text x="0" y="31.536" font-family="Virgil, Segoe UI Emoji" font-size="36px" fill="#6741d9" text-anchor="start" style="white-space: pre;" direction="ltr" dominant-baseline="alphabetic">Anotamos la lista en el papel</text><text x="0" y="76.536" font-family="Virgil, Segoe UI Emoji" font-size="36px" fill="#6741d9" text-anchor="start" style="white-space: pre;" direction="ltr" dominant-baseline="alphabetic">tomamos cada número de la lista</text><text x="0" y="121.536" font-family="Virgil, Segoe UI Emoji" font-size="36px" fill="#6741d9" text-anchor="start" style="white-space: pre;" direction="ltr" dominant-baseline="alphabetic">realizamos sobre el papel la división</text><text x="0" y="166.536" font-family="Virgil, Segoe UI Emoji" font-size="36px" fill="#6741d9" text-anchor="start" style="white-space: pre;" direction="ltr" dominant-baseline="alphabetic">evaluamos el resultado</text><text x="0" y="211.536" font-family="Virgil, Segoe UI Emoji" font-size="36px" fill="#6741d9" text-anchor="start" style="white-space: pre;" direction="ltr" dominant-baseline="alphabetic">indicamos en cada número de la lista si es par o non</text></g><g transform="translate(12.153366088867415 1983.2455389840243) rotate(0 104.29196166992188 22.5)"><text x="0" y="31.536" font-family="Virgil, Segoe UI Emoji" font-size="36px" fill="#6741d9" text-anchor="start" style="white-space: pre;" direction="ltr" dominant-baseline="alphabetic">Calculadora</text></g><g transform="translate(10 2047.9123124622156) rotate(0 50.07598114013672 22.5)"><text x="0" y="31.536" font-family="Virgil, Segoe UI Emoji" font-size="36px" fill="#6741d9" text-anchor="start" style="white-space: pre;" direction="ltr" dominant-baseline="alphabetic">dedos</text></g><g transform="translate(35.418693542480696 1917.2456051054442) rotate(0 63.323974609375 22.5)"><text x="0" y="31.536" font-family="Virgil, Segoe UI Emoji" font-size="36px" fill="#6741d9" text-anchor="start" style="white-space: pre;" direction="ltr" dominant-baseline="alphabetic">cerebro</text></g><g transform="translate(16.780052185058594 2110.5790910266687) rotate(0 163.29592895507812 22.5)"><text x="0" y="31.536" font-family="Virgil, Segoe UI Emoji" font-size="36px" fill="#6741d9" text-anchor="start" style="white-space: pre;" direction="ltr" dominant-baseline="alphabetic">corriente eléctrica</text></g><g transform="translate(451.3528048197429 1871.079045250301) rotate(0 589.7517700195312 135.0000000000001)"><text x="0" y="31.536" font-family="Virgil, Segoe UI Emoji" font-size="36px" fill="#6741d9" text-anchor="start" style="white-space: pre;" direction="ltr" dominant-baseline="alphabetic">encendemos la calculadora</text><text x="0" y="76.536" font-family="Virgil, Segoe UI Emoji" font-size="36px" fill="#6741d9" text-anchor="start" style="white-space: pre;" direction="ltr" dominant-baseline="alphabetic">tomamos cada número de la lista</text><text x="0" y="121.536" font-family="Virgil, Segoe UI Emoji" font-size="36px" fill="#6741d9" text-anchor="start" style="white-space: pre;" direction="ltr" dominant-baseline="alphabetic">realizamos la división en la calculadora</text><text x="0" y="166.536" font-family="Virgil, Segoe UI Emoji" font-size="36px" fill="#6741d9" text-anchor="start" style="white-space: pre;" direction="ltr" dominant-baseline="alphabetic">evaluamos el resultado para determinar si es par o non</text><text x="0" y="211.536" font-family="Virgil, Segoe UI Emoji" font-size="36px" fill="#6741d9" text-anchor="start" style="white-space: pre;" direction="ltr" dominant-baseline="alphabetic">( si el resultado mostrado tiene decimales, significa que el número</text><text x="0" y="256.536" font-family="Virgil, Segoe UI Emoji" font-size="36px" fill="#6741d9" text-anchor="start" style="white-space: pre;" direction="ltr" dominant-baseline="alphabetic">es non)</text></g><g transform="translate(51.01885096232195 2187.2456559680745) rotate(0 44.33396911621094 22.5)"><text x="0" y="31.536" font-family="Virgil, Segoe UI Emoji" font-size="36px" fill="#6741d9" text-anchor="start" style="white-space: pre;" direction="ltr" dominant-baseline="alphabetic">papel</text></g><g transform="translate(61.40883255004974 2257.912312462215) rotate(0 37.94397735595703 22.5)"><text x="0" y="31.536" font-family="Virgil, Segoe UI Emoji" font-size="36px" fill="#6741d9" text-anchor="start" style="white-space: pre;" direction="ltr" dominant-baseline="alphabetic">lápiz</text></g><g transform="translate(336.9527142842617 723.4792832874089) rotate(0 520.0377807617188 157.50000000000006)"><text x="0" y="31.536" font-family="Virgil, Segoe UI Emoji" font-size="36px" fill="#846358" text-anchor="start" style="white-space: pre;" direction="ltr" dominant-baseline="alphabetic">Análisis de soluciones</text><text x="0" y="76.536" font-family="Virgil, Segoe UI Emoji" font-size="36px" fill="#846358" text-anchor="start" style="white-space: pre;" direction="ltr" dominant-baseline="alphabetic"></text><text x="0" y="121.536" font-family="Virgil, Segoe UI Emoji" font-size="36px" fill="#846358" text-anchor="start" style="white-space: pre;" direction="ltr" dominant-baseline="alphabetic">se evalúan los pros y contras de cada solución propuesta</text><text x="0" y="166.536" font-family="Virgil, Segoe UI Emoji" font-size="36px" fill="#846358" text-anchor="start" style="white-space: pre;" direction="ltr" dominant-baseline="alphabetic">¿la solución es escalable?</text><text x="0" y="211.536" font-family="Virgil, Segoe UI Emoji" font-size="36px" fill="#846358" text-anchor="start" style="white-space: pre;" direction="ltr" dominant-baseline="alphabetic">¿resuleve más de un problema?</text><text x="0" y="256.536" font-family="Virgil, Segoe UI Emoji" font-size="36px" fill="#846358" text-anchor="start" style="white-space: pre;" direction="ltr" dominant-baseline="alphabetic">¿es fácil de implementar?</text><text x="0" y="301.536" font-family="Virgil, Segoe UI Emoji" font-size="36px" fill="#846358" text-anchor="start" style="white-space: pre;" direction="ltr" dominant-baseline="alphabetic">¿podría implementarla cualquier persona?</text></g><g transform="translate(543.7527936299648 202.27947707403007) rotate(0 127.83594512939453 22.5)"><text x="0" y="31.536" font-family="Virgil, Segoe UI Emoji" font-size="36px" fill="#0c8599" text-anchor="start" style="white-space: pre;" direction="ltr" dominant-baseline="alphabetic">Implementación</text></g><g transform="translate(958.1528180440273 264.6795320056707) rotate(0 143.20001220703125 -71.20002746582031)" stroke="none"><path fill="#1e1e1e" d="M -1.58,-3.16 Q -1.58,-3.16 1.12,-4.63 3.84,-6.11 6.22,-7.65 8.61,-9.18 11.42,-11.11 14.24,-13.04 16.20,-14.80 18.17,-16.56 21.41,-19.38 24.66,-22.19 33.08,-29.40 41.50,-36.62 49.68,-43.76 57.86,-50.90 62.34,-54.43 66.81,-57.95 72.76,-63.47 78.72,-69.00 82.28,-71.88 85.85,-74.77 90.62,-78.30 95.38,-81.83 109.86,-91.63 124.34,-101.42 131.86,-106.48 139.38,-111.54 146.77,-116.03 154.16,-120.51 168.02,-126.61 181.87,-132.72 191.99,-135.80 202.10,-138.87 208.68,-140.62 215.26,-142.38 226.10,-143.16 236.95,-143.94 243.78,-144.25 250.62,-144.57 253.97,-144.87 257.32,-145.18 260.62,-145.38 263.91,-145.58 269.46,-145.52 275.01,-145.46 277.82,-145.65 280.63,-145.85 283.51,-146.03 286.38,-146.21 286.99,-146.11 287.60,-146.01 288.15,-145.72 288.69,-145.44 289.12,-144.99 289.54,-144.54 289.81,-143.98 290.07,-143.42 290.13,-142.81 290.20,-142.20 290.07,-141.60 289.94,-140.99 289.62,-140.46 289.31,-139.93 288.84,-139.53 288.37,-139.13 287.80,-138.90 287.22,-138.67 286.61,-138.64 285.99,-138.60 285.40,-138.77 284.80,-138.93 284.29,-139.28 283.78,-139.62 283.41,-140.11 283.03,-140.60 282.83,-141.18 282.63,-141.77 282.63,-142.39 282.63,-143.00 282.83,-143.59 283.02,-144.17 283.39,-144.66 283.77,-145.16 284.28,-145.50 284.79,-145.85 285.38,-146.02 285.97,-146.18 286.59,-146.15 287.21,-146.12 287.78,-145.89 288.35,-145.67 288.82,-145.27 289.29,-144.87 289.61,-144.34 289.93,-143.81 290.07,-143.21 290.20,-142.61 290.14,-142.00 290.07,-141.38 289.81,-140.82 289.56,-140.26 289.13,-139.81 288.71,-139.37 288.16,-139.08 287.62,-138.79 287.01,-138.68 286.40,-138.58 286.40,-138.58 286.41,-138.58 283.53,-138.75 280.66,-138.91 277.85,-139.09 275.04,-139.26 269.53,-139.15 264.03,-139.04 260.79,-139.13 257.56,-139.22 254.21,-139.25 250.86,-139.29 244.09,-138.98 237.32,-138.66 226.96,-137.96 216.61,-137.25 210.13,-135.52 203.64,-133.78 193.83,-130.80 184.03,-127.83 170.49,-121.87 156.95,-115.91 149.69,-111.48 142.42,-107.05 134.92,-101.96 127.43,-96.87 113.08,-87.12 98.73,-77.36 94.11,-73.87 89.48,-70.37 86.11,-67.54 82.74,-64.71 76.70,-58.95 70.66,-53.19 66.40,-49.65 62.14,-46.10 54.09,-38.78 46.04,-31.45 37.93,-24.11 29.81,-16.77 26.62,-13.47 23.43,-10.17 21.07,-8.37 18.71,-6.57 15.67,-4.47 12.63,-2.36 9.91,-0.88 7.19,0.59 4.39,1.87 1.58,3.16 1.17,3.30 0.77,3.44 0.35,3.49 -0.06,3.53 -0.49,3.47 -0.91,3.41 -1.30,3.25 -1.70,3.09 -2.04,2.84 -2.39,2.59 -2.67,2.27 -2.94,1.95 -3.13,1.56 -3.32,1.18 -3.42,0.77 -3.51,0.35 -3.50,-0.06 -3.49,-0.49 -3.38,-0.90 -3.27,-1.31 -3.07,-1.69 -2.86,-2.06 -2.57,-2.37 -2.29,-2.69 -1.93,-2.92 -1.58,-3.16 -1.58,-3.16 L -1.58,-3.16 Z"></path></g><g transform="translate(1210.9528668721523 98.27947707403007) rotate(0 27.199951171875 20.800003051757812)" stroke="none"><path fill="#1e1e1e" d="M 0.39,-4.34 Q 0.39,-4.34 5.43,-3.65 10.48,-2.96 14.77,-1.64 19.07,-0.33 25.35,1.65 31.63,3.64 34.73,4.30 37.83,4.97 39.96,5.10 42.09,5.23 45.86,6.93 49.63,8.62 52.50,9.75 55.38,10.89 57.54,13.74 59.69,16.59 59.61,19.93 59.52,23.27 57.73,27.11 55.94,30.95 53.12,32.07 50.31,33.20 40.27,35.37 30.23,37.53 24.59,38.79 18.95,40.06 14.66,40.98 10.37,41.91 6.72,42.82 3.07,43.73 0.41,44.55 -2.23,45.37 -2.86,45.43 -3.49,45.49 -4.10,45.34 -4.71,45.19 -5.25,44.85 -5.78,44.52 -6.18,44.03 -6.58,43.54 -6.80,42.95 -7.02,42.36 -7.04,41.72 -7.06,41.09 -6.88,40.49 -6.70,39.88 -6.34,39.37 -5.97,38.85 -5.46,38.48 -4.95,38.11 -4.35,37.92 -3.75,37.73 -3.12,37.75 -2.48,37.76 -1.89,37.97 -1.30,38.19 -0.80,38.58 -0.31,38.97 0.03,39.50 0.37,40.03 0.52,40.64 0.68,41.25 0.63,41.88 0.59,42.51 0.34,43.09 0.10,43.67 -0.31,44.15 -0.73,44.62 -1.28,44.93 -1.83,45.25 -2.45,45.37 -3.06,45.49 -3.69,45.41 -4.32,45.33 -4.88,45.05 -5.45,44.78 -5.90,44.33 -6.35,43.89 -6.63,43.33 -6.92,42.76 -7.01,42.14 -7.10,41.51 -6.98,40.89 -6.87,40.27 -6.56,39.72 -6.25,39.17 -5.78,38.75 -5.32,38.32 -4.74,38.07 -4.16,37.82 -4.16,37.82 -4.16,37.82 -1.44,37.26 1.27,36.71 4.89,35.76 8.52,34.81 12.68,33.53 16.84,32.25 22.43,30.47 28.02,28.70 39.07,26.36 50.12,24.01 50.88,20.92 51.64,17.83 48.98,16.75 46.33,15.67 43.59,14.32 40.84,12.97 38.47,12.43 36.09,11.89 32.92,10.98 29.74,10.07 23.43,8.35 17.12,6.63 13.44,5.71 9.75,4.80 4.68,4.57 -0.39,4.34 -0.90,4.23 -1.42,4.12 -1.89,3.89 -2.36,3.66 -2.77,3.32 -3.17,2.98 -3.48,2.56 -3.79,2.14 -3.99,1.65 -4.20,1.17 -4.27,0.65 -4.35,0.13 -4.31,-0.39 -4.26,-0.91 -4.09,-1.41 -3.92,-1.90 -3.63,-2.35 -3.34,-2.79 -2.96,-3.15 -2.58,-3.51 -2.12,-3.77 -1.66,-4.02 -1.16,-4.17 -0.65,-4.31 -0.13,-4.32 0.39,-4.34 0.39,-4.34 L 0.39,-4.34 Z"></path></g><g transform="translate(2293.619574228923 254.01290094284514) rotate(0 65.333251953125 69.33333079020179)" stroke="none"><path fill="#1e1e1e" d="M -0.71,-3.59 Q -0.71,-3.59 3.12,-4.30 6.96,-5.01 9.45,-5.53 11.93,-6.05 16.99,-6.47 22.06,-6.89 25.73,-6.84 29.41,-6.80 36.18,-4.18 42.95,-1.57 51.24,4.34 59.54,10.26 71.53,22.89 83.52,35.52 93.15,47.03 102.78,58.53 108.50,68.21 114.22,77.88 118.99,91.36 123.76,104.84 126.45,111.15 129.15,117.45 130.46,121.01 131.77,124.56 132.46,127.30 133.16,130.03 130.89,134.20 128.62,138.36 127.21,140.85 125.79,143.33 125.39,143.78 124.98,144.23 124.46,144.52 123.94,144.82 123.35,144.93 122.76,145.04 122.16,144.96 121.57,144.88 121.03,144.61 120.49,144.34 120.07,143.92 119.64,143.49 119.38,142.95 119.11,142.41 119.03,141.82 118.95,141.22 119.06,140.63 119.18,140.04 119.47,139.52 119.77,139.00 120.22,138.60 120.67,138.20 121.22,137.96 121.77,137.72 122.37,137.67 122.97,137.63 123.55,137.77 124.14,137.92 124.64,138.24 125.15,138.57 125.52,139.04 125.90,139.51 126.10,140.07 126.31,140.64 126.33,141.24 126.34,141.84 126.16,142.41 125.99,142.99 125.63,143.47 125.28,143.96 124.79,144.31 124.31,144.66 123.73,144.83 123.16,145.01 122.56,144.99 121.95,144.97 121.39,144.77 120.83,144.56 120.36,144.18 119.89,143.80 119.57,143.30 119.25,142.79 119.10,142.21 118.96,141.62 119.01,141.02 119.06,140.42 119.30,139.87 119.54,139.32 119.54,139.32 119.54,139.32 121.20,137.00 122.87,134.67 124.48,130.58 126.08,126.48 125.05,123.07 124.01,119.67 121.19,113.22 118.37,106.76 113.75,93.82 109.14,80.88 103.61,71.69 98.09,62.49 88.47,51.25 78.85,40.00 67.20,27.96 55.55,15.92 47.90,10.69 40.25,5.46 34.76,3.50 29.27,1.54 25.75,1.63 22.22,1.73 17.60,1.70 12.98,1.68 10.67,1.81 8.36,1.95 4.54,2.77 0.71,3.59 0.27,3.62 -0.16,3.66 -0.59,3.58 -1.03,3.51 -1.43,3.34 -1.84,3.16 -2.19,2.89 -2.54,2.63 -2.82,2.28 -3.10,1.94 -3.29,1.54 -3.48,1.14 -3.56,0.71 -3.65,0.28 -3.63,-0.16 -3.61,-0.60 -3.49,-1.02 -3.36,-1.45 -3.14,-1.83 -2.92,-2.21 -2.61,-2.53 -2.30,-2.84 -1.93,-3.08 -1.55,-3.31 -1.13,-3.45 -0.71,-3.59 -0.71,-3.59 L -0.71,-3.59 Z"></path></g><g transform="translate(2384.286078135173 400.67954217819664) rotate(0 28.000081380208485 -14.666671752929659)" stroke="none"><path fill="#1e1e1e" d="M 1.53,-3.84 Q 1.53,-3.84 5.39,-2.09 9.25,-0.34 12.94,3.94 16.63,8.23 18.58,9.43 20.52,10.64 22.65,13.13 24.77,15.63 26.97,18.99 29.17,22.36 30.99,25.37 32.81,28.37 34.26,30.08 35.71,31.79 37.27,32.59 38.83,33.39 39.10,33.86 39.37,34.33 39.52,34.85 39.67,35.36 39.69,35.90 39.71,36.44 39.60,36.97 39.49,37.50 39.26,37.98 39.02,38.47 38.68,38.88 38.34,39.30 37.91,39.62 37.48,39.95 36.98,40.16 36.49,40.37 35.95,40.45 35.42,40.54 34.89,40.49 34.35,40.45 33.84,40.27 33.33,40.10 32.87,39.81 32.42,39.52 32.05,39.13 31.68,38.74 36.08,21.16 40.49,3.57 43.29,-5.38 46.10,-14.35 47.29,-21.01 48.47,-27.67 49.81,-34.45 51.14,-41.22 51.73,-48.69 52.31,-56.15 52.42,-56.49 52.53,-56.83 52.71,-57.13 52.89,-57.43 53.15,-57.68 53.40,-57.94 53.70,-58.12 54.01,-58.30 54.35,-58.41 54.68,-58.51 55.04,-58.53 55.39,-58.56 55.74,-58.49 56.09,-58.43 56.42,-58.28 56.74,-58.13 57.02,-57.92 57.30,-57.70 57.52,-57.42 57.74,-57.14 57.88,-56.81 58.03,-56.49 58.09,-56.14 58.15,-55.79 58.13,-55.43 58.11,-55.08 58.74,-53.14 59.37,-51.20 59.37,-50.64 59.37,-50.09 59.19,-49.57 59.01,-49.04 58.67,-48.60 58.33,-48.17 57.87,-47.86 57.41,-47.55 56.88,-47.40 56.34,-47.26 55.79,-47.29 55.24,-47.33 54.73,-47.53 54.21,-47.74 53.80,-48.10 53.38,-48.46 53.09,-48.94 52.81,-49.41 52.70,-49.96 52.58,-50.50 52.64,-51.05 52.71,-51.60 52.94,-52.10 53.18,-52.60 53.56,-53.00 53.94,-53.40 54.43,-53.65 54.92,-53.91 55.47,-54.00 56.02,-54.08 56.56,-53.99 57.11,-53.90 57.59,-53.63 58.08,-53.37 58.46,-52.97 58.84,-52.56 59.07,-52.06 59.30,-51.56 59.35,-51.01 59.41,-50.46 59.29,-49.92 59.16,-49.38 58.88,-48.90 58.59,-48.43 58.16,-48.08 57.74,-47.72 57.23,-47.52 56.71,-47.32 56.16,-47.29 55.60,-47.26 55.07,-47.42 54.54,-47.57 54.08,-47.88 53.63,-48.19 53.30,-48.64 52.96,-49.08 52.79,-49.60 52.62,-50.13 52.62,-50.13 52.62,-50.13 52.47,-53.14 52.31,-56.15 52.42,-56.49 52.53,-56.83 52.71,-57.13 52.89,-57.43 53.15,-57.68 53.40,-57.94 53.70,-58.12 54.01,-58.30 54.34,-58.41 54.68,-58.51 55.04,-58.53 55.39,-58.56 55.74,-58.49 56.09,-58.43 56.42,-58.28 56.74,-58.13 57.02,-57.92 57.30,-57.70 57.52,-57.42 57.74,-57.14 57.88,-56.81 58.03,-56.49 58.09,-56.14 58.15,-55.79 58.13,-55.44 58.11,-55.08 57.64,-47.60 57.17,-40.11 56.01,-33.37 54.85,-26.63 53.79,-19.51 52.73,-12.40 50.23,-3.39 47.73,5.61 43.28,19.50 38.83,33.39 39.10,33.86 39.37,34.33 39.52,34.85 39.67,35.36 39.69,35.90 39.71,36.44 39.60,36.97 39.49,37.50 39.26,37.98 39.03,38.47 38.68,38.88 38.34,39.30 37.91,39.62 37.48,39.95 36.98,40.16 36.49,40.36 35.95,40.45 35.42,40.54 34.89,40.49 34.35,40.45 33.84,40.27 33.33,40.10 32.87,39.81 32.42,39.52 32.05,39.13 31.68,38.75 30.43,37.84 29.19,36.94 27.64,34.65 26.10,32.35 24.48,29.54 22.86,26.73 20.58,23.62 18.30,20.51 17.10,18.60 15.89,16.68 13.62,14.73 11.34,12.77 8.71,9.62 6.08,6.47 2.27,5.15 -1.53,3.84 -1.97,3.60 -2.41,3.36 -2.77,3.02 -3.14,2.68 -3.42,2.27 -3.69,1.85 -3.86,1.38 -4.03,0.91 -4.08,0.42 -4.13,-0.07 -4.06,-0.56 -3.99,-1.06 -3.81,-1.52 -3.62,-1.98 -3.33,-2.39 -3.04,-2.79 -2.66,-3.12 -2.28,-3.44 -1.84,-3.67 -1.39,-3.89 -0.91,-4.00 -0.42,-4.11 0.07,-4.10 0.57,-4.09 1.05,-3.97 1.53,-3.84 1.53,-3.84 L 1.53,-3.84 Z"></path></g><g transform="translate(2434.952785491944 947.3461579822332) rotate(0 21.333414713541742 53.33333333333326)" stroke="none"><path fill="#1e1e1e" d="M 3.64,0 Q 3.64,0 3.50,6.13 3.36,12.26 3.29,16.40 3.22,20.54 3.18,24.61 3.15,28.68 2.45,32.31 1.76,35.95 1.49,39.40 1.23,42.85 0.99,48.14 0.75,53.43 0.71,57.24 0.67,61.05 0.56,66.50 0.45,71.94 0.58,74.96 0.72,77.99 2.78,82.54 4.85,87.09 6.57,89.81 8.30,92.54 10.33,94.07 12.36,95.60 15.63,97.20 18.89,98.80 22.49,98.89 26.09,98.98 31.13,100.13 36.17,101.28 38.71,101.60 41.25,101.91 42.26,100.92 43.26,99.93 43.97,99.71 44.67,99.48 45.41,99.50 46.15,99.51 46.84,99.76 47.54,100.00 48.12,100.46 48.69,100.92 49.10,101.54 49.50,102.15 49.69,102.87 49.87,103.58 49.82,104.32 49.76,105.06 49.48,105.74 49.19,106.42 48.71,106.97 48.22,107.52 47.58,107.89 46.94,108.26 46.22,108.41 45.49,108.55 44.76,108.46 44.03,108.37 43.37,108.04 42.70,107.72 42.18,107.21 41.65,106.69 41.32,106.03 40.98,105.37 40.88,104.64 40.77,103.91 40.90,103.19 41.03,102.46 41.39,101.82 41.75,101.17 42.29,100.67 42.84,100.17 43.51,99.88 44.19,99.58 44.92,99.51 45.66,99.45 46.38,99.62 47.09,99.79 47.72,100.18 48.34,100.57 48.81,101.14 49.28,101.71 49.54,102.41 49.80,103.10 49.83,103.83 49.85,104.57 49.64,105.28 49.43,105.98 49.01,106.59 48.58,107.19 47.99,107.63 47.39,108.06 47.39,108.06 47.39,108.06 44.20,109.20 41.02,110.34 37.87,109.93 34.73,109.52 30.02,108.96 25.30,108.40 22.55,108.07 19.80,107.74 15.72,105.69 11.64,103.64 9.61,102.36 7.57,101.08 5.06,98.57 2.54,96.05 0.78,92.87 -0.97,89.69 -3.49,83.95 -6.02,78.21 -5.86,75.06 -5.71,71.91 -5.77,66.43 -5.83,60.95 -5.75,57.11 -5.67,53.26 -5.64,47.75 -5.60,42.25 -5.21,38.33 -4.82,34.41 -3.99,31.52 -3.15,28.64 -3.18,24.59 -3.22,20.54 -3.29,16.40 -3.36,12.26 -3.50,6.13 -3.64,0 -3.59,-0.43 -3.53,-0.87 -3.38,-1.28 -3.22,-1.69 -2.97,-2.05 -2.72,-2.41 -2.39,-2.70 -2.06,-2.99 -1.68,-3.20 -1.29,-3.40 -0.86,-3.51 -0.43,-3.61 0.00,-3.61 0.43,-3.61 0.86,-3.51 1.29,-3.40 1.68,-3.20 2.06,-2.99 2.39,-2.70 2.72,-2.41 2.97,-2.05 3.22,-1.69 3.38,-1.28 3.53,-0.87 3.59,-0.43 3.64,0.00 3.64,0.00 L 3.64,0 Z"></path></g><g transform="translate(2472.2861595153813 1035.3462393624413) rotate(0 14.666646321614508 23.999989827473996)" stroke="none"><path fill="#1e1e1e" d="M 2.50,-3.75 Q 2.50,-3.75 4.79,-2.28 7.08,-0.81 11.84,0.59 16.61,2.00 19.87,3.29 23.14,4.57 25.76,4.98 28.38,5.38 31.55,6.45 34.72,7.51 36.72,7.82 38.71,8.14 39.23,8.40 39.76,8.66 40.20,9.03 40.65,9.41 40.99,9.88 41.34,10.36 41.56,10.90 41.78,11.44 41.86,12.01 41.94,12.59 41.89,13.17 41.83,13.75 41.64,14.31 41.44,14.86 41.12,15.34 40.80,15.83 40.38,16.23 39.95,16.63 39.44,16.91 38.93,17.20 38.37,17.35 37.80,17.50 37.22,17.52 36.63,17.53 36.06,17.40 35.49,17.28 37.78,17.71 40.07,18.15 35.95,21.76 31.83,25.37 26.36,29.61 20.88,33.85 17.67,35.86 14.46,37.87 11.84,40.03 9.22,42.18 3.77,44.79 -1.67,47.39 -5.42,49.17 -9.18,50.95 -9.69,51.11 -10.20,51.27 -10.74,51.26 -11.27,51.25 -11.77,51.06 -12.28,50.88 -12.70,50.55 -13.11,50.21 -13.40,49.76 -13.69,49.31 -13.83,48.80 -13.96,48.28 -13.92,47.74 -13.87,47.21 -13.66,46.72 -13.46,46.23 -13.10,45.83 -12.74,45.43 -12.28,45.16 -11.81,44.90 -11.29,44.79 -10.76,44.69 -10.23,44.76 -9.70,44.83 -9.22,45.07 -8.74,45.30 -8.36,45.68 -7.98,46.06 -7.74,46.53 -7.50,47.01 -7.43,47.54 -7.36,48.07 -7.45,48.60 -7.55,49.12 -7.81,49.59 -8.08,50.06 -8.47,50.42 -8.87,50.77 -9.36,50.99 -9.85,51.20 -10.38,51.25 -10.92,51.29 -11.44,51.17 -11.96,51.04 -12.41,50.75 -12.86,50.47 -13.20,50.05 -13.53,49.63 -13.72,49.13 -13.91,48.63 -13.92,48.10 -13.94,47.56 -13.79,47.05 -13.63,46.54 -13.32,46.10 -13.01,45.67 -12.58,45.35 -12.14,45.04 -12.14,45.04 -12.14,45.04 -8.47,43.09 -4.79,41.15 -0.19,38.72 4.41,36.28 7.41,33.80 10.41,31.32 13.21,29.63 16.00,27.93 21.05,23.47 26.11,19.01 28.72,16.56 31.33,14.11 35.02,11.13 38.71,8.14 39.23,8.40 39.76,8.66 40.20,9.03 40.65,9.41 40.99,9.88 41.34,10.36 41.56,10.90 41.78,11.44 41.86,12.01 41.94,12.59 41.89,13.17 41.83,13.75 41.64,14.30 41.44,14.86 41.12,15.34 40.80,15.83 40.38,16.23 39.95,16.63 39.44,16.91 38.93,17.19 38.37,17.35 37.80,17.50 37.22,17.52 36.64,17.53 36.06,17.40 35.49,17.28 33.58,16.76 31.66,16.24 29.23,15.33 26.80,14.42 23.46,13.80 20.11,13.17 16.57,12.04 13.03,10.91 10.72,9.93 8.42,8.96 5.27,7.95 2.11,6.94 -0.19,5.34 -2.50,3.75 -2.91,3.39 -3.32,3.04 -3.64,2.60 -3.95,2.15 -4.15,1.65 -4.36,1.14 -4.43,0.61 -4.50,0.07 -4.45,-0.46 -4.39,-1.00 -4.21,-1.51 -4.02,-2.03 -3.72,-2.48 -3.42,-2.93 -3.02,-3.30 -2.62,-3.66 -2.14,-3.92 -1.66,-4.18 -1.14,-4.32 -0.61,-4.46 -0.07,-4.47 0.47,-4.48 1.00,-4.36 1.53,-4.24 2.01,-3.99 2.50,-3.75 2.50,-3.75 L 2.50,-3.75 Z"></path></g><g transform="translate(2666.9527041117353 1246.0128449939516) rotate(0 -45.33315022786451 66.66666666666674)" stroke="none"><path fill="#1e1e1e" d="M 3.43,-0.85 Q 3.43,-0.85 4.29,2.18 5.16,5.23 5.64,8.29 6.13,11.35 6.38,14.21 6.64,17.07 6.68,20.60 6.72,24.14 6.54,28.71 6.36,33.27 4.66,42.41 2.96,51.55 0.58,57.14 -1.79,62.74 -7.43,74.24 -13.07,85.74 -18.65,93.84 -24.23,101.93 -28.17,106.90 -32.11,111.87 -35.56,114.31 -39.01,116.76 -49.78,121.54 -60.56,126.33 -66.71,128.35 -72.86,130.37 -75.03,132.01 -77.21,133.66 -80.21,134.72 -83.22,135.77 -88.10,136.66 -92.99,137.55 -93.68,137.50 -94.36,137.44 -94.99,137.17 -95.62,136.90 -96.13,136.44 -96.64,135.98 -96.97,135.38 -97.31,134.78 -97.44,134.11 -97.57,133.43 -97.47,132.75 -97.38,132.08 -97.07,131.46 -96.77,130.85 -96.28,130.36 -95.79,129.88 -95.18,129.58 -94.56,129.27 -93.88,129.18 -93.20,129.09 -92.53,129.22 -91.86,129.35 -91.26,129.69 -90.66,130.03 -90.21,130.54 -89.75,131.05 -89.48,131.68 -89.21,132.31 -89.16,133.00 -89.10,133.68 -89.27,134.35 -89.44,135.01 -89.81,135.59 -90.18,136.17 -90.71,136.59 -91.25,137.02 -91.89,137.26 -92.54,137.49 -93.22,137.51 -93.91,137.53 -94.57,137.32 -95.22,137.12 -95.78,136.72 -96.33,136.32 -96.73,135.76 -97.13,135.20 -97.33,134.55 -97.53,133.89 -97.51,133.21 -97.49,132.52 -97.25,131.88 -97.01,131.23 -96.58,130.70 -96.15,130.17 -95.57,129.80 -94.99,129.43 -94.33,129.27 -93.66,129.10 -93.66,129.10 -93.66,129.10 -89.35,128.98 -85.03,128.85 -82.79,128.53 -80.56,128.21 -77.62,126.62 -74.68,125.03 -68.80,123.03 -62.92,121.04 -52.61,116.39 -42.30,111.74 -39.42,110.01 -36.54,108.29 -32.81,103.45 -29.08,98.61 -23.83,90.84 -18.58,83.07 -13.16,71.68 -7.75,60.29 -5.77,55.31 -3.80,50.34 -2.45,41.82 -1.10,33.30 -1.33,28.79 -1.56,24.28 -1.64,20.88 -1.72,17.49 -1.74,14.87 -1.76,12.25 -1.92,9.64 -2.09,7.03 -2.76,3.94 -3.43,0.85 -3.48,0.43 -3.54,0.01 -3.49,-0.41 -3.44,-0.83 -3.29,-1.23 -3.14,-1.63 -2.90,-1.98 -2.65,-2.34 -2.34,-2.62 -2.02,-2.90 -1.64,-3.10 -1.26,-3.30 -0.85,-3.41 -0.43,-3.51 -0.01,-3.51 0.41,-3.51 0.83,-3.41 1.24,-3.31 1.62,-3.11 2.00,-2.92 2.32,-2.63 2.64,-2.35 2.88,-2.00 3.13,-1.65 3.28,-1.25 3.43,-0.85 3.43,-0.85 L 3.43,-0.85 Z"></path></g><g transform="translate(2576.2862002054853 1347.3461579822329) rotate(0 10.666605631510492 33.33333333333337)" stroke="none"><path fill="#1e1e1e" d="M 4.18,1.39 Q 4.18,1.39 2.42,5.93 0.66,10.47 -1.83,14.29 -4.33,18.11 -6.01,21.63 -7.69,25.14 -9.13,28.34 -10.58,31.54 -11.90,34.47 -13.23,37.40 -14.52,40.20 -15.80,43.00 -17.15,45.22 -18.50,47.44 -18.77,50.55 -19.03,53.65 -16.91,54.29 -14.79,54.93 -11.71,56.31 -8.62,57.69 -5.07,59.17 -1.52,60.66 7.78,60.56 17.10,60.46 23.35,59.84 29.60,59.22 33.26,56.20 36.91,53.17 40.13,50.67 43.35,48.17 43.80,47.92 44.25,47.67 44.76,47.58 45.26,47.49 45.77,47.56 46.28,47.63 46.74,47.86 47.20,48.09 47.56,48.46 47.92,48.83 48.15,49.29 48.37,49.75 48.44,50.26 48.50,50.77 48.40,51.27 48.30,51.78 48.05,52.22 47.79,52.67 47.41,53.01 47.02,53.35 46.55,53.55 46.07,53.75 45.56,53.79 45.05,53.83 44.55,53.70 44.05,53.57 43.62,53.29 43.19,53.01 42.87,52.61 42.55,52.21 42.38,51.72 42.20,51.24 42.19,50.73 42.18,50.21 42.34,49.72 42.49,49.23 42.79,48.82 43.10,48.40 43.52,48.10 43.94,47.81 44.43,47.66 44.92,47.51 45.43,47.53 45.95,47.55 46.43,47.73 46.91,47.91 47.31,48.23 47.71,48.56 47.98,48.99 48.25,49.43 48.38,49.93 48.50,50.43 48.45,50.94 48.41,51.45 48.20,51.92 47.99,52.39 47.65,52.77 47.30,53.15 47.30,53.15 47.30,53.15 44.13,55.72 40.97,58.28 35.98,62.12 30.99,65.95 24.12,67.02 17.25,68.10 6.52,68.39 -4.20,68.68 -8.14,67.47 -12.08,66.26 -15.79,64.91 -19.50,63.55 -22.94,61.22 -26.38,58.88 -27.31,56.00 -28.24,53.11 -27.85,50.96 -27.47,48.80 -26.49,45.81 -25.51,42.82 -24.17,41.17 -22.83,39.51 -21.40,36.81 -19.96,34.11 -18.49,31.30 -17.01,28.50 -15.49,25.41 -13.96,22.33 -12.25,18.28 -10.54,14.23 -8.66,11.08 -6.79,7.93 -5.48,3.26 -4.18,-1.39 -3.95,-1.87 -3.73,-2.35 -3.39,-2.76 -3.05,-3.18 -2.63,-3.50 -2.20,-3.82 -1.71,-4.02 -1.22,-4.23 -0.70,-4.32 -0.17,-4.40 0.35,-4.36 0.88,-4.32 1.38,-4.15 1.88,-3.98 2.33,-3.70 2.78,-3.41 3.15,-3.03 3.52,-2.65 3.79,-2.19 4.05,-1.73 4.20,-1.22 4.35,-0.70 4.37,-0.17 4.39,0.35 4.29,0.87 4.18,1.39 4.18,1.39 L 4.18,1.39 Z"></path></g><g transform="translate(1482.9528668721523 1566.0128449939516) rotate(0 -104.00004069010413 -51.999969482421875)" stroke="none"><path fill="#1e1e1e" d="M -1.55,4.65 Q -1.55,4.65 -3.86,3.94 -6.18,3.22 -10.37,2.06 -14.57,0.89 -17.80,0.62 -21.03,0.36 -25.76,-0.58 -30.49,-1.54 -33.68,-2.79 -36.86,-4.04 -39.93,-5.42 -43.00,-6.80 -54.03,-11.42 -65.05,-16.05 -75.24,-21.26 -85.43,-26.47 -107.23,-36.37 -129.04,-46.26 -139.21,-52.14 -149.39,-58.01 -154.30,-60.46 -159.22,-62.91 -167.49,-67.08 -175.76,-71.25 -179.45,-73.92 -183.14,-76.59 -185.28,-77.32 -187.42,-78.05 -189.51,-79.25 -191.61,-80.45 -194.62,-82.50 -197.62,-84.55 -200.67,-88.12 -203.73,-91.69 -205.88,-94.71 -208.02,-97.73 -209.61,-99.77 -211.20,-101.81 -211.46,-102.38 -211.73,-102.95 -211.80,-103.57 -211.87,-104.19 -211.74,-104.81 -211.60,-105.42 -211.28,-105.96 -210.96,-106.50 -210.48,-106.90 -210.00,-107.31 -209.42,-107.55 -208.84,-107.78 -208.21,-107.82 -207.59,-107.85 -206.98,-107.69 -206.38,-107.52 -205.86,-107.17 -205.34,-106.82 -204.96,-106.32 -204.57,-105.82 -204.37,-105.23 -204.17,-104.63 -204.17,-104.01 -204.17,-103.38 -204.36,-102.78 -204.56,-102.19 -204.94,-101.69 -205.32,-101.19 -205.84,-100.83 -206.36,-100.48 -206.96,-100.31 -207.56,-100.14 -208.19,-100.17 -208.82,-100.20 -209.40,-100.44 -209.99,-100.67 -210.46,-101.07 -210.94,-101.48 -211.27,-102.01 -211.59,-102.55 -211.73,-103.16 -211.87,-103.77 -211.80,-104.40 -211.73,-105.02 -211.47,-105.59 -211.21,-106.16 -210.78,-106.62 -210.35,-107.08 -209.80,-107.37 -209.24,-107.67 -208.62,-107.77 -208.01,-107.87 -207.39,-107.77 -206.77,-107.67 -206.21,-107.38 -205.66,-107.09 -205.22,-106.63 -204.79,-106.18 -204.79,-106.18 -204.79,-106.18 -203.47,-103.96 -202.15,-101.74 -200.37,-99.00 -198.58,-96.26 -195.99,-93.48 -193.40,-90.70 -188.97,-87.41 -184.55,-84.12 -182.16,-82.72 -179.78,-81.33 -176.43,-78.99 -173.08,-76.64 -164.79,-72.62 -156.50,-68.61 -151.30,-66.23 -146.10,-63.85 -136.10,-58.37 -126.09,-52.88 -104.02,-43.26 -81.95,-33.64 -71.88,-29.01 -61.81,-24.38 -50.41,-20.29 -39.02,-16.21 -36.25,-15.11 -33.48,-14.02 -30.13,-13.06 -26.79,-12.10 -23.52,-11.32 -20.25,-10.54 -17.59,-10.29 -14.94,-10.04 -12.82,-9.46 -10.70,-8.88 -6.86,-7.58 -3.01,-6.29 -0.73,-5.47 1.55,-4.65 2.08,-4.40 2.62,-4.14 3.07,-3.77 3.53,-3.40 3.89,-2.92 4.24,-2.45 4.47,-1.91 4.71,-1.36 4.80,-0.78 4.90,-0.19 4.85,0.38 4.80,0.97 4.62,1.54 4.43,2.10 4.11,2.60 3.80,3.10 3.37,3.51 2.94,3.92 2.43,4.21 1.92,4.51 1.35,4.67 0.78,4.84 0.19,4.86 -0.39,4.89 -0.97,4.77 -1.55,4.65 -1.55,4.65 L -1.55,4.65 Z"></path></g><g transform="translate(1256.2862002054856 1491.3464021228579) rotate(0 29.333292643229242 -17.33352661132801)" stroke="none"><path fill="#1e1e1e" d="M 3.46,2.31 Q 3.46,2.31 2.01,4.64 0.55,6.98 -0.96,10.42 -2.48,13.86 -4.68,16.30 -6.88,18.75 -8.88,20.09 -10.87,21.43 -11.62,22.79 -12.38,24.15 -12.96,24.39 -13.54,24.64 -14.16,24.74 -14.78,24.84 -15.41,24.79 -16.04,24.74 -16.64,24.54 -17.24,24.33 -17.77,24.00 -18.30,23.66 -18.74,23.20 -19.17,22.75 -19.49,22.20 -19.80,21.66 -19.97,21.05 -20.15,20.44 -20.17,19.81 -20.20,19.18 -20.07,18.57 -19.94,17.95 -19.67,17.38 -19.40,16.81 -19.00,16.32 -18.60,15.84 -18.10,15.46 -17.59,15.08 -16.39,10.28 -15.18,5.48 -14.15,1.50 -13.12,-2.48 -11.79,-6.68 -10.46,-10.89 -8.21,-15.19 -5.95,-19.50 -4.30,-23.36 -2.64,-27.23 0.42,-34.30 3.48,-41.37 4.70,-45.05 5.92,-48.72 7.47,-51.68 9.02,-54.64 13.37,-56.23 17.72,-57.82 21.83,-58.29 25.94,-58.75 31.01,-58.76 36.08,-58.76 42.66,-53.92 49.25,-49.08 53.38,-44.67 57.52,-40.25 62.16,-36.23 66.79,-32.21 69.67,-29.74 72.54,-27.27 74.74,-25.57 76.93,-23.86 77.28,-23.43 77.62,-23.00 77.81,-22.49 78.00,-21.97 78.02,-21.42 78.03,-20.87 77.87,-20.34 77.71,-19.82 77.39,-19.37 77.07,-18.92 76.62,-18.60 76.17,-18.28 75.65,-18.12 75.12,-17.96 74.57,-17.97 74.02,-17.99 73.50,-18.18 72.99,-18.37 72.56,-18.71 72.13,-19.06 71.83,-19.52 71.54,-19.98 71.40,-20.52 71.27,-21.05 71.32,-21.60 71.36,-22.15 71.58,-22.66 71.80,-23.16 72.16,-23.57 72.53,-23.98 73.01,-24.25 73.49,-24.52 74.03,-24.63 74.57,-24.73 75.12,-24.65 75.66,-24.58 76.15,-24.34 76.65,-24.09 77.04,-23.70 77.42,-23.31 77.67,-22.82 77.91,-22.33 77.99,-21.78 78.06,-21.24 77.96,-20.70 77.85,-20.15 77.58,-19.68 77.31,-19.20 76.90,-18.83 76.49,-18.46 75.99,-18.24 75.48,-18.03 74.93,-17.98 74.38,-17.94 73.85,-18.07 73.32,-18.20 72.85,-18.50 72.39,-18.80 72.39,-18.80 72.39,-18.80 70.46,-20.80 68.52,-22.80 65.81,-25.34 63.09,-27.89 58.18,-32.05 53.28,-36.22 49.39,-40.25 45.51,-44.28 40.43,-48.48 35.35,-52.69 31.02,-52.33 26.70,-51.97 23.13,-51.58 19.56,-51.19 15.60,-48.98 11.65,-46.78 10.33,-42.91 9.01,-39.04 6.09,-31.96 3.17,-24.88 1.59,-20.70 0.00,-16.53 -1.76,-12.74 -3.54,-8.96 -4.47,-4.94 -5.39,-0.93 -6.07,3.59 -6.75,8.12 -9.56,16.13 -12.38,24.15 -12.96,24.39 -13.54,24.64 -14.16,24.74 -14.78,24.84 -15.41,24.79 -16.04,24.74 -16.64,24.54 -17.24,24.34 -17.77,24.00 -18.30,23.66 -18.74,23.20 -19.17,22.75 -19.49,22.20 -19.80,21.66 -19.97,21.05 -20.15,20.44 -20.17,19.81 -20.20,19.18 -20.07,18.57 -19.94,17.95 -19.67,17.38 -19.40,16.81 -19.00,16.32 -18.60,15.84 -18.10,15.46 -17.59,15.08 -15.76,13.61 -13.93,12.15 -11.30,9.29 -8.67,6.44 -7.68,4.32 -6.69,2.21 -5.07,-0.04 -3.46,-2.31 -3.14,-2.69 -2.81,-3.07 -2.40,-3.36 -1.99,-3.65 -1.52,-3.84 -1.06,-4.03 -0.56,-4.09 -0.06,-4.16 0.43,-4.11 0.93,-4.06 1.40,-3.89 1.87,-3.72 2.29,-3.44 2.71,-3.16 3.05,-2.79 3.39,-2.42 3.63,-1.98 3.87,-1.54 4.00,-1.05 4.12,-0.56 4.13,-0.06 4.14,0.43 4.03,0.92 3.92,1.41 3.69,1.86 3.46,2.31 3.46,2.31 L 3.46,2.31 Z"></path></g><g transform="translate(1104.286078135173 1232.6795116606186) rotate(0 -69.33329264322913 -67.99997965494788)" stroke="none"><path fill="#1e1e1e" d="M 0,4.37 Q 0,4.37 -2.29,4.48 -4.59,4.59 -7.11,4.67 -9.62,4.74 -12.22,4.79 -14.82,4.84 -18.25,5.04 -21.69,5.23 -27.56,4.96 -33.43,4.69 -36.96,4.60 -40.50,4.50 -45.83,1.75 -51.17,-0.99 -56.39,-5.42 -61.61,-9.84 -73.82,-24.14 -86.03,-38.44 -94.93,-49.06 -103.83,-59.68 -110.71,-68.88 -117.59,-78.09 -122.16,-88.39 -126.74,-98.70 -129.36,-104.48 -131.97,-110.26 -133.88,-113.32 -135.78,-116.37 -137.51,-119.27 -139.23,-122.17 -140.21,-125.28 -141.18,-128.39 -141.88,-131.91 -142.58,-135.42 -142.57,-136.06 -142.56,-136.70 -142.35,-137.31 -142.13,-137.91 -141.73,-138.42 -141.34,-138.92 -140.80,-139.27 -140.26,-139.62 -139.64,-139.78 -139.02,-139.94 -138.38,-139.90 -137.74,-139.85 -137.15,-139.60 -136.56,-139.36 -136.08,-138.93 -135.60,-138.51 -135.28,-137.95 -134.95,-137.40 -134.83,-136.77 -134.70,-136.14 -134.78,-135.50 -134.86,-134.87 -135.14,-134.29 -135.42,-133.71 -135.87,-133.26 -136.32,-132.80 -136.89,-132.51 -137.46,-132.22 -138.10,-132.12 -138.73,-132.03 -139.36,-132.15 -139.99,-132.26 -140.55,-132.57 -141.12,-132.88 -141.55,-133.35 -141.98,-133.83 -142.24,-134.41 -142.50,-135.00 -142.56,-135.64 -142.62,-136.28 -142.47,-136.90 -142.32,-137.53 -141.98,-138.07 -141.64,-138.61 -141.14,-139.02 -140.65,-139.43 -140.05,-139.65 -139.45,-139.88 -138.80,-139.90 -138.16,-139.93 -137.55,-139.75 -136.93,-139.56 -136.41,-139.19 -135.89,-138.82 -135.51,-138.31 -135.13,-137.79 -134.93,-137.18 -134.74,-136.57 -134.74,-136.57 -134.74,-136.57 -134.45,-133.33 -134.16,-130.08 -133.80,-127.66 -133.44,-125.24 -132.02,-122.33 -130.60,-119.42 -128.71,-116.03 -126.82,-112.64 -124.11,-106.86 -121.41,-101.08 -117.07,-91.40 -112.73,-81.72 -105.86,-72.76 -98.98,-63.80 -89.94,-53.34 -80.90,-42.87 -68.93,-29.20 -56.97,-15.53 -52.21,-11.86 -47.46,-8.20 -43.75,-6.35 -40.05,-4.50 -36.74,-4.60 -33.43,-4.69 -27.56,-4.96 -21.69,-5.23 -18.25,-5.04 -14.82,-4.84 -12.22,-4.79 -9.62,-4.74 -7.11,-4.67 -4.59,-4.59 -2.29,-4.48 0,-4.37 0.52,-4.31 1.04,-4.25 1.54,-4.06 2.03,-3.87 2.46,-3.57 2.90,-3.27 3.25,-2.88 3.60,-2.48 3.84,-2.01 4.09,-1.55 4.21,-1.03 4.34,-0.52 4.34,0.00 4.34,0.52 4.21,1.04 4.09,1.55 3.84,2.01 3.60,2.48 3.25,2.88 2.90,3.27 2.46,3.57 2.03,3.87 1.54,4.06 1.04,4.25 0.52,4.31 -0.00,4.37 -0.00,4.37 L 0,4.37 Z"></path></g><g transform="translate(965.6194928487148 1096.6795523507226) rotate(0 18.666636149088617 -5.333353678385379)" stroke="none"><path fill="#1e1e1e" d="M 1.63,4.90 Q 1.63,4.90 -0.65,5.70 -2.95,6.50 -5.60,7.61 -8.25,8.72 -10.51,10.87 -12.77,13.02 -15.96,15.23 -19.15,17.43 -21.97,20.20 -24.79,22.97 -30.17,23.30 -35.56,23.63 -37.03,20.55 -38.49,17.47 -37.27,14.04 -36.05,10.60 -24.70,1.65 -13.34,-7.30 -7.07,-11.52 -0.79,-15.74 5.09,-19.04 10.99,-22.35 16.44,-25.89 21.90,-29.43 26.86,-30.84 31.83,-32.26 34.50,-29.81 37.18,-27.36 38.48,-25.26 39.77,-23.15 41.49,-19.24 43.21,-15.33 44.80,-12.18 46.39,-9.03 47.81,-7.22 49.23,-5.42 54.10,-0.04 58.97,5.33 61.83,8.52 64.69,11.70 69.01,13.25 73.33,14.79 73.91,15.10 74.49,15.42 74.94,15.90 75.40,16.38 75.67,16.99 75.95,17.59 76.01,18.25 76.08,18.91 75.94,19.55 75.79,20.20 75.44,20.77 75.10,21.33 74.59,21.76 74.08,22.18 73.47,22.42 72.85,22.67 72.19,22.70 71.53,22.73 70.89,22.55 70.25,22.37 69.71,21.99 69.16,21.62 68.76,21.09 68.37,20.56 68.16,19.93 67.95,19.30 67.95,18.64 67.96,17.97 68.17,17.35 68.39,16.72 68.79,16.20 69.20,15.67 69.75,15.30 70.30,14.94 70.94,14.76 71.58,14.59 72.24,14.63 72.90,14.67 73.51,14.92 74.13,15.17 74.63,15.60 75.13,16.03 75.47,16.60 75.81,17.17 75.95,17.82 76.08,18.47 76.01,19.12 75.93,19.78 75.65,20.38 75.37,20.98 74.91,21.46 74.45,21.94 73.87,22.24 73.28,22.55 72.62,22.65 71.97,22.76 71.32,22.64 70.66,22.53 70.66,22.53 70.66,22.53 67.48,21.21 64.29,19.89 62.05,18.17 59.82,16.45 56.72,13.43 53.61,10.41 48.06,4.79 42.51,-0.81 41.06,-3.22 39.60,-5.63 38.04,-8.80 36.47,-11.97 33.90,-17.16 31.33,-22.36 29.86,-24.69 28.38,-27.02 27.18,-25.26 25.97,-23.49 20.53,-19.54 15.08,-15.59 9.76,-12.09 4.43,-8.60 -1.26,-4.03 -6.96,0.52 -17.63,8.55 -28.30,16.57 -28.28,13.99 -28.26,11.40 -25.75,9.28 -23.24,7.15 -20.36,4.54 -17.48,1.93 -15.71,0.60 -13.95,-0.73 -10.10,-2.08 -6.24,-3.43 -3.94,-4.16 -1.63,-4.90 -1.02,-5.02 -0.41,-5.14 0.20,-5.12 0.83,-5.09 1.42,-4.92 2.02,-4.75 2.56,-4.43 3.10,-4.12 3.55,-3.69 4.00,-3.26 4.33,-2.73 4.66,-2.21 4.86,-1.62 5.06,-1.03 5.11,-0.40 5.16,0.21 5.06,0.82 4.96,1.43 4.71,2.01 4.47,2.58 4.09,3.08 3.72,3.58 3.24,3.97 2.75,4.36 2.19,4.63 1.63,4.90 1.63,4.90 L 1.63,4.90 Z"></path></g><g transform="translate(677.619513193767 630.0128348214257) rotate(0 27.99997965494788 -146.6666412353515)" stroke="none"><path fill="#1e1e1e" d="M -3.16,0 Q -3.16,0 -3.18,-3.87 -3.19,-7.74 -1.49,-12.19 0.20,-16.64 1.64,-21.24 3.07,-25.84 4.45,-32.32 5.84,-38.80 7.21,-45.43 8.59,-52.06 10.71,-67.07 12.82,-82.07 14.51,-91.59 16.20,-101.12 17.68,-109.74 19.16,-118.36 19.79,-124.24 20.41,-130.12 20.68,-135.65 20.95,-141.19 21.70,-144.67 22.45,-148.15 23.60,-156.93 24.75,-165.72 26.06,-171.94 27.37,-178.17 27.89,-182.20 28.41,-186.24 28.47,-189.46 28.53,-192.68 28.41,-194.81 28.29,-196.95 29.88,-210.25 31.48,-223.55 32.26,-229.14 33.05,-234.73 35.01,-241.20 36.97,-247.67 38.55,-254.05 40.14,-260.44 41.64,-264.84 43.15,-269.24 44.46,-272.72 45.77,-276.20 47.10,-279.88 48.42,-283.55 49.70,-286.23 50.97,-288.90 51.65,-291.71 52.33,-294.51 52.61,-295.07 52.90,-295.62 53.35,-296.05 53.79,-296.49 54.35,-296.76 54.92,-297.03 55.54,-297.10 56.15,-297.18 56.76,-297.05 57.37,-296.92 57.91,-296.61 58.45,-296.30 58.86,-295.83 59.27,-295.36 59.51,-294.78 59.75,-294.20 59.79,-293.58 59.83,-292.96 59.67,-292.36 59.51,-291.76 59.17,-291.24 58.83,-290.72 58.33,-290.33 57.84,-289.95 57.25,-289.74 56.67,-289.54 56.04,-289.53 55.42,-289.52 54.83,-289.71 54.23,-289.90 53.73,-290.27 53.23,-290.64 52.88,-291.15 52.52,-291.67 52.35,-292.26 52.17,-292.86 52.20,-293.49 52.22,-294.11 52.45,-294.69 52.67,-295.27 53.07,-295.75 53.46,-296.23 53.99,-296.56 54.52,-296.89 55.13,-297.03 55.74,-297.17 56.36,-297.11 56.98,-297.05 57.55,-296.80 58.12,-296.54 58.57,-296.12 59.03,-295.70 59.33,-295.15 59.63,-294.60 59.74,-293.99 59.85,-293.38 59.75,-292.76 59.66,-292.14 59.66,-292.15 59.66,-292.15 58.36,-288.81 57.05,-285.47 55.65,-283.45 54.25,-281.42 52.88,-277.64 51.50,-273.87 50.07,-270.64 48.65,-267.41 47.31,-263.23 45.97,-259.06 44.48,-252.48 43.00,-245.91 41.33,-239.93 39.66,-233.94 39.13,-228.26 38.60,-222.59 37.01,-209.61 35.42,-196.64 35.10,-194.44 34.79,-192.25 34.40,-188.88 34.00,-185.52 33.46,-181.28 32.92,-177.04 31.73,-171.01 30.53,-164.98 29.40,-155.76 28.27,-146.53 27.26,-143.72 26.26,-140.90 25.99,-135.23 25.73,-129.56 25.10,-123.51 24.47,-117.45 23.01,-108.82 21.55,-100.18 19.91,-90.74 18.27,-81.31 16.17,-66.13 14.08,-50.95 12.76,-44.29 11.44,-37.64 10.08,-30.89 8.72,-24.15 7.32,-19.28 5.92,-14.40 4.56,-10.99 3.19,-7.58 3.18,-3.79 3.16,0 3.11,0.37 3.07,0.75 2.93,1.11 2.80,1.47 2.58,1.78 2.36,2.09 2.08,2.35 1.79,2.60 1.45,2.78 1.12,2.95 0.75,3.04 0.38,3.14 -0.00,3.14 -0.38,3.14 -0.75,3.04 -1.12,2.95 -1.45,2.78 -1.79,2.60 -2.08,2.35 -2.36,2.09 -2.58,1.78 -2.80,1.46 -2.93,1.11 -3.07,0.75 -3.11,0.37 -3.16,-0.00 -3.16,-0.00 L -3.16,0 Z"></path></g><g transform="translate(733.6194725036628 336.6795523507227) rotate(0 -7.999979654947879 15.999959309895871)" stroke="none"><path fill="#1e1e1e" d="M 2.98,2.98 Q 2.98,2.98 0.58,5.35 -1.81,7.73 -5.85,9.14 -9.90,10.56 -12.25,12.17 -14.61,13.79 -16.22,16.41 -17.83,19.02 -20.76,21.02 -23.70,23.01 -28.99,28.42 -34.28,33.84 -37.69,36.45 -41.09,39.07 -43.07,40.98 -45.04,42.88 -46.57,43.78 -48.11,44.67 -48.53,44.96 -48.95,45.24 -49.42,45.42 -49.90,45.59 -50.40,45.65 -50.90,45.71 -51.41,45.64 -51.91,45.58 -52.38,45.40 -52.85,45.21 -53.27,44.92 -53.68,44.63 -54.01,44.25 -54.35,43.87 -54.58,43.42 -54.81,42.97 -54.93,42.47 -55.05,41.98 -55.04,41.47 -55.04,40.97 -54.91,40.48 -54.79,39.99 -54.55,39.54 -54.31,39.09 -53.97,38.72 -53.63,38.34 -53.40,35.34 -53.16,32.34 -49.24,28.26 -45.31,24.18 -42.06,21.66 -38.81,19.14 -37.12,16.87 -35.42,14.60 -29.07,6.75 -22.71,-1.09 -19.05,-4.56 -15.38,-8.03 -12.97,-9.84 -10.56,-11.65 -7.03,-12.54 -3.50,-13.43 -0.53,-12.07 2.43,-10.72 8.58,-5.30 14.72,0.11 18.02,3.21 21.32,6.32 23.64,8.27 25.96,10.23 27.76,11.75 29.57,13.26 33.30,15.56 37.03,17.85 38.70,19.12 40.38,20.38 40.87,20.96 41.37,21.54 41.66,22.25 41.94,22.96 41.99,23.73 42.03,24.49 41.83,25.23 41.63,25.97 41.20,26.60 40.77,27.24 40.17,27.70 39.56,28.17 38.83,28.41 38.11,28.66 37.34,28.66 36.58,28.67 35.85,28.42 35.13,28.18 34.52,27.72 33.91,27.26 33.47,26.63 33.04,26.00 32.84,25.26 32.63,24.52 32.67,23.76 32.71,22.99 32.99,22.28 33.27,21.57 33.76,20.99 34.25,20.40 34.91,20.00 35.56,19.61 36.31,19.44 37.06,19.27 37.82,19.35 38.58,19.43 39.27,19.75 39.97,20.07 40.53,20.60 41.08,21.12 41.44,21.79 41.81,22.47 41.93,23.22 42.06,23.98 41.94,24.73 41.82,25.49 41.46,26.17 41.10,26.84 40.55,27.37 40.00,27.90 39.30,28.22 38.61,28.55 37.85,28.63 37.09,28.72 36.34,28.56 35.59,28.39 34.94,28.00 34.28,27.61 34.28,27.61 34.28,27.61 32.75,26.17 31.22,24.74 29.57,23.17 27.91,21.60 25.98,20.43 24.05,19.25 22.45,17.52 20.86,15.78 18.77,13.70 16.69,11.61 13.23,8.81 9.78,6.01 3.65,1.15 -2.48,-3.70 -4.57,-4.55 -6.66,-5.41 -8.68,-4.34 -10.70,-3.27 -13.87,0.03 -17.03,3.34 -23.14,11.45 -29.24,19.55 -31.62,22.36 -33.99,25.16 -36.70,27.36 -39.41,29.56 -43.00,33.71 -46.59,37.86 -47.35,41.26 -48.11,44.67 -48.53,44.96 -48.95,45.24 -49.42,45.42 -49.90,45.59 -50.40,45.65 -50.90,45.71 -51.41,45.64 -51.91,45.58 -52.38,45.40 -52.85,45.21 -53.27,44.92 -53.68,44.63 -54.01,44.25 -54.35,43.87 -54.58,43.42 -54.81,42.97 -54.93,42.47 -55.05,41.98 -55.04,41.48 -55.04,40.97 -54.91,40.48 -54.79,39.99 -54.55,39.54 -54.31,39.09 -53.97,38.72 -53.63,38.34 -51.84,37.67 -50.05,37.01 -47.82,35.24 -45.58,33.47 -42.68,31.04 -39.78,28.62 -32.00,21.50 -24.22,14.38 -21.81,10.74 -19.40,7.11 -15.90,4.82 -12.40,2.54 -9.89,2.00 -7.38,1.46 -5.18,-0.75 -2.98,-2.98 -2.58,-3.29 -2.18,-3.61 -1.72,-3.82 -1.25,-4.03 -0.75,-4.12 -0.25,-4.21 0.25,-4.18 0.76,-4.15 1.24,-4.00 1.73,-3.84 2.16,-3.58 2.60,-3.32 2.96,-2.96 3.32,-2.60 3.58,-2.16 3.85,-1.73 4.00,-1.24 4.15,-0.76 4.18,-0.25 4.21,0.25 4.12,0.75 4.03,1.25 3.82,1.72 3.61,2.18 3.29,2.58 2.98,2.98 2.98,2.98 L 2.98,2.98 Z"></path></g><g transform="translate(840.2861391703295 1934.01292637416) rotate(0 -38.66668701171875 30.666707356770644)" stroke="none"><path fill="#1e1e1e" d="M -0.17,3.36 Q -0.17,3.36 -14.73,2.49 -29.29,1.62 -36.24,1.22 -43.18,0.83 -46.75,0.71 -50.32,0.60 -55.76,4.08 -61.20,7.57 -65.03,12.16 -68.86,16.75 -58.41,29.62 -47.96,42.48 -40.22,52.38 -32.48,62.28 -32.27,62.68 -32.05,63.07 -31.97,63.51 -31.89,63.95 -31.96,64.40 -32.02,64.84 -32.23,65.24 -32.43,65.64 -32.75,65.95 -33.07,66.26 -33.47,66.46 -33.88,66.65 -34.32,66.71 -34.77,66.76 -35.21,66.68 -35.65,66.59 -36.04,66.36 -36.42,66.14 -36.72,65.80 -37.01,65.46 -37.19,65.05 -37.36,64.63 -37.39,64.19 -37.42,63.74 -37.31,63.30 -37.19,62.87 -36.95,62.50 -36.70,62.12 -36.35,61.84 -36.00,61.57 -35.58,61.42 -35.15,61.27 -34.70,61.26 -34.26,61.25 -33.83,61.39 -33.40,61.53 -33.04,61.79 -32.68,62.06 -32.42,62.43 -32.16,62.79 -32.04,63.22 -31.91,63.65 -31.93,64.10 -31.95,64.55 -32.11,64.97 -32.26,65.39 -32.55,65.73 -32.83,66.08 -33.22,66.32 -33.60,66.55 -34.03,66.66 -34.47,66.76 -34.92,66.72 -35.36,66.68 -35.77,66.49 -36.18,66.31 -36.51,66.01 -36.84,65.71 -36.84,65.71 -36.84,65.71 -44.62,55.84 -52.40,45.98 -62.95,32.10 -73.50,18.23 -69.00,10.41 -64.51,2.60 -57.59,-1.46 -50.67,-5.53 -46.78,-5.36 -42.90,-5.20 -35.93,-4.94 -28.96,-4.69 -14.39,-4.02 0.17,-3.36 0.57,-3.29 0.97,-3.22 1.34,-3.05 1.71,-2.89 2.04,-2.64 2.36,-2.39 2.61,-2.08 2.86,-1.76 3.03,-1.39 3.20,-1.02 3.28,-0.62 3.35,-0.22 3.33,0.17 3.31,0.58 3.19,0.96 3.08,1.35 2.87,1.70 2.66,2.05 2.38,2.34 2.09,2.63 1.75,2.84 1.40,3.05 1.01,3.18 0.63,3.30 0.22,3.33 -0.17,3.36 -0.17,3.36 L -0.17,3.36 Z"></path></g></svg>