<svg version="1.1" xmlns="http://www.w3.org/2000/svg" viewBox="0 0 1821.5999450683594 710.1999053955078" width="1821.5999450683594" height="710.1999053955078" filter="invert(93%) hue-rotate(180deg)">
  <!-- svg-source:excalidraw -->
  
  <defs>
    <style class="style-fonts">
      @font-face {
        font-family: "Virgil";
        src: url("https://excalidraw.com/Virgil.woff2");
      }
      @font-face {
        font-family: "Cascadia";
        src: url("https://excalidraw.com/Cascadia.woff2");
      }
      @font-face {
        font-family: "Assistant";
        src: url("https://excalidraw.com/Assistant-Regular.woff2");
      }
    </style>
    
  </defs>
  <rect x="0" y="0" width="1821.5999450683594" height="710.1999053955078" fill="#ffffff"></rect><g transform="translate(10 133.59988403320312) rotate(0 217.8359375 45)"><text x="0" y="31.536" font-family="Virgil, Segoe UI Emoji" font-size="36px" fill="#1e1e1e" text-anchor="start" style="white-space: pre;" direction="ltr" dominant-baseline="alphabetic">let letters = ["a","b","c"]</text><text x="0" y="76.536" font-family="Virgil, Segoe UI Emoji" font-size="36px" fill="#1e1e1e" text-anchor="start" style="white-space: pre;" direction="ltr" dominant-baseline="alphabetic">let emptyArray = []</text></g><g transform="translate(96.4000244140625 309.9998779296875) rotate(0 238.48190307617188 22.5)"><text x="0" y="31.536" font-family="Virgil, Segoe UI Emoji" font-size="36px" fill="#1e1e1e" text-anchor="start" style="white-space: pre;" direction="ltr" dominant-baseline="alphabetic">emptyArray = [ ...letters ]</text></g><g transform="translate(394.79998779296875 353.99993896484375) rotate(0 14.800018310546875 51.99998474121094)" stroke="none"><path fill="#1e1e1e" d="M 2.55,-0.85 Q 2.55,-0.85 5.01,1.39 7.48,3.63 8.80,6.91 10.12,10.19 11.16,12.51 12.20,14.84 13.28,18.19 14.35,21.55 15.51,25.37 16.66,29.19 19.80,38.96 22.94,48.73 24.47,54.17 26.00,59.60 26.91,63.40 27.82,67.21 30.41,76.17 32.99,85.13 34.08,89.89 35.16,94.64 35.55,96.83 35.94,99.03 36.05,99.90 36.15,100.77 36.05,101.64 35.95,102.51 35.64,103.33 35.33,104.15 34.83,104.87 34.33,105.60 33.68,106.18 33.02,106.76 32.24,107.17 31.47,107.58 30.62,107.79 29.77,108.00 28.89,108.00 28.01,108.00 27.16,107.79 26.31,107.58 25.53,107.18 24.76,106.77 24.10,106.19 23.44,105.61 22.95,104.89 22.45,104.17 22.14,103.35 21.82,102.53 24.01,103.17 26.19,103.81 24.14,101.61 22.09,99.41 21.85,99.06 21.62,98.71 21.50,98.30 21.38,97.89 21.41,97.46 21.43,97.04 21.58,96.64 21.74,96.25 22.01,95.92 22.29,95.60 22.65,95.38 23.01,95.16 23.43,95.07 23.84,94.97 24.27,95.02 24.69,95.06 25.08,95.24 25.46,95.42 25.77,95.71 26.08,96.00 26.28,96.37 26.48,96.75 26.55,97.17 26.62,97.59 26.55,98.01 26.49,98.42 26.29,98.80 26.09,99.18 25.78,99.47 25.48,99.76 25.09,99.94 24.71,100.12 24.28,100.17 23.86,100.22 23.45,100.13 23.03,100.04 22.67,99.82 22.30,99.60 22.03,99.28 21.75,98.96 21.59,98.56 21.43,98.17 21.41,97.74 21.38,97.32 21.50,96.91 21.61,96.50 21.84,96.15 22.08,95.80 22.42,95.54 22.76,95.28 23.16,95.14 23.56,95.00 23.99,95.00 24.41,95.00 24.81,95.14 25.22,95.27 25.56,95.53 25.90,95.78 25.90,95.78 25.90,95.78 26.85,96.77 27.80,97.77 31.87,98.40 35.94,99.03 36.05,99.90 36.15,100.77 36.05,101.64 35.95,102.51 35.64,103.33 35.33,104.15 34.83,104.87 34.33,105.59 33.68,106.18 33.02,106.76 32.25,107.17 31.47,107.58 30.62,107.79 29.77,108.00 28.89,108.00 28.01,108.00 27.16,107.79 26.31,107.58 25.54,107.18 24.76,106.77 24.10,106.19 23.45,105.61 22.95,104.89 22.45,104.17 22.14,103.35 21.82,102.53 21.25,100.37 20.68,98.22 19.50,93.82 18.31,89.42 15.56,80.09 12.81,70.76 11.99,67.24 11.17,63.73 9.72,58.43 8.26,53.13 5.44,43.07 2.63,33.00 1.69,29.11 0.75,25.22 0.14,22.34 -0.46,19.45 -1.22,16.84 -1.98,14.22 -2.89,10.81 -3.80,7.40 -3.17,4.12 -2.55,0.85 -2.62,0.53 -2.68,0.21 -2.67,-0.10 -2.65,-0.43 -2.56,-0.74 -2.47,-1.05 -2.31,-1.33 -2.15,-1.61 -1.92,-1.85 -1.70,-2.08 -1.42,-2.26 -1.15,-2.43 -0.84,-2.53 -0.53,-2.63 -0.21,-2.66 0.10,-2.69 0.43,-2.63 0.75,-2.58 1.04,-2.45 1.34,-2.33 1.60,-2.13 1.86,-1.94 2.07,-1.68 2.27,-1.43 2.41,-1.14 2.55,-0.85 2.55,-0.85 L 2.55,-0.85 Z"></path></g><g transform="translate(381.20001220703125 377.19989013671875) rotate(0 20.79998779296875 0.0000152587890625)" stroke="none"><path fill="#1e1e1e" d="M 2.59,0.70 Q 2.59,0.70 2.16,3.30 1.72,5.90 1.29,8.09 0.85,10.28 0.05,13.29 -0.75,16.30 -1.25,17.38 -1.75,18.46 -1.91,18.84 -2.06,19.21 -2.30,19.54 -2.54,19.86 -2.85,20.12 -3.16,20.38 -3.53,20.56 -3.89,20.74 -4.29,20.82 -4.68,20.91 -5.09,20.89 -5.49,20.88 -5.88,20.77 -6.27,20.67 -6.63,20.47 -6.98,20.27 -7.27,19.99 -7.57,19.71 -7.79,19.37 -8.01,19.03 -8.14,18.65 -8.27,18.27 -8.31,17.86 -8.35,17.46 -8.29,17.06 -8.23,16.66 -8.14,13.42 -8.05,10.17 -8.63,5.34 -9.20,0.50 -9.35,-4.55 -9.49,-9.60 -8.98,-12.84 -8.47,-16.08 -5.57,-18.46 -2.67,-20.85 2.80,-20.39 8.29,-19.93 15.51,-15.41 22.74,-10.89 26.16,-8.26 29.57,-5.63 32.64,-3.10 35.70,-0.57 37.52,0.91 39.35,2.39 41.60,4.32 43.84,6.24 46.33,7.07 48.81,7.90 49.19,8.09 49.57,8.29 49.86,8.60 50.16,8.90 50.34,9.29 50.52,9.67 50.57,10.09 50.62,10.52 50.53,10.93 50.44,11.35 50.23,11.71 50.01,12.08 49.69,12.36 49.37,12.63 48.97,12.80 48.58,12.96 48.16,12.98 47.73,13.01 47.32,12.90 46.91,12.79 46.56,12.55 46.20,12.32 45.94,11.98 45.68,11.64 45.55,11.24 45.41,10.84 45.40,10.42 45.40,9.99 45.53,9.59 45.66,9.18 45.92,8.84 46.17,8.50 46.52,8.26 46.87,8.02 47.28,7.90 47.69,7.79 48.11,7.81 48.54,7.83 48.93,7.98 49.33,8.13 49.66,8.41 49.98,8.68 50.21,9.04 50.43,9.40 50.52,9.82 50.62,10.23 50.57,10.65 50.53,11.08 50.36,11.46 50.18,11.85 49.89,12.16 49.60,12.47 49.23,12.68 48.85,12.88 48.43,12.95 48.02,13.02 47.60,12.96 47.18,12.89 47.18,12.89 47.18,12.89 44.68,12.09 42.19,11.29 37.70,11.00 33.20,10.72 31.08,9.17 28.96,7.62 25.98,5.19 23.00,2.75 19.78,0.18 16.56,-2.37 11.41,-6.84 6.26,-11.30 3.19,-12.49 0.12,-13.67 -0.85,-11.60 -1.83,-9.53 -2.06,-4.81 -2.30,-0.09 -2.00,5.08 -1.71,10.27 -1.73,14.36 -1.75,18.46 -1.91,18.84 -2.06,19.21 -2.30,19.54 -2.54,19.86 -2.85,20.12 -3.16,20.38 -3.53,20.56 -3.89,20.74 -4.29,20.82 -4.68,20.91 -5.09,20.89 -5.49,20.88 -5.88,20.77 -6.27,20.67 -6.63,20.47 -6.98,20.27 -7.27,19.99 -7.57,19.71 -7.79,19.37 -8.01,19.03 -8.14,18.65 -8.27,18.27 -8.31,17.86 -8.35,17.46 -8.29,17.06 -8.23,16.66 -7.91,15.53 -7.59,14.40 -6.65,11.57 -5.70,8.73 -5.09,6.47 -4.48,4.21 -3.54,1.75 -2.59,-0.70 -2.47,-1.00 -2.35,-1.31 -2.16,-1.57 -1.97,-1.83 -1.72,-2.04 -1.47,-2.25 -1.18,-2.39 -0.89,-2.54 -0.57,-2.61 -0.25,-2.68 0.06,-2.67 0.39,-2.66 0.70,-2.57 1.01,-2.49 1.30,-2.33 1.58,-2.17 1.82,-1.95 2.05,-1.73 2.23,-1.46 2.41,-1.19 2.52,-0.88 2.63,-0.57 2.66,-0.25 2.69,0.06 2.64,0.38 2.59,0.70 2.59,0.70 L 2.59,0.70 Z"></path></g><g transform="translate(458 482.7998962402344) rotate(0 214.325927734375 22.5)"><text x="0" y="31.536" font-family="Virgil, Segoe UI Emoji" font-size="36px" fill="#1e1e1e" text-anchor="start" style="white-space: pre;" direction="ltr" dominant-baseline="alphabetic">operador de propagación</text></g><g transform="translate(469.199951171875 565.1999053955078) rotate(0 454.06787109375 67.5)"><text x="0" y="31.536" font-family="Virgil, Segoe UI Emoji" font-size="36px" fill="#1e1e1e" text-anchor="start" style="white-space: pre;" direction="ltr" dominant-baseline="alphabetic">copia el contenido de un array, o un objeto</text><text x="0" y="76.536" font-family="Virgil, Segoe UI Emoji" font-size="36px" fill="#1e1e1e" text-anchor="start" style="white-space: pre;" direction="ltr" dominant-baseline="alphabetic">y permite insertarlo dentro de otro array u objeto</text><text x="0" y="121.536" font-family="Virgil, Segoe UI Emoji" font-size="36px" fill="#1e1e1e" text-anchor="start" style="white-space: pre;" direction="ltr" dominant-baseline="alphabetic"></text></g><g transform="translate(694.7180786132812 109.70001220703125) rotate(0 217.8359375 45)"><text x="0" y="31.536" font-family="Virgil, Segoe UI Emoji" font-size="36px" fill="#1e1e1e" text-anchor="start" style="white-space: pre;" direction="ltr" dominant-baseline="alphabetic">let letters = ["a","b","c"]</text><text x="0" y="76.536" font-family="Virgil, Segoe UI Emoji" font-size="36px" fill="#1e1e1e" text-anchor="start" style="white-space: pre;" direction="ltr" dominant-baseline="alphabetic">let emptyArray = []</text></g><g transform="translate(781.1181030273438 286.1000061035156) rotate(0 238.48190307617188 22.5)"><text x="0" y="31.536" font-family="Virgil, Segoe UI Emoji" font-size="36px" fill="#1e1e1e" text-anchor="start" style="white-space: pre;" direction="ltr" dominant-baseline="alphabetic">emptyArray = [ ...letters ]</text></g><g transform="translate(975.6000061035156 146.8000030517578) rotate(0 65.99996948242188 -28.79999542236328)" stroke="none"><path fill="#e03131" d="M 0,-1.32 Q 0,-1.32 0.91,-1.41 1.83,-1.50 3.18,-1.51 4.52,-1.52 5.75,-1.53 6.98,-1.54 8.28,-1.54 9.58,-1.55 11.33,-1.77 13.08,-2.00 14.83,-2.10 16.58,-2.20 17.64,-2.46 18.70,-2.71 19.99,-2.85 21.28,-2.98 23.13,-3.27 24.98,-3.57 26.21,-3.46 27.44,-3.36 28.80,-3.30 30.15,-3.24 32.03,-2.75 33.92,-2.26 35.23,-2.08 36.54,-1.90 37.99,-1.82 39.44,-1.75 40.90,-1.90 42.36,-2.06 45.46,-2.42 48.56,-2.78 49.60,-3.10 50.63,-3.42 52.43,-3.59 54.23,-3.76 56.58,-3.82 58.94,-3.89 60.16,-3.92 61.37,-3.94 64.29,-3.97 67.20,-3.99 68.35,-3.99 69.49,-3.99 71.46,-4.32 73.44,-4.64 75.72,-4.91 78.01,-5.17 79.82,-5.05 81.64,-4.94 84.30,-4.37 86.97,-3.81 88.13,-3.36 89.30,-2.91 90.95,-2.77 92.61,-2.64 94.05,-2.56 95.49,-2.49 97.47,-2.46 99.45,-2.43 101.22,-2.41 102.99,-2.39 105.42,-2.15 107.86,-1.90 109.52,-1.79 111.18,-1.69 112.36,-1.65 113.54,-1.60 114.98,-1.08 116.42,-0.56 117.93,-0.33 119.45,-0.11 121.12,-0.06 122.79,-0.01 124.63,0.00 126.48,0.02 127.57,0.27 128.65,0.53 129.93,0.96 131.21,1.40 132.98,1.77 134.75,2.14 136.21,2.58 137.67,3.02 138.81,2.35 139.94,1.67 141.12,0.89 142.30,0.12 142.74,-1.68 143.17,-3.49 143.19,-4.81 143.21,-6.14 143.45,-8.14 143.68,-10.15 144.03,-11.73 144.37,-13.31 144.55,-15.11 144.73,-16.92 144.75,-18.49 144.77,-20.05 145.01,-23.09 145.26,-26.12 145.35,-28.05 145.45,-29.98 145.27,-31.37 145.09,-32.75 144.80,-34.01 144.50,-35.26 144.36,-36.37 144.21,-37.47 143.94,-38.77 143.67,-40.06 143.32,-41.55 142.97,-43.03 142.08,-43.81 141.19,-44.59 140.39,-46.05 139.60,-47.52 139.25,-48.94 138.90,-50.37 138.38,-52.06 137.86,-53.74 138.01,-55.83 138.17,-57.93 137.76,-59.19 137.36,-60.46 137.22,-60.79 137.08,-61.11 136.98,-61.27 136.87,-61.43 136.81,-61.61 136.74,-61.79 136.72,-61.97 136.70,-62.16 136.73,-62.35 136.76,-62.54 136.83,-62.72 136.90,-62.89 137.01,-63.05 137.12,-63.20 137.26,-63.32 137.41,-63.45 137.58,-63.53 137.75,-63.62 137.93,-63.66 138.12,-63.70 138.30,-63.70 138.49,-63.69 138.68,-63.65 138.86,-63.60 139.03,-63.51 139.19,-63.41 139.33,-63.29 139.47,-63.16 139.47,-61.80 139.46,-60.44 138.61,-59.76 137.75,-59.07 134.82,-58.11 131.89,-57.16 130.38,-56.81 128.87,-56.47 126.94,-55.89 125.00,-55.31 123.62,-55.04 122.24,-54.76 119.08,-54.41 115.93,-54.06 114.14,-53.92 112.35,-53.77 109.71,-53.71 107.07,-53.64 101.35,-53.61 95.63,-53.58 92.75,-53.57 89.86,-53.55 85.60,-53.78 81.34,-54.00 79.10,-54.10 76.85,-54.19 74.99,-54.23 73.13,-54.27 69.36,-54.26 65.59,-54.25 63.37,-54.03 61.16,-53.81 57.04,-53.03 52.92,-52.26 49.50,-51.70 46.09,-51.14 43.20,-50.89 40.31,-50.65 37.77,-50.32 35.22,-50.00 33.16,-49.86 31.09,-49.72 29.05,-49.66 27.01,-49.61 25.33,-49.36 23.65,-49.11 21.92,-49.00 20.18,-48.88 18.99,-48.83 17.79,-48.79 14.79,-48.77 11.78,-48.76 10.23,-48.76 8.69,-48.76 7.11,-48.76 5.54,-48.76 3.92,-48.32 2.29,-47.88 1.12,-47.48 -0.03,-47.07 -1.76,-46.27 -3.49,-45.47 -4.55,-45.05 -5.62,-44.63 -6.87,-44.37 -8.13,-44.11 -9.44,-44.79 -10.75,-45.47 -12.63,-45.81 -14.51,-46.14 -14.83,-46.46 -15.15,-46.77 -15.32,-46.85 -15.50,-46.93 -15.65,-47.05 -15.80,-47.17 -15.92,-47.32 -16.04,-47.47 -16.12,-47.64 -16.20,-47.82 -16.23,-48.01 -16.27,-48.19 -16.25,-48.39 -16.24,-48.58 -16.19,-48.76 -16.13,-48.94 -16.03,-49.11 -15.93,-49.27 -15.80,-49.41 -15.66,-49.55 -15.50,-49.65 -15.33,-49.75 -15.15,-49.80 -14.97,-49.86 -14.78,-49.87 -14.59,-49.89 -14.40,-49.85 -14.21,-49.82 -12.70,-48.86 -11.19,-47.91 -10.01,-47.16 -8.84,-46.42 -8.48,-45.03 -8.12,-43.64 -8.88,-42.33 -9.65,-41.02 -10.25,-39.99 -10.85,-38.97 -10.91,-37.65 -10.97,-36.33 -10.54,-34.60 -10.10,-32.87 -10.12,-31.58 -10.15,-30.29 -10.14,-28.72 -10.13,-27.14 -10.38,-24.97 -10.62,-22.81 -10.46,-20.05 -10.30,-17.30 -10.03,-15.70 -9.77,-14.11 -9.04,-12.74 -8.31,-11.36 -7.01,-10.74 -5.70,-10.11 -4.84,-8.76 -3.98,-7.40 -4.19,-6.24 -4.40,-5.08 -1.76,-3.03 0.87,-0.97 1.00,-0.81 1.14,-0.64 1.21,-0.44 1.28,-0.24 1.29,-0.03 1.30,0.17 1.23,0.37 1.17,0.58 1.05,0.75 0.92,0.92 0.75,1.05 0.58,1.17 0.38,1.23 0.17,1.30 -0.03,1.29 -0.24,1.29 -0.44,1.21 -0.64,1.14 -0.81,1.01 -0.97,0.87 -1.09,0.69 -1.20,0.52 -1.25,0.31 -1.30,0.10 -1.29,-0.10 -1.27,-0.31 -1.19,-0.51 -1.10,-0.70 -0.96,-0.86 -0.82,-1.02 -0.63,-1.12 -0.45,-1.23 -0.24,-1.27 -0.03,-1.31 0.17,-1.28 0.38,-1.25 0.57,-1.16 0.76,-1.06 0.91,-0.91 1.06,-0.76 1.16,-0.57 1.25,-0.38 1.28,-0.17 1.31,0.03 1.27,0.24 1.23,0.45 1.12,0.63 1.02,0.82 0.86,0.96 0.70,1.10 0.51,1.19 0.31,1.27 0.10,1.29 -0.10,1.30 -0.31,1.25 -0.51,1.20 -0.69,1.09 -0.87,0.97 -0.87,0.97 -0.87,0.97 -3.29,-1.06 -5.70,-3.11 -6.78,-4.27 -7.86,-5.43 -8.43,-6.48 -9.01,-7.53 -10.54,-9.19 -12.07,-10.85 -12.77,-12.12 -13.47,-13.40 -13.77,-15.26 -14.08,-17.13 -14.18,-20.35 -14.28,-23.57 -14.04,-25.38 -13.81,-27.19 -13.69,-29.66 -13.57,-32.14 -13.93,-35.27 -14.29,-38.40 -13.71,-40.01 -13.13,-41.62 -12.31,-43.13 -11.48,-44.64 -13.31,-45.71 -15.14,-46.77 -15.32,-46.85 -15.50,-46.93 -15.65,-47.05 -15.80,-47.17 -15.92,-47.32 -16.04,-47.47 -16.12,-47.64 -16.20,-47.82 -16.23,-48.01 -16.27,-48.19 -16.25,-48.39 -16.24,-48.58 -16.19,-48.76 -16.13,-48.94 -16.03,-49.11 -15.93,-49.27 -15.80,-49.41 -15.66,-49.55 -15.50,-49.65 -15.33,-49.75 -15.15,-49.80 -14.97,-49.86 -14.78,-49.87 -14.59,-49.89 -14.40,-49.85 -14.21,-49.82 -13.82,-49.46 -13.44,-49.09 -11.78,-48.79 -10.11,-48.49 -8.69,-47.97 -7.26,-47.46 -5.99,-47.99 -4.71,-48.52 -2.91,-49.35 -1.11,-50.18 0.18,-50.62 1.48,-51.07 3.50,-51.55 5.51,-52.04 7.10,-52.04 8.68,-52.04 10.22,-52.05 11.77,-52.05 14.72,-52.10 17.66,-52.14 18.81,-52.19 19.96,-52.23 21.57,-52.33 23.18,-52.43 25.04,-52.70 26.91,-52.96 28.88,-53.02 30.86,-53.09 32.82,-53.23 34.79,-53.37 37.41,-53.71 40.02,-54.05 42.78,-54.29 45.53,-54.52 48.91,-55.08 52.28,-55.65 56.56,-56.44 60.83,-57.24 63.21,-57.46 65.60,-57.69 69.40,-57.64 73.21,-57.60 75.10,-57.56 76.99,-57.51 79.25,-57.42 81.52,-57.32 85.68,-57.09 89.85,-56.87 92.73,-56.88 95.62,-56.89 101.30,-56.91 106.99,-56.93 109.53,-56.99 112.08,-57.04 113.83,-57.18 115.58,-57.32 118.60,-57.65 121.61,-57.98 122.84,-58.21 124.07,-58.44 126.11,-59.05 128.16,-59.67 129.51,-59.96 130.87,-60.26 133.98,-60.69 137.08,-61.11 136.98,-61.27 136.87,-61.43 136.81,-61.61 136.74,-61.79 136.72,-61.97 136.70,-62.16 136.73,-62.35 136.76,-62.54 136.83,-62.72 136.90,-62.89 137.01,-63.05 137.12,-63.20 137.26,-63.32 137.41,-63.45 137.58,-63.53 137.74,-63.62 137.93,-63.66 138.12,-63.70 138.30,-63.70 138.49,-63.69 138.68,-63.65 138.86,-63.60 139.03,-63.51 139.19,-63.41 139.33,-63.29 139.47,-63.16 139.88,-62.30 140.29,-61.45 140.76,-59.44 141.22,-57.42 141.09,-55.87 140.96,-54.31 141.41,-52.86 141.87,-51.41 142.31,-49.64 142.75,-47.87 143.55,-46.87 144.35,-45.87 145.10,-45.03 145.85,-44.19 146.31,-42.45 146.76,-40.71 147.18,-38.35 147.60,-35.98 147.93,-34.56 148.25,-33.14 148.44,-31.48 148.63,-29.82 148.53,-27.84 148.42,-25.86 148.18,-22.93 147.95,-20.00 147.92,-18.37 147.89,-16.74 147.67,-14.69 147.45,-12.63 147.13,-11.20 146.82,-9.77 146.59,-7.94 146.36,-6.11 146.34,-4.74 146.31,-3.37 146.18,-1.73 146.04,-0.09 145.58,0.97 145.11,2.04 144.07,2.79 143.03,3.53 141.91,4.28 140.79,5.02 139.07,5.58 137.35,6.15 135.49,5.63 133.64,5.10 132.59,4.85 131.54,4.59 130.37,4.19 129.21,3.80 127.83,3.48 126.45,3.16 124.59,3.16 122.73,3.16 120.95,3.11 119.18,3.05 118.03,2.93 116.89,2.81 115.13,2.14 113.36,1.48 112.18,1.44 111.00,1.40 109.27,1.30 107.55,1.20 105.25,0.98 102.96,0.75 101.18,0.74 99.40,0.73 97.36,0.69 95.33,0.66 93.81,0.58 92.30,0.49 90.24,0.26 88.19,0.02 87.11,-0.39 86.04,-0.81 83.73,-1.30 81.42,-1.79 79.89,-1.90 78.37,-2.02 75.07,-1.66 71.77,-1.30 70.64,-1.04 69.51,-0.79 68.36,-0.79 67.21,-0.78 64.33,-0.78 61.44,-0.77 60.23,-0.74 59.03,-0.72 56.77,-0.66 54.51,-0.60 53.02,-0.48 51.53,-0.35 50.25,0.01 48.96,0.38 46.07,0.73 43.17,1.09 41.21,1.29 39.26,1.50 37.67,1.40 36.08,1.31 34.57,1.09 33.06,0.87 30.77,0.40 28.49,-0.06 26.96,-0.23 25.43,-0.40 23.50,-0.13 21.58,0.13 20.49,0.22 19.39,0.32 18.08,0.60 16.77,0.89 15.12,0.99 13.46,1.08 11.52,1.31 9.58,1.55 8.28,1.54 6.98,1.54 5.75,1.53 4.52,1.52 3.18,1.51 1.83,1.50 0.91,1.41 0,1.32 -0.15,1.30 -0.31,1.28 -0.46,1.22 -0.61,1.16 -0.74,1.07 -0.87,0.98 -0.98,0.86 -1.08,0.75 -1.16,0.60 -1.23,0.46 -1.27,0.31 -1.31,0.15 -1.31,-0.00 -1.31,-0.15 -1.27,-0.31 -1.23,-0.46 -1.16,-0.60 -1.08,-0.75 -0.98,-0.86 -0.87,-0.98 -0.74,-1.07 -0.61,-1.16 -0.46,-1.22 -0.31,-1.28 -0.15,-1.30 0.00,-1.32 0.00,-1.32 L 0,-1.32 Z"></path></g><g transform="translate(1390.8000183105469 95.60000610351562) rotate(0 10.4000244140625 35.20001220703125)" stroke="none"><path fill="#e03131" d="M 1.27,0.36 Q 1.27,0.36 0.92,2.00 0.58,3.64 0.01,5.96 -0.54,8.28 -0.75,10.29 -0.96,12.29 -1.28,14.18 -1.59,16.06 -2.66,23.98 -3.72,31.90 -4.67,38.47 -5.63,45.05 -6.03,51.42 -6.43,57.79 -6.61,60.77 -6.79,63.74 -6.87,65.45 -6.95,67.15 -6.99,68.12 -7.02,69.08 -7.07,69.38 -7.12,69.68 -7.24,69.96 -7.36,70.24 -7.55,70.49 -7.73,70.73 -7.97,70.92 -8.20,71.11 -8.48,71.24 -8.76,71.37 -9.06,71.43 -9.35,71.49 -9.66,71.48 -9.96,71.46 -10.26,71.38 -10.55,71.29 -10.81,71.14 -11.07,70.98 -11.29,70.77 -11.51,70.56 -11.67,70.30 -11.84,70.04 -11.93,69.75 -12.03,69.46 -12.05,69.16 -12.07,68.86 -10.52,67.61 -8.96,66.37 -7.03,65.52 -5.10,64.67 -3.70,64.05 -2.30,63.43 -0.76,63.09 0.78,62.74 3.48,62.55 6.19,62.36 9.94,62.34 13.69,62.33 15.96,62.32 18.23,62.31 20.94,62.11 23.65,61.92 25.17,61.64 26.70,61.36 26.77,61.16 26.85,60.96 26.98,60.79 27.11,60.62 27.29,60.51 27.47,60.39 27.67,60.34 27.88,60.29 28.09,60.30 28.30,60.32 28.50,60.40 28.69,60.48 28.85,60.62 29.01,60.76 29.12,60.95 29.22,61.13 29.27,61.34 29.31,61.55 29.28,61.76 29.25,61.97 29.16,62.16 29.07,62.35 28.92,62.50 28.77,62.66 28.58,62.75 28.39,62.85 28.18,62.88 27.97,62.91 27.76,62.87 27.55,62.83 27.37,62.73 27.18,62.63 27.04,62.47 26.89,62.31 26.81,62.12 26.72,61.92 26.70,61.71 26.69,61.50 26.73,61.29 26.78,61.09 26.90,60.91 27.01,60.73 27.17,60.59 27.34,60.46 27.54,60.38 27.74,60.31 27.95,60.30 28.16,60.29 28.37,60.35 28.57,60.41 28.74,60.54 28.92,60.66 29.04,60.83 29.17,61.00 29.23,61.20 29.29,61.41 29.29,61.62 29.29,61.83 29.29,61.83 29.29,61.83 26.67,64.30 24.05,66.76 21.15,67.03 18.25,67.30 15.98,67.32 13.71,67.33 10.02,67.35 6.34,67.37 4.77,67.40 3.20,67.44 1.45,67.73 -0.29,68.02 -1.73,68.66 -3.17,69.30 -5.76,70.33 -8.35,71.37 -7.68,70.22 -7.02,69.08 -7.07,69.38 -7.12,69.68 -7.24,69.96 -7.36,70.24 -7.55,70.49 -7.73,70.73 -7.97,70.92 -8.20,71.11 -8.48,71.24 -8.76,71.37 -9.06,71.43 -9.35,71.49 -9.66,71.48 -9.96,71.46 -10.26,71.38 -10.55,71.29 -10.81,71.14 -11.07,70.98 -11.29,70.77 -11.51,70.56 -11.67,70.30 -11.84,70.04 -11.93,69.75 -12.03,69.46 -12.05,69.16 -12.07,68.86 -12.04,67.89 -12.01,66.93 -11.93,65.18 -11.85,63.43 -11.67,60.44 -11.49,57.45 -11.03,50.87 -10.57,44.29 -9.50,37.71 -8.44,31.12 -6.90,23.23 -5.37,15.34 -4.98,13.58 -4.60,11.81 -4.26,9.57 -3.91,7.33 -3.16,5.06 -2.42,2.79 -1.84,1.21 -1.27,-0.36 -1.21,-0.51 -1.14,-0.65 -1.05,-0.78 -0.95,-0.91 -0.83,-1.01 -0.71,-1.11 -0.56,-1.18 -0.42,-1.25 -0.26,-1.28 -0.11,-1.31 0.04,-1.31 0.20,-1.30 0.36,-1.26 0.51,-1.22 0.65,-1.14 0.79,-1.06 0.90,-0.95 1.02,-0.84 1.10,-0.70 1.19,-0.57 1.24,-0.42 1.29,-0.26 1.31,-0.11 1.32,0.04 1.29,0.20 1.27,0.36 1.27,0.36 L 1.27,0.36 Z"></path></g><g transform="translate(1393.2000427246094 90.00003051757812) rotate(0 15.5999755859375 -2)" stroke="none"><path fill="#e03131" d="M 0,-1.36 Q 0,-1.36 1.37,-1.90 2.75,-2.43 4.93,-2.52 7.10,-2.61 8.65,-3.04 10.21,-3.48 11.58,-3.68 12.94,-3.88 15.37,-4.05 17.79,-4.21 21.60,-4.34 25.41,-4.47 28.20,-4.88 30.99,-5.29 31.20,-5.29 31.42,-5.29 31.62,-5.22 31.82,-5.15 31.99,-5.02 32.15,-4.89 32.27,-4.72 32.39,-4.54 32.45,-4.33 32.50,-4.13 32.49,-3.92 32.48,-3.70 32.40,-3.51 32.32,-3.31 32.18,-3.15 32.04,-2.99 31.86,-2.88 31.67,-2.77 31.47,-2.73 31.26,-2.68 31.05,-2.71 30.84,-2.73 30.64,-2.82 30.45,-2.91 30.30,-3.06 30.14,-3.21 30.05,-3.40 29.95,-3.58 29.91,-3.79 29.88,-4.00 29.92,-4.21 29.95,-4.42 30.05,-4.61 30.15,-4.80 30.31,-4.94 30.47,-5.09 30.66,-5.17 30.85,-5.26 31.06,-5.28 31.27,-5.31 31.48,-5.26 31.69,-5.21 31.87,-5.10 32.05,-4.99 32.19,-4.83 32.32,-4.66 32.40,-4.47 32.48,-4.27 32.49,-4.06 32.50,-3.84 32.44,-3.64 32.38,-3.44 32.26,-3.26 32.14,-3.09 31.97,-2.96 31.80,-2.83 31.60,-2.76 31.40,-2.70 31.40,-2.70 31.40,-2.70 28.62,-2.23 25.84,-1.77 22.11,-0.71 18.39,0.34 16.07,0.80 13.75,1.26 12.61,1.45 11.47,1.64 9.30,2.12 7.14,2.61 4.95,2.52 2.75,2.43 1.37,1.90 0,1.36 -0.16,1.34 -0.32,1.32 -0.47,1.26 -0.63,1.20 -0.76,1.11 -0.90,1.01 -1.01,0.89 -1.12,0.77 -1.19,0.62 -1.27,0.48 -1.31,0.32 -1.35,0.16 -1.35,-0.00 -1.35,-0.16 -1.31,-0.32 -1.27,-0.48 -1.19,-0.62 -1.12,-0.77 -1.01,-0.89 -0.90,-1.01 -0.76,-1.11 -0.63,-1.20 -0.47,-1.26 -0.32,-1.32 -0.16,-1.34 0.00,-1.36 0.00,-1.36 L 0,-1.36 Z"></path></g><g transform="translate(1061.1999816894531 89.19999694824219) rotate(0 235.60000610351562 -39.599998474121094)" stroke="none"><path fill="#e03131" d="M -0.95,-0.95 Q -0.95,-0.95 -0.12,-1.96 0.69,-2.98 1.52,-3.86 2.34,-4.73 4.14,-6.37 5.93,-8.02 8.56,-9.69 11.19,-11.37 13.88,-13.00 16.57,-14.62 19.78,-16.49 22.98,-18.37 26.20,-20.11 29.41,-21.86 40.28,-26.38 51.14,-30.90 60.14,-34.17 69.14,-37.44 74.82,-39.29 80.51,-41.15 97.90,-45.90 115.30,-50.66 129.36,-54.10 143.42,-57.55 151.46,-59.48 159.50,-61.41 174.48,-64.00 189.46,-66.59 202.52,-68.32 215.57,-70.05 224.58,-71.01 233.60,-71.98 252.62,-73.76 271.63,-75.55 286.83,-76.99 302.04,-78.43 320.51,-79.48 338.99,-80.53 351.48,-80.76 363.97,-80.98 376.28,-80.15 388.58,-79.32 397.33,-78.04 406.07,-76.76 411.95,-75.27 417.83,-73.78 424.99,-71.28 432.15,-68.78 436.86,-66.79 441.56,-64.80 445.23,-62.19 448.89,-59.58 451.59,-55.66 454.28,-51.74 456.20,-48.85 458.12,-45.96 459.43,-43.75 460.75,-41.54 463.41,-37.21 466.07,-32.88 467.43,-30.56 468.80,-28.23 469.55,-27.10 470.30,-25.96 470.94,-25.08 471.57,-24.20 472.11,-23.75 472.66,-23.30 472.85,-22.99 473.04,-22.69 473.15,-22.35 473.27,-22.01 473.30,-21.65 473.33,-21.29 473.27,-20.94 473.21,-20.58 473.07,-20.25 472.93,-19.92 472.72,-19.64 472.50,-19.35 472.23,-19.12 471.95,-18.89 471.62,-18.74 471.30,-18.59 470.95,-18.51 470.60,-18.44 470.24,-18.45 469.88,-18.47 469.54,-18.57 469.19,-18.67 468.88,-18.85 468.57,-19.02 468.31,-19.27 468.05,-19.52 467.74,-19.11 467.43,-18.70 467.21,-18.70 467.00,-18.70 466.80,-18.76 466.60,-18.83 466.43,-18.95 466.26,-19.08 466.13,-19.25 466.01,-19.43 465.95,-19.63 465.89,-19.83 465.90,-20.05 465.91,-20.26 465.98,-20.46 466.06,-20.66 466.19,-20.82 466.33,-20.98 466.51,-21.10 466.69,-21.21 466.90,-21.26 467.10,-21.31 467.32,-21.29 467.53,-21.27 467.72,-21.18 467.92,-21.09 468.07,-20.95 468.23,-20.81 468.33,-20.62 468.43,-20.43 468.47,-20.22 468.51,-20.01 468.48,-19.80 468.45,-19.59 468.35,-19.41 468.25,-19.22 468.10,-19.07 467.95,-18.92 467.76,-18.83 467.57,-18.73 467.35,-18.71 467.14,-18.68 466.94,-18.73 466.73,-18.77 466.54,-18.87 466.36,-18.98 466.22,-19.14 466.08,-19.30 466.00,-19.50 465.92,-19.69 465.90,-19.91 465.89,-20.12 465.94,-20.32 465.99,-20.53 466.11,-20.71 466.23,-20.88 466.40,-21.01 466.56,-21.15 466.76,-21.22 466.96,-21.29 466.96,-21.29 466.96,-21.29 469.81,-22.29 472.66,-23.30 472.85,-22.99 473.04,-22.69 473.15,-22.35 473.27,-22.01 473.30,-21.65 473.33,-21.29 473.27,-20.94 473.21,-20.59 473.07,-20.25 472.93,-19.92 472.72,-19.64 472.50,-19.35 472.23,-19.12 471.95,-18.89 471.62,-18.74 471.30,-18.59 470.95,-18.51 470.60,-18.44 470.24,-18.45 469.88,-18.47 469.54,-18.57 469.19,-18.67 468.88,-18.85 468.57,-19.02 468.31,-19.27 468.05,-19.52 467.45,-19.90 466.85,-20.27 465.89,-21.34 464.92,-22.42 464.08,-23.71 463.23,-25.01 461.91,-27.31 460.60,-29.61 458.04,-34.01 455.47,-38.41 454.25,-40.50 453.02,-42.59 451.11,-45.50 449.20,-48.41 447.22,-51.62 445.24,-54.84 442.23,-57.12 439.22,-59.40 434.73,-61.35 430.23,-63.29 423.31,-65.71 416.40,-68.13 410.81,-69.56 405.22,-70.99 396.70,-72.25 388.19,-73.51 376.13,-74.32 364.07,-75.14 351.70,-74.91 339.33,-74.68 320.97,-73.58 302.60,-72.47 287.40,-71.02 272.20,-69.56 253.22,-67.77 234.24,-65.98 225.30,-65.02 216.36,-64.06 203.39,-62.36 190.42,-60.66 175.58,-58.42 160.73,-56.18 152.69,-54.32 144.65,-52.46 130.62,-49.16 116.60,-45.86 99.29,-41.23 81.99,-36.60 76.38,-34.77 70.77,-32.94 61.85,-29.71 52.94,-26.48 42.22,-22.20 31.49,-17.92 28.29,-16.28 25.09,-14.64 21.86,-12.87 18.63,-11.10 15.92,-9.57 13.21,-8.04 10.70,-6.61 8.20,-5.19 6.46,-3.77 4.73,-2.34 3.86,-1.52 2.98,-0.69 1.96,0.12 0.95,0.95 0.82,1.05 0.69,1.15 0.54,1.21 0.40,1.28 0.24,1.31 0.08,1.34 -0.08,1.33 -0.24,1.32 -0.39,1.27 -0.55,1.22 -0.69,1.14 -0.83,1.06 -0.94,0.94 -1.06,0.83 -1.14,0.69 -1.22,0.55 -1.27,0.39 -1.32,0.24 -1.33,0.08 -1.34,-0.08 -1.31,-0.24 -1.28,-0.40 -1.21,-0.54 -1.15,-0.69 -1.05,-0.82 -0.95,-0.95 -0.95,-0.95 L -0.95,-0.95 Z"></path></g><g transform="translate(1523.5999450683594 67.60000610351562) rotate(0 14 12.399993896484375)" stroke="none"><path fill="#e03131" d="M 1.30,-0.21 Q 1.30,-0.21 1.72,1.13 2.14,2.48 2.34,4.53 2.54,6.59 3.30,9.29 4.07,12.00 5.25,14.43 6.43,16.86 7.07,18.06 7.71,19.26 10.46,20.32 13.20,21.39 15.77,18.01 18.34,14.63 19.88,12.15 21.42,9.67 22.50,7.38 23.59,5.09 24.05,3.91 24.52,2.72 25.64,1.53 26.76,0.34 26.84,0.20 26.91,0.06 27.01,-0.05 27.12,-0.17 27.25,-0.26 27.38,-0.35 27.53,-0.41 27.67,-0.47 27.83,-0.49 27.99,-0.51 28.14,-0.49 28.30,-0.47 28.45,-0.42 28.60,-0.36 28.73,-0.27 28.86,-0.18 28.97,-0.07 29.07,0.04 29.15,0.18 29.22,0.32 29.26,0.48 29.30,0.63 29.30,0.79 29.30,0.95 29.26,1.10 29.23,1.25 29.24,0.83 29.25,0.40 29.28,0.61 29.31,0.82 29.27,1.03 29.23,1.24 29.13,1.42 29.03,1.61 28.87,1.75 28.71,1.90 28.52,1.98 28.32,2.07 28.11,2.09 27.90,2.10 27.69,2.06 27.49,2.01 27.31,1.89 27.13,1.78 26.99,1.62 26.86,1.45 26.78,1.25 26.71,1.05 26.70,0.84 26.69,0.63 26.75,0.43 26.81,0.22 26.94,0.05 27.06,-0.12 27.23,-0.24 27.40,-0.37 27.60,-0.43 27.81,-0.49 28.02,-0.49 28.23,-0.49 28.43,-0.42 28.63,-0.34 28.80,-0.21 28.97,-0.08 29.08,0.09 29.20,0.27 29.25,0.47 29.30,0.68 29.29,0.89 29.27,1.10 29.19,1.30 29.11,1.49 28.97,1.65 28.83,1.81 28.64,1.92 28.46,2.02 28.25,2.07 28.04,2.11 27.83,2.08 27.62,2.05 27.43,1.96 27.24,1.87 27.09,1.72 26.93,1.57 26.85,0.95 26.76,0.34 26.84,0.20 26.91,0.06 27.01,-0.05 27.12,-0.17 27.25,-0.26 27.38,-0.35 27.52,-0.41 27.67,-0.47 27.83,-0.49 27.99,-0.51 28.14,-0.49 28.30,-0.47 28.45,-0.42 28.60,-0.36 28.73,-0.27 28.86,-0.18 28.97,-0.07 29.07,0.04 29.15,0.18 29.22,0.32 29.26,0.47 29.30,0.63 29.30,0.79 29.30,0.95 29.26,1.10 29.23,1.25 28.85,2.73 28.48,4.20 28.01,5.54 27.53,6.89 26.41,9.46 25.28,12.04 23.78,14.50 22.27,16.97 19.42,21.30 16.56,25.63 13.92,25.51 11.28,25.40 7.87,23.48 4.45,21.57 3.59,20.08 2.73,18.60 1.44,15.80 0.16,13.00 -0.53,9.89 -1.23,6.79 -1.22,4.91 -1.22,3.03 -1.26,1.62 -1.30,0.21 -1.30,0.05 -1.31,-0.10 -1.28,-0.25 -1.25,-0.41 -1.18,-0.55 -1.11,-0.70 -1.01,-0.82 -0.91,-0.94 -0.79,-1.04 -0.66,-1.14 -0.51,-1.20 -0.37,-1.26 -0.21,-1.29 -0.05,-1.31 0.10,-1.30 0.25,-1.29 0.41,-1.24 0.56,-1.19 0.69,-1.11 0.83,-1.02 0.94,-0.91 1.05,-0.79 1.13,-0.66 1.21,-0.52 1.25,-0.36 1.30,-0.21 1.30,-0.21 L 1.30,-0.21 Z"></path></g><g transform="translate(1434.8000183105469 106.00003051757812) rotate(0 4.79998779296875 8.79998779296875)" stroke="none"><path fill="#e03131" d="M 1.19,-0.59 Q 1.19,-0.59 2.42,0.51 3.66,1.63 4.12,3.17 4.57,4.71 4.74,6.10 4.91,7.50 5.18,8.54 5.45,9.58 5.76,10.68 6.08,11.79 6.61,12.97 7.14,14.15 8.30,14.42 9.45,14.69 9.66,14.70 9.87,14.71 10.07,14.79 10.27,14.87 10.43,15.00 10.59,15.14 10.70,15.32 10.81,15.51 10.86,15.71 10.91,15.92 10.88,16.13 10.86,16.34 10.77,16.54 10.68,16.73 10.54,16.88 10.39,17.04 10.21,17.14 10.02,17.24 9.81,17.27 9.60,17.31 9.39,17.27 9.18,17.24 8.99,17.14 8.80,17.04 8.66,16.89 8.51,16.73 8.42,16.54 8.33,16.35 8.31,16.14 8.28,15.93 8.33,15.72 8.37,15.51 8.48,15.33 8.59,15.15 8.75,15.01 8.91,14.87 9.11,14.79 9.31,14.71 9.52,14.70 9.73,14.69 9.94,14.75 10.14,14.80 10.32,14.92 10.50,15.04 10.62,15.21 10.75,15.38 10.82,15.58 10.89,15.78 10.89,15.99 10.89,16.20 10.82,16.41 10.76,16.61 10.63,16.78 10.50,16.95 10.32,17.07 10.15,17.19 9.94,17.24 9.74,17.30 9.74,17.30 9.74,17.30 6.91,17.05 4.09,16.80 2.48,15.12 0.87,13.43 0.49,12.13 0.11,10.82 -0.18,9.44 -0.48,8.05 -0.69,5.96 -0.90,3.88 -1.04,2.24 -1.19,0.59 -1.24,0.44 -1.29,0.29 -1.31,0.13 -1.33,-0.02 -1.30,-0.18 -1.28,-0.34 -1.22,-0.49 -1.16,-0.64 -1.07,-0.77 -0.97,-0.90 -0.85,-1.00 -0.73,-1.11 -0.59,-1.18 -0.44,-1.25 -0.29,-1.28 -0.13,-1.32 0.02,-1.32 0.18,-1.31 0.34,-1.27 0.49,-1.23 0.63,-1.15 0.77,-1.08 0.89,-0.97 1.01,-0.86 1.10,-0.72 1.19,-0.59 1.19,-0.59 L 1.19,-0.59 Z"></path></g><g transform="translate(1454.8000183105469 97.19999694824219) rotate(0 7.20001220703125 6.400016784667969)" stroke="none"><path fill="#e03131" d="M 1.31,-0.21 Q 1.31,-0.21 2.16,1.03 3.01,2.28 3.98,3.83 4.96,5.38 6.05,6.85 7.13,8.32 9.37,9.64 11.61,10.96 13.11,11.23 14.61,11.50 14.81,11.57 15.02,11.64 15.18,11.77 15.35,11.90 15.47,12.07 15.59,12.25 15.65,12.45 15.70,12.66 15.69,12.87 15.68,13.08 15.60,13.28 15.52,13.48 15.38,13.64 15.24,13.80 15.06,13.91 14.88,14.02 14.67,14.06 14.46,14.11 14.25,14.08 14.04,14.06 13.85,13.97 13.65,13.88 13.50,13.73 13.35,13.58 13.25,13.40 13.15,13.21 13.12,13.00 13.08,12.79 13.12,12.58 13.15,12.37 13.25,12.18 13.35,12.00 13.51,11.85 13.66,11.70 13.86,11.62 14.05,11.53 14.26,11.51 14.47,11.48 14.68,11.53 14.89,11.58 15.07,11.69 15.25,11.80 15.39,11.96 15.52,12.12 15.60,12.32 15.68,12.52 15.69,12.73 15.70,12.94 15.64,13.15 15.58,13.35 15.46,13.53 15.34,13.70 15.17,13.83 15.00,13.96 14.80,14.03 14.60,14.09 14.39,14.09 14.18,14.09 14.18,14.09 14.18,14.09 12.67,13.85 11.16,13.62 8.67,13.41 6.18,13.21 4.82,12.43 3.47,11.65 2.57,10.83 1.68,10.02 0.42,8.08 -0.83,6.13 -1.46,4.68 -2.09,3.23 -1.70,1.72 -1.31,0.21 -1.31,0.05 -1.32,-0.10 -1.29,-0.25 -1.26,-0.41 -1.19,-0.56 -1.12,-0.70 -1.02,-0.82 -0.92,-0.95 -0.79,-1.05 -0.66,-1.14 -0.52,-1.21 -0.37,-1.27 -0.21,-1.30 -0.05,-1.32 0.10,-1.31 0.26,-1.30 0.41,-1.25 0.56,-1.20 0.70,-1.11 0.83,-1.03 0.94,-0.91 1.05,-0.80 1.13,-0.66 1.21,-0.52 1.26,-0.37 1.31,-0.21 1.31,-0.21 L 1.31,-0.21 Z"></path></g><g transform="translate(1484.3999938964844 135.60000610351562) rotate(0 -6.39996337890625 8)" stroke="none"><path fill="#e03131" d="M -0.65,1.14 Q -0.65,1.14 -2.35,0.38 -4.05,-0.36 -6.47,-0.20 -8.89,-0.03 -11.36,1.53 -13.84,3.10 -15.31,4.34 -16.77,5.57 -18.26,6.98 -19.75,8.38 -20.56,11.18 -21.37,13.99 -17.99,13.87 -14.60,13.75 -11.79,12.97 -8.97,12.19 -7.28,11.63 -5.59,11.07 -3.31,9.96 -1.03,8.85 0.58,8.64 2.19,8.43 3.80,9.37 5.41,10.31 5.86,11.45 6.30,12.58 9.26,11.70 12.21,10.82 12.42,10.76 12.62,10.69 12.83,10.70 13.04,10.71 13.24,10.78 13.44,10.85 13.61,10.99 13.77,11.12 13.89,11.30 14.00,11.48 14.05,11.68 14.10,11.89 14.09,12.10 14.07,12.31 13.99,12.51 13.90,12.70 13.76,12.86 13.62,13.02 13.43,13.12 13.25,13.23 13.04,13.27 12.83,13.31 12.62,13.28 12.41,13.25 12.22,13.16 12.03,13.06 11.88,12.91 11.73,12.76 11.63,12.57 11.54,12.38 11.51,12.17 11.48,11.96 11.52,11.75 11.56,11.54 11.67,11.36 11.77,11.17 11.93,11.03 12.09,10.89 12.28,10.80 12.48,10.72 12.69,10.70 12.90,10.69 13.11,10.74 13.32,10.79 13.49,10.90 13.67,11.02 13.81,11.18 13.94,11.35 14.01,11.55 14.09,11.75 14.09,11.96 14.10,12.17 14.03,12.38 13.97,12.58 13.85,12.75 13.72,12.92 13.55,13.05 13.38,13.17 13.38,13.17 13.38,13.17 10.80,14.49 8.21,15.81 6.19,15.71 4.17,15.61 2.33,13.91 0.49,12.22 -1.91,13.46 -4.32,14.70 -6.08,15.35 -7.85,15.99 -11.01,16.97 -14.16,17.94 -18.67,18.47 -23.18,18.99 -24.79,15.88 -26.41,12.78 -24.91,8.80 -23.41,4.82 -21.63,3.25 -19.86,1.69 -17.97,0.26 -16.09,-1.15 -12.84,-2.59 -9.59,-4.03 -7.31,-4.17 -5.03,-4.30 -3.70,-3.81 -2.38,-3.31 -0.86,-2.22 0.65,-1.14 0.77,-1.04 0.90,-0.95 1.00,-0.82 1.10,-0.70 1.17,-0.56 1.24,-0.42 1.27,-0.26 1.30,-0.11 1.30,0.04 1.29,0.20 1.25,0.35 1.21,0.50 1.13,0.64 1.05,0.78 0.94,0.89 0.83,1.01 0.70,1.09 0.56,1.18 0.41,1.23 0.26,1.28 0.11,1.29 -0.04,1.31 -0.20,1.28 -0.35,1.26 -0.50,1.20 -0.65,1.14 -0.65,1.14 L -0.65,1.14 Z"></path></g><g transform="translate(1513.2000427246094 103.60000610351562) rotate(0 -6.4000244140625 9.599998474121094)" stroke="none"><path fill="#e03131" d="M 1.15,0.69 Q 1.15,0.69 0.77,2.02 0.39,3.36 -0.26,4.63 -0.93,5.91 -1.95,7.29 -2.98,8.67 -4.25,10.35 -5.53,12.03 -6.70,13.96 -7.87,15.88 -8.37,16.88 -8.87,17.87 -9.41,18.53 -9.96,19.19 -10.12,19.43 -10.27,19.68 -10.48,19.88 -10.69,20.07 -10.94,20.22 -11.19,20.36 -11.47,20.44 -11.75,20.52 -12.04,20.53 -12.32,20.54 -12.61,20.48 -12.89,20.42 -13.15,20.29 -13.41,20.17 -13.63,19.98 -13.85,19.80 -14.02,19.57 -14.20,19.34 -14.31,19.07 -14.42,18.81 -14.46,18.52 -14.51,18.24 -14.48,17.95 -14.46,17.66 -14.37,17.39 -14.27,17.12 -11.15,14.85 -8.04,12.59 -7.85,12.48 -7.67,12.37 -7.46,12.33 -7.25,12.28 -7.04,12.31 -6.83,12.33 -6.64,12.42 -6.45,12.51 -6.30,12.66 -6.14,12.81 -6.04,13.00 -5.95,13.19 -5.91,13.40 -5.88,13.61 -5.92,13.82 -5.95,14.03 -6.06,14.21 -6.16,14.40 -6.31,14.54 -6.47,14.69 -6.66,14.78 -6.85,14.86 -7.07,14.88 -7.28,14.91 -7.48,14.86 -7.69,14.81 -7.87,14.70 -8.05,14.59 -8.19,14.43 -8.33,14.26 -8.40,14.06 -8.48,13.87 -8.49,13.65 -8.50,13.44 -8.44,13.24 -8.38,13.03 -8.26,12.86 -8.14,12.68 -7.97,12.56 -7.80,12.43 -7.60,12.36 -7.40,12.30 -7.18,12.30 -6.97,12.30 -6.77,12.37 -6.57,12.44 -6.40,12.57 -6.23,12.70 -6.12,12.88 -6.00,13.05 -5.94,13.26 -5.89,13.46 -5.90,13.68 -5.92,13.89 -6.00,14.09 -6.08,14.28 -6.21,14.44 -6.35,14.60 -6.35,14.60 -6.35,14.60 -8.16,16.90 -9.96,19.19 -10.12,19.43 -10.27,19.68 -10.48,19.88 -10.69,20.07 -10.94,20.22 -11.19,20.36 -11.47,20.44 -11.75,20.52 -12.04,20.53 -12.32,20.54 -12.61,20.48 -12.89,20.42 -13.15,20.29 -13.41,20.17 -13.63,19.98 -13.85,19.80 -14.02,19.57 -14.20,19.34 -14.31,19.07 -14.42,18.81 -14.46,18.52 -14.51,18.24 -14.48,17.95 -14.46,17.66 -14.37,17.39 -14.27,17.12 -13.90,16.37 -13.54,15.62 -12.96,14.38 -12.39,13.15 -11.03,10.91 -9.67,8.67 -8.25,7.03 -6.83,5.40 -5.83,4.40 -4.84,3.40 -3.99,2.31 -3.15,1.23 -2.15,0.27 -1.15,-0.69 -1.05,-0.81 -0.95,-0.94 -0.82,-1.04 -0.69,-1.14 -0.55,-1.21 -0.40,-1.28 -0.24,-1.31 -0.08,-1.34 0.07,-1.33 0.23,-1.32 0.39,-1.27 0.54,-1.22 0.68,-1.14 0.82,-1.05 0.93,-0.94 1.05,-0.83 1.13,-0.69 1.22,-0.55 1.27,-0.40 1.32,-0.24 1.33,-0.08 1.34,0.07 1.31,0.23 1.28,0.39 1.21,0.54 1.15,0.69 1.15,0.69 L 1.15,0.69 Z"></path></g><g transform="translate(1525.2000427246094 106.80000305175781) rotate(0 -4.800048828125 4)" stroke="none"><path fill="#e03131" d="M 0.83,1.07 Q 0.83,1.07 -1.10,2.85 -3.04,4.63 -4.12,5.53 -5.21,6.43 -6.95,7.69 -8.70,8.96 -8.88,9.07 -9.05,9.19 -9.26,9.25 -9.46,9.30 -9.68,9.29 -9.89,9.28 -10.08,9.20 -10.28,9.12 -10.44,8.98 -10.60,8.84 -10.71,8.65 -10.82,8.47 -10.86,8.26 -10.91,8.06 -10.88,7.85 -10.86,7.63 -10.77,7.44 -10.68,7.25 -10.53,7.10 -10.38,6.94 -10.19,6.85 -10.00,6.75 -9.80,6.71 -9.59,6.68 -9.38,6.72 -9.17,6.75 -8.98,6.85 -8.79,6.96 -8.65,7.11 -8.50,7.27 -8.41,7.46 -8.33,7.65 -8.31,7.86 -8.28,8.08 -8.33,8.28 -8.38,8.49 -8.49,8.67 -8.60,8.85 -8.76,8.99 -8.93,9.13 -9.12,9.20 -9.32,9.28 -9.53,9.29 -9.75,9.30 -9.95,9.24 -10.16,9.18 -10.33,9.06 -10.51,8.94 -10.63,8.77 -10.76,8.60 -10.83,8.40 -10.89,8.20 -10.89,7.98 -10.89,7.77 -10.82,7.57 -10.75,7.37 -10.62,7.20 -10.49,7.03 -10.49,7.03 -10.49,7.03 -9.00,5.34 -7.50,3.65 -6.37,2.73 -5.23,1.80 -3.03,0.36 -0.83,-1.07 -0.69,-1.15 -0.55,-1.24 -0.39,-1.29 -0.24,-1.34 -0.07,-1.34 0.08,-1.35 0.24,-1.32 0.40,-1.29 0.55,-1.23 0.70,-1.16 0.83,-1.06 0.96,-0.95 1.06,-0.82 1.16,-0.70 1.23,-0.55 1.30,-0.40 1.33,-0.23 1.35,-0.07 1.34,0.08 1.33,0.25 1.28,0.40 1.23,0.56 1.15,0.70 1.06,0.84 0.95,0.95 0.83,1.07 0.83,1.07 L 0.83,1.07 Z"></path></g><g transform="translate(1541.2000427246094 152.39999389648438) rotate(0 -6.800048828125 8.400001525878906)" stroke="none"><path fill="#e03131" d="M 1.05,0.87 Q 1.05,0.87 0.07,2.40 -0.89,3.92 -1.72,5.23 -2.55,6.53 -3.81,8.18 -5.07,9.83 -6.22,11.38 -7.36,12.93 -8.62,14.33 -9.87,15.74 -9.65,15.51 -9.42,15.28 -9.54,15.38 -9.66,15.49 -9.80,15.56 -9.94,15.63 -10.10,15.66 -10.25,15.70 -10.41,15.70 -10.57,15.70 -10.72,15.66 -10.88,15.62 -11.02,15.54 -11.15,15.47 -11.27,15.36 -11.39,15.25 -11.48,15.12 -11.57,14.99 -11.62,14.84 -11.67,14.69 -11.69,14.54 -11.71,14.38 -11.69,14.22 -11.67,14.06 -11.61,13.92 -11.55,13.77 -11.46,13.64 -11.37,13.51 -10.97,13.30 -10.58,13.09 -10.36,13.10 -10.15,13.10 -9.95,13.18 -9.75,13.25 -9.59,13.38 -9.42,13.52 -9.30,13.69 -9.19,13.87 -9.14,14.08 -9.09,14.28 -9.10,14.50 -9.12,14.71 -9.20,14.90 -9.29,15.10 -9.43,15.26 -9.57,15.42 -9.75,15.52 -9.94,15.63 -10.15,15.67 -10.36,15.71 -10.57,15.68 -10.78,15.65 -10.97,15.56 -11.16,15.46 -11.31,15.31 -11.46,15.16 -11.55,14.97 -11.65,14.78 -11.68,14.57 -11.71,14.36 -11.67,14.15 -11.63,13.95 -11.52,13.76 -11.42,13.57 -11.26,13.43 -11.11,13.29 -10.91,13.21 -10.72,13.12 -10.50,13.10 -10.29,13.09 -10.09,13.14 -9.88,13.19 -9.70,13.30 -9.52,13.42 -9.39,13.58 -9.25,13.75 -9.18,13.94 -9.11,14.14 -9.10,14.36 -9.09,14.57 -9.16,14.77 -9.22,14.98 -9.34,15.15 -9.46,15.32 -9.64,15.45 -9.81,15.57 -9.62,15.42 -9.42,15.28 -9.54,15.38 -9.66,15.49 -9.80,15.56 -9.94,15.63 -10.10,15.66 -10.25,15.70 -10.41,15.70 -10.57,15.70 -10.72,15.66 -10.88,15.62 -11.02,15.54 -11.15,15.47 -11.27,15.36 -11.39,15.25 -11.48,15.12 -11.57,14.99 -11.62,14.84 -11.67,14.69 -11.69,14.54 -11.71,14.38 -11.69,14.22 -11.67,14.06 -11.61,13.92 -11.55,13.77 -11.46,13.64 -11.37,13.51 -12.53,12.89 -13.70,12.27 -12.52,10.99 -11.33,9.70 -9.97,8.17 -8.61,6.64 -7.22,5.36 -5.83,4.09 -4.77,2.84 -3.70,1.59 -2.37,0.35 -1.05,-0.87 -0.93,-0.98 -0.81,-1.10 -0.66,-1.18 -0.52,-1.26 -0.36,-1.30 -0.20,-1.35 -0.04,-1.35 0.12,-1.36 0.28,-1.32 0.44,-1.29 0.59,-1.22 0.74,-1.14 0.87,-1.04 0.99,-0.93 1.09,-0.80 1.19,-0.67 1.25,-0.52 1.31,-0.36 1.34,-0.20 1.36,-0.04 1.35,0.12 1.33,0.28 1.28,0.44 1.23,0.59 1.14,0.73 1.05,0.87 1.05,0.87 L 1.05,0.87 Z"></path></g><g transform="translate(1562.8000183105469 108.40000915527344) rotate(0 3.5999755859375 5.1999969482421875)" stroke="none"><path fill="#e03131" d="M 1.24,-0.49 Q 1.24,-0.49 2.47,0.34 3.71,1.18 4.40,2.50 5.10,3.82 5.74,5.09 6.39,6.36 7.27,7.92 8.15,9.49 8.27,9.67 8.39,9.84 8.44,10.05 8.50,10.25 8.49,10.47 8.48,10.68 8.40,10.88 8.32,11.07 8.18,11.24 8.04,11.40 7.86,11.51 7.68,11.62 7.47,11.66 7.26,11.71 7.05,11.68 6.84,11.66 6.65,11.57 6.46,11.48 6.30,11.33 6.15,11.19 6.05,11.00 5.95,10.81 5.92,10.60 5.88,10.39 5.92,10.18 5.95,9.97 6.05,9.79 6.15,9.60 6.30,9.45 6.46,9.31 6.65,9.22 6.85,9.13 7.06,9.11 7.27,9.08 7.48,9.13 7.68,9.18 7.86,9.29 8.05,9.40 8.18,9.56 8.32,9.72 8.40,9.92 8.48,10.11 8.49,10.33 8.50,10.54 8.44,10.74 8.39,10.95 8.27,11.12 8.15,11.30 7.98,11.43 7.81,11.56 7.61,11.62 7.41,11.69 7.19,11.69 6.98,11.69 6.78,11.62 6.58,11.55 6.41,11.43 6.24,11.30 6.24,11.30 6.24,11.30 4.70,10.31 3.17,9.32 1.09,7.37 -0.97,5.43 -1.42,4.42 -1.87,3.41 -1.55,1.95 -1.24,0.49 -1.28,0.34 -1.32,0.18 -1.32,0.02 -1.32,-0.13 -1.29,-0.29 -1.25,-0.45 -1.18,-0.59 -1.11,-0.73 -1.00,-0.86 -0.90,-0.98 -0.77,-1.07 -0.64,-1.17 -0.49,-1.23 -0.34,-1.29 -0.18,-1.31 -0.02,-1.33 0.13,-1.31 0.29,-1.30 0.44,-1.24 0.59,-1.19 0.73,-1.10 0.86,-1.01 0.97,-0.89 1.08,-0.77 1.16,-0.63 1.24,-0.49 1.24,-0.49 L 1.24,-0.49 Z"></path></g><g transform="translate(1581.2000427246094 106.00003051757812) rotate(0 -0.4000244140625 2.79998779296875)" stroke="none"><path fill="#e03131" d="M 1.08,0.81 Q 1.08,0.81 0.65,1.92 0.21,3.02 0.87,3.63 1.54,4.23 1.67,4.33 1.80,4.42 1.90,4.54 2.00,4.66 2.07,4.81 2.14,4.95 2.18,5.11 2.21,5.26 2.21,5.42 2.21,5.58 2.17,5.74 2.12,5.89 2.05,6.03 1.97,6.17 1.86,6.29 1.75,6.41 1.62,6.50 1.48,6.58 1.33,6.64 1.18,6.69 1.02,6.71 0.86,6.72 0.70,6.70 0.55,6.68 0.40,6.62 0.25,6.56 -0.52,3.38 -1.29,0.21 -1.29,0.00 -1.29,-0.20 -1.22,-0.41 -1.16,-0.61 -1.03,-0.78 -0.90,-0.95 -0.72,-1.07 -0.55,-1.19 -0.34,-1.24 -0.14,-1.30 0.06,-1.29 0.27,-1.28 0.47,-1.20 0.67,-1.12 0.83,-0.98 0.99,-0.85 1.10,-0.67 1.21,-0.48 1.26,-0.28 1.31,-0.07 1.28,0.13 1.26,0.34 1.17,0.54 1.08,0.73 0.94,0.88 0.79,1.04 0.60,1.14 0.42,1.24 0.21,1.27 0.00,1.31 -0.20,1.27 -0.41,1.24 -0.60,1.14 -0.79,1.04 -0.93,0.89 -1.08,0.73 -1.17,0.54 -1.26,0.35 -1.28,0.14 -1.31,-0.06 -1.26,-0.27 -1.22,-0.48 -1.11,-0.66 -1.00,-0.84 -0.84,-0.98 -0.67,-1.12 -0.48,-1.20 -0.28,-1.28 -0.07,-1.29 0.13,-1.30 0.34,-1.24 0.54,-1.19 0.72,-1.07 0.90,-0.95 1.03,-0.78 1.15,-0.61 1.22,-0.41 1.29,-0.21 1.29,-0.21 1.29,-0.21 1.41,2.01 1.54,4.23 1.67,4.33 1.80,4.42 1.90,4.54 2.00,4.66 2.07,4.81 2.14,4.95 2.18,5.11 2.21,5.26 2.21,5.42 2.21,5.58 2.17,5.74 2.12,5.89 2.05,6.03 1.97,6.17 1.86,6.29 1.75,6.41 1.62,6.50 1.48,6.58 1.33,6.64 1.18,6.69 1.02,6.71 0.86,6.72 0.70,6.70 0.55,6.68 0.40,6.62 0.25,6.56 -0.23,6.45 -0.71,6.34 -2.09,5.54 -3.47,4.74 -3.22,2.69 -2.97,0.65 -2.03,-0.08 -1.08,-0.81 -0.97,-0.93 -0.85,-1.04 -0.71,-1.13 -0.58,-1.22 -0.42,-1.27 -0.27,-1.32 -0.10,-1.33 0.05,-1.35 0.21,-1.32 0.37,-1.30 0.52,-1.23 0.67,-1.17 0.80,-1.07 0.93,-0.97 1.04,-0.85 1.14,-0.72 1.21,-0.57 1.28,-0.42 1.31,-0.27 1.34,-0.11 1.34,0.05 1.33,0.21 1.29,0.37 1.24,0.52 1.16,0.67 1.08,0.81 1.08,0.81 L 1.08,0.81 Z"></path></g><g transform="translate(1608.3999938964844 107.60000610351562) rotate(0 11.60003662109375 25.599998474121094)" stroke="none"><path fill="#e03131" d="M 1.35,0 Q 1.35,0 1.56,1.14 1.77,2.29 2.33,5.06 2.89,7.82 3.11,11.33 3.32,14.85 3.37,17.01 3.42,19.18 3.25,22.51 3.09,25.83 2.08,30.42 1.08,35.00 0.41,37.58 -0.25,40.16 -0.98,43.07 -1.72,45.98 -2.28,47.68 -2.84,49.38 -2.96,49.70 -3.08,50.02 -3.28,50.30 -3.48,50.58 -3.73,50.80 -3.99,51.03 -4.30,51.19 -4.60,51.34 -4.93,51.42 -5.27,51.50 -5.61,51.50 -5.95,51.50 -6.28,51.41 -6.61,51.33 -6.92,51.17 -7.22,51.01 -7.47,50.78 -7.73,50.55 -7.92,50.27 -8.11,49.98 -8.23,49.66 -8.35,49.34 -8.39,49.00 -8.43,48.66 -8.39,48.32 -8.34,47.98 -6.76,45.92 -5.18,43.87 -3.41,41.84 -1.64,39.82 0.89,38.13 3.43,36.44 5.75,35.48 8.08,34.52 12.50,34.12 16.92,33.73 20.04,34.05 23.15,34.38 26.08,36.63 29.01,38.89 28.25,41.62 27.49,44.36 25.89,46.09 24.28,47.82 20.54,49.10 16.80,50.39 14.69,51.04 12.59,51.70 9.45,51.72 6.30,51.75 2.03,48.99 -2.24,46.23 -3.82,43.59 -5.39,40.95 -6.46,39.22 -7.52,37.48 -7.60,37.28 -7.68,37.09 -7.69,36.87 -7.70,36.66 -7.65,36.46 -7.59,36.25 -7.47,36.08 -7.36,35.90 -7.19,35.77 -7.02,35.64 -6.82,35.57 -6.62,35.50 -6.40,35.50 -6.19,35.50 -5.99,35.56 -5.79,35.63 -5.62,35.76 -5.45,35.88 -5.33,36.06 -5.21,36.23 -5.15,36.44 -5.09,36.64 -5.10,36.86 -5.11,37.07 -5.19,37.27 -5.26,37.46 -5.40,37.63 -5.54,37.79 -5.72,37.90 -5.90,38.01 -6.11,38.06 -6.31,38.11 -6.53,38.08 -6.74,38.06 -6.93,37.98 -7.12,37.89 -7.28,37.74 -7.43,37.60 -7.54,37.41 -7.64,37.22 -7.67,37.01 -7.71,36.80 -7.68,36.59 -7.64,36.38 -7.54,36.20 -7.45,36.01 -7.29,35.86 -7.14,35.71 -6.95,35.62 -6.76,35.53 -6.54,35.51 -6.33,35.48 -6.13,35.53 -5.92,35.57 -5.73,35.68 -5.55,35.79 -5.41,35.95 -5.27,36.11 -5.27,36.11 -5.27,36.11 -4.21,37.84 -3.15,39.58 -1.85,41.64 -0.56,43.69 3.00,45.49 6.56,47.29 8.89,47.22 11.21,47.14 13.31,46.48 15.40,45.81 18.30,45.07 21.19,44.33 22.21,43.46 23.23,42.59 24.32,40.30 25.42,38.00 24.04,38.16 22.66,38.32 19.96,38.04 17.27,37.76 13.44,38.10 9.62,38.44 7.68,39.22 5.74,40.00 3.67,41.32 1.59,42.65 0.09,44.46 -1.41,46.27 -2.12,47.82 -2.84,49.38 -2.96,49.70 -3.08,50.02 -3.28,50.30 -3.48,50.58 -3.73,50.80 -3.99,51.03 -4.30,51.19 -4.60,51.34 -4.93,51.42 -5.27,51.50 -5.61,51.50 -5.95,51.50 -6.28,51.41 -6.61,51.33 -6.92,51.17 -7.22,51.01 -7.47,50.78 -7.73,50.55 -7.92,50.27 -8.11,49.98 -8.23,49.66 -8.35,49.34 -8.39,49.00 -8.43,48.66 -8.39,48.32 -8.34,47.98 -7.81,46.28 -7.28,44.57 -6.54,41.64 -5.79,38.72 -5.13,36.21 -4.48,33.71 -3.45,29.57 -2.43,25.44 -2.15,22.33 -1.87,19.22 -1.86,17.07 -1.85,14.91 -1.71,11.50 -1.58,8.09 -1.55,6.56 -1.52,5.04 -1.64,3.67 -1.77,2.30 -1.56,1.15 -1.35,0 -1.33,-0.16 -1.31,-0.32 -1.25,-0.47 -1.19,-0.62 -1.10,-0.76 -1.01,-0.89 -0.88,-1.00 -0.76,-1.11 -0.62,-1.18 -0.47,-1.26 -0.32,-1.30 -0.16,-1.34 0.00,-1.34 0.16,-1.34 0.32,-1.30 0.47,-1.26 0.62,-1.18 0.76,-1.11 0.88,-1.00 1.01,-0.89 1.10,-0.76 1.19,-0.62 1.25,-0.47 1.31,-0.32 1.33,-0.16 1.35,0.00 1.35,0.00 L 1.35,0 Z"></path></g><g transform="translate(1662.8000183105469 94.80000305175781) rotate(0 -6.79998779296875 8.800003051757812)" stroke="none"><path fill="#e03131" d="M 1.21,0.60 Q 1.21,0.60 0.67,2.07 0.14,3.53 -1.31,5.50 -2.77,7.47 -3.54,8.62 -4.31,9.78 -5.39,11.09 -6.46,12.40 -7.38,13.41 -8.30,14.41 -8.87,14.86 -9.45,15.30 -9.57,15.40 -9.69,15.50 -9.83,15.57 -9.98,15.64 -10.13,15.67 -10.29,15.70 -10.45,15.70 -10.60,15.69 -10.76,15.65 -10.91,15.60 -11.05,15.53 -11.18,15.45 -11.30,15.34 -11.41,15.23 -11.50,15.09 -11.58,14.96 -11.63,14.81 -11.68,14.66 -11.69,14.50 -11.71,14.34 -11.68,14.19 -11.66,14.03 -11.60,13.89 -11.53,13.74 -11.44,13.61 -11.34,13.49 -11.13,13.34 -10.91,13.19 -10.70,13.14 -10.50,13.09 -10.28,13.10 -10.07,13.12 -9.88,13.21 -9.68,13.29 -9.53,13.43 -9.37,13.58 -9.26,13.76 -9.16,13.95 -9.12,14.16 -9.08,14.37 -9.11,14.58 -9.14,14.79 -9.24,14.98 -9.33,15.17 -9.48,15.32 -9.63,15.47 -9.82,15.56 -10.02,15.65 -10.23,15.68 -10.44,15.71 -10.65,15.67 -10.85,15.63 -11.04,15.52 -11.22,15.41 -11.36,15.26 -11.50,15.10 -11.59,14.90 -11.67,14.71 -11.69,14.49 -11.70,14.28 -11.65,14.08 -11.60,13.87 -11.48,13.69 -11.37,13.51 -11.20,13.38 -11.04,13.25 -10.84,13.18 -10.64,13.10 -10.42,13.10 -10.21,13.09 -10.01,13.16 -9.81,13.22 -9.63,13.35 -9.46,13.47 -9.34,13.64 -9.22,13.82 -9.15,14.02 -9.09,14.22 -9.10,14.44 -9.11,14.65 -9.18,14.85 -9.25,15.05 -9.39,15.21 -9.52,15.38 -9.48,15.34 -9.45,15.30 -9.57,15.40 -9.69,15.50 -9.83,15.57 -9.98,15.64 -10.13,15.67 -10.29,15.70 -10.45,15.70 -10.60,15.69 -10.76,15.65 -10.91,15.60 -11.05,15.53 -11.18,15.45 -11.30,15.34 -11.41,15.23 -11.50,15.09 -11.58,14.96 -11.63,14.81 -11.68,14.66 -11.69,14.50 -11.71,14.34 -11.68,14.19 -11.66,14.03 -11.60,13.89 -11.53,13.74 -11.44,13.61 -11.34,13.49 -11.38,12.50 -11.41,11.51 -10.52,10.58 -9.63,9.64 -8.61,8.56 -7.59,7.47 -6.67,6.23 -5.75,4.99 -4.33,3.49 -2.90,1.98 -2.05,0.68 -1.21,-0.60 -1.12,-0.74 -1.03,-0.88 -0.91,-0.99 -0.79,-1.10 -0.64,-1.18 -0.50,-1.25 -0.34,-1.30 -0.19,-1.34 -0.02,-1.34 0.13,-1.35 0.29,-1.31 0.45,-1.27 0.60,-1.20 0.74,-1.13 0.87,-1.02 0.99,-0.92 1.09,-0.78 1.18,-0.65 1.25,-0.50 1.31,-0.35 1.33,-0.18 1.35,-0.02 1.34,0.13 1.32,0.29 1.26,0.45 1.21,0.60 1.21,0.60 L 1.21,0.60 Z"></path></g><g transform="translate(1667.5999450683594 100.40000915527344) rotate(0 -4 5.1999969482421875)" stroke="none"><path fill="#e03131" d="M 0.99,0.85 Q 0.99,0.85 -0.16,2.64 -1.33,4.43 -2.54,6.20 -3.75,7.97 -5.35,9.58 -6.95,11.19 -7.11,11.34 -7.26,11.48 -7.45,11.57 -7.65,11.66 -7.86,11.68 -8.07,11.71 -8.28,11.66 -8.49,11.61 -8.67,11.50 -8.85,11.39 -8.99,11.23 -9.12,11.07 -9.20,10.87 -9.28,10.67 -9.29,10.46 -9.30,10.25 -9.24,10.04 -9.19,9.84 -9.07,9.66 -8.95,9.49 -8.78,9.36 -8.61,9.23 -8.40,9.17 -8.20,9.10 -7.99,9.10 -7.78,9.10 -7.58,9.17 -7.38,9.24 -7.21,9.37 -7.04,9.50 -6.92,9.67 -6.80,9.85 -6.75,10.05 -6.69,10.26 -6.70,10.47 -6.71,10.68 -6.79,10.88 -6.87,11.08 -7.01,11.24 -7.15,11.40 -7.33,11.51 -7.51,11.62 -7.72,11.66 -7.93,11.71 -8.14,11.68 -8.35,11.66 -8.54,11.57 -8.74,11.48 -8.89,11.33 -9.04,11.19 -9.14,11.00 -9.24,10.81 -9.27,10.60 -9.31,10.39 -9.27,10.18 -9.24,9.97 -9.14,9.78 -9.04,9.60 -9.04,9.60 -9.04,9.60 -7.95,7.70 -6.86,5.80 -5.52,3.90 -4.18,2.00 -2.59,0.57 -0.99,-0.85 -0.88,-0.96 -0.76,-1.07 -0.62,-1.14 -0.48,-1.22 -0.33,-1.26 -0.18,-1.30 -0.02,-1.30 0.13,-1.30 0.29,-1.27 0.44,-1.23 0.58,-1.16 0.73,-1.09 0.85,-0.99 0.97,-0.88 1.06,-0.76 1.15,-0.63 1.21,-0.48 1.27,-0.33 1.29,-0.17 1.31,-0.02 1.30,0.13 1.28,0.29 1.22,0.44 1.17,0.59 1.08,0.72 0.99,0.85 0.99,0.85 L 0.99,0.85 Z"></path></g><g transform="translate(1679.5999450683594 154.8000030517578) rotate(0 -6 12)" stroke="none"><path fill="#e03131" d="M 1.17,0.63 Q 1.17,0.63 0.00,3.86 -1.15,7.09 -2.01,8.84 -2.87,10.58 -3.45,11.79 -4.02,13.00 -5.00,14.57 -5.99,16.15 -7.06,18.01 -8.14,19.88 -9.01,21.90 -9.88,23.93 -9.91,24.14 -9.93,24.35 -10.02,24.54 -10.11,24.74 -10.26,24.89 -10.41,25.04 -10.59,25.14 -10.78,25.24 -10.99,25.27 -11.20,25.31 -11.41,25.27 -11.62,25.24 -11.81,25.14 -11.99,25.04 -12.14,24.88 -12.29,24.73 -12.37,24.53 -12.46,24.34 -12.48,24.13 -12.51,23.92 -12.46,23.71 -12.41,23.50 -12.30,23.32 -12.19,23.14 -12.03,23.00 -11.87,22.87 -11.67,22.79 -11.47,22.71 -11.26,22.70 -11.05,22.69 -10.84,22.75 -10.64,22.81 -10.46,22.93 -10.29,23.05 -10.16,23.22 -10.03,23.39 -9.96,23.59 -9.90,23.79 -9.90,24.00 -9.90,24.21 -9.97,24.41 -10.04,24.62 -10.17,24.78 -10.30,24.95 -10.47,25.07 -10.65,25.19 -10.85,25.25 -11.06,25.30 -11.27,25.29 -11.48,25.28 -11.68,25.20 -11.88,25.12 -12.04,24.98 -12.20,24.84 -12.31,24.66 -12.42,24.47 -12.46,24.27 -12.51,24.06 -12.51,24.06 -12.51,24.06 -12.56,20.75 -12.61,17.44 -11.50,15.33 -10.39,13.22 -9.46,11.94 -8.54,10.66 -7.88,9.47 -7.22,8.29 -6.25,6.58 -5.28,4.86 -3.22,2.11 -1.17,-0.63 -1.08,-0.76 -0.99,-0.89 -0.86,-1.00 -0.74,-1.10 -0.60,-1.18 -0.46,-1.25 -0.30,-1.29 -0.14,-1.32 0.01,-1.32 0.17,-1.32 0.33,-1.28 0.48,-1.24 0.62,-1.16 0.77,-1.09 0.88,-0.98 1.00,-0.87 1.09,-0.74 1.18,-0.60 1.24,-0.45 1.30,-0.30 1.31,-0.14 1.33,0.01 1.31,0.17 1.29,0.33 1.23,0.48 1.17,0.63 1.17,0.63 L 1.17,0.63 Z"></path></g><g transform="translate(1726.8000183105469 122.80000305175781) rotate(0 -2.4000244140625 8.400001525878906)" stroke="none"><path fill="#e03131" d="M -1.32,0 Q -1.32,0 -1.51,-1.14 -1.69,-2.28 -2.26,-3.43 -2.82,-4.59 -4.94,-2.05 -7.06,0.48 -9.22,3.84 -11.38,7.20 -13.17,10.25 -14.96,13.30 -11.95,15.34 -8.95,17.37 -5.20,16.95 -1.46,16.54 1.05,15.94 3.56,15.35 5.91,13.93 8.26,12.50 9.95,10.79 11.64,9.07 12.94,7.68 14.23,6.30 14.40,6.17 14.57,6.04 14.77,5.97 14.97,5.90 15.18,5.90 15.40,5.90 15.60,5.96 15.80,6.03 15.97,6.16 16.14,6.28 16.26,6.46 16.38,6.63 16.44,6.84 16.50,7.04 16.49,7.25 16.48,7.47 16.40,7.66 16.33,7.86 16.19,8.03 16.05,8.19 15.87,8.30 15.69,8.41 15.48,8.46 15.28,8.51 15.07,8.48 14.85,8.46 14.66,8.38 14.47,8.29 14.31,8.14 14.16,8.00 14.06,7.81 13.95,7.62 13.92,7.42 13.88,7.21 13.91,7.00 13.95,6.79 14.04,6.60 14.14,6.41 14.30,6.26 14.45,6.11 14.64,6.02 14.83,5.93 15.04,5.91 15.26,5.88 15.46,5.93 15.67,5.97 15.85,6.08 16.04,6.19 16.18,6.35 16.31,6.51 16.39,6.71 16.48,6.90 16.49,7.11 16.50,7.33 16.45,7.53 16.39,7.74 16.27,7.91 16.16,8.09 16.16,8.09 16.16,8.09 14.87,9.48 13.58,10.87 11.77,12.91 9.96,14.95 7.33,16.95 4.70,18.95 1.99,19.93 -0.72,20.91 -6.03,22.01 -11.34,23.12 -15.57,20.08 -19.81,17.04 -18.06,10.32 -16.31,3.60 -13.41,0.20 -10.50,-3.18 -7.11,-5.72 -3.72,-8.27 -2.33,-8.16 -0.95,-8.04 0.18,-6.34 1.32,-4.64 1.51,-3.47 1.69,-2.31 1.51,-1.15 1.32,0 1.30,0.15 1.28,0.31 1.22,0.46 1.17,0.61 1.08,0.74 0.99,0.87 0.87,0.98 0.75,1.09 0.61,1.16 0.46,1.23 0.31,1.27 0.15,1.31 -0.00,1.31 -0.15,1.31 -0.31,1.27 -0.46,1.23 -0.61,1.16 -0.75,1.08 -0.87,0.98 -0.99,0.87 -1.08,0.74 -1.17,0.61 -1.22,0.46 -1.28,0.31 -1.30,0.15 -1.32,-0.00 -1.32,-0.00 L -1.32,0 Z"></path></g><g transform="translate(1692.3999938964844 99.60000610351562) rotate(0 4 2.4000015258789062)" stroke="none"><path fill="#e03131" d="M 1.29,-0.32 Q 1.29,-0.32 1.77,0.28 2.25,0.89 3.40,1.22 4.55,1.55 6.10,1.65 7.65,1.76 7.78,1.59 7.91,1.42 8.09,1.31 8.27,1.19 8.47,1.14 8.68,1.09 8.89,1.10 9.10,1.12 9.30,1.20 9.49,1.28 9.65,1.42 9.81,1.56 9.92,1.75 10.02,1.93 10.07,2.14 10.11,2.35 10.08,2.56 10.05,2.77 9.96,2.96 9.87,3.15 9.72,3.30 9.57,3.46 9.38,3.55 9.19,3.65 8.98,3.68 8.77,3.71 8.56,3.67 8.35,3.63 8.17,3.53 7.98,3.43 7.84,3.27 7.69,3.11 7.61,2.92 7.52,2.72 7.50,2.51 7.49,2.30 7.53,2.09 7.58,1.89 7.70,1.71 7.81,1.53 7.97,1.39 8.14,1.26 8.34,1.18 8.54,1.11 8.75,1.10 8.96,1.09 9.17,1.15 9.37,1.21 9.54,1.34 9.72,1.46 9.84,1.63 9.97,1.80 10.03,2.00 10.09,2.21 10.09,2.42 10.09,2.63 10.02,2.83 9.94,3.03 9.94,3.03 9.94,3.03 7.20,4.63 4.45,6.23 3.36,5.88 2.27,5.52 0.47,4.15 -1.33,2.78 -1.31,1.55 -1.29,0.32 -1.31,0.16 -1.33,0.00 -1.31,-0.15 -1.29,-0.31 -1.24,-0.46 -1.18,-0.61 -1.09,-0.74 -1.00,-0.88 -0.88,-0.98 -0.76,-1.09 -0.62,-1.17 -0.47,-1.24 -0.32,-1.28 -0.16,-1.32 -0.00,-1.32 0.15,-1.32 0.31,-1.28 0.46,-1.25 0.61,-1.17 0.75,-1.10 0.87,-0.99 0.99,-0.88 1.08,-0.75 1.18,-0.62 1.23,-0.47 1.29,-0.32 1.29,-0.32 L 1.29,-0.32 Z"></path></g><g transform="translate(1704.3999938964844 93.19999694824219) rotate(0 4 -1.5999832153320312)" stroke="none"><path fill="#e03131" d="M -0.49,-1.23 Q -0.49,-1.23 0.62,-1.77 1.74,-2.32 3.23,-2.69 4.72,-3.07 6.52,-3.75 8.32,-4.42 8.53,-4.46 8.74,-4.51 8.95,-4.48 9.16,-4.46 9.35,-4.37 9.54,-4.28 9.69,-4.13 9.85,-3.98 9.95,-3.79 10.04,-3.60 10.08,-3.39 10.11,-3.18 10.07,-2.97 10.04,-2.76 9.93,-2.58 9.83,-2.39 9.68,-2.25 9.52,-2.10 9.33,-2.01 9.13,-1.93 8.92,-1.91 8.71,-1.88 8.50,-1.93 8.30,-1.98 8.12,-2.09 7.94,-2.20 7.80,-2.37 7.66,-2.53 7.59,-2.73 7.51,-2.92 7.50,-3.14 7.49,-3.35 7.55,-3.55 7.61,-3.76 7.73,-3.93 7.85,-4.11 8.02,-4.23 8.19,-4.36 8.39,-4.43 8.59,-4.49 8.81,-4.49 9.02,-4.49 9.22,-4.42 9.42,-4.35 9.59,-4.22 9.76,-4.09 9.87,-3.91 9.99,-3.74 10.05,-3.53 10.10,-3.32 10.09,-3.11 10.07,-2.90 9.99,-2.70 9.91,-2.51 9.77,-2.35 9.64,-2.19 9.45,-2.08 9.27,-1.97 9.27,-1.97 9.27,-1.97 7.39,-1.21 5.51,-0.46 4.18,0.00 2.85,0.48 1.67,0.85 0.49,1.23 0.33,1.27 0.18,1.31 0.02,1.32 -0.13,1.32 -0.29,1.28 -0.44,1.25 -0.59,1.18 -0.73,1.10 -0.85,1.00 -0.98,0.90 -1.07,0.77 -1.16,0.64 -1.22,0.49 -1.28,0.34 -1.30,0.18 -1.33,0.02 -1.31,-0.13 -1.29,-0.29 -1.24,-0.44 -1.19,-0.59 -1.10,-0.73 -1.01,-0.86 -0.89,-0.97 -0.77,-1.08 -0.63,-1.15 -0.49,-1.23 -0.49,-1.23 L -0.49,-1.23 Z"></path></g><g transform="translate(1752.3999938964844 82.80000305175781) rotate(0 -5.20001220703125 6.8000030517578125)" stroke="none"><path fill="#e03131" d="M 1.08,0.81 Q 1.08,0.81 0.97,2.17 0.86,3.54 -0.19,4.73 -1.26,5.93 -1.88,6.87 -2.50,7.81 -3.44,9.09 -4.38,10.38 -5.20,11.32 -6.02,12.26 -6.46,12.48 -6.89,12.71 -7.00,12.83 -7.10,12.95 -7.22,13.05 -7.35,13.14 -7.50,13.20 -7.64,13.26 -7.80,13.28 -7.96,13.31 -8.12,13.29 -8.27,13.28 -8.42,13.23 -8.57,13.17 -8.71,13.09 -8.84,13.00 -8.95,12.89 -9.05,12.77 -9.13,12.63 -9.21,12.50 -9.25,12.34 -9.29,12.19 -9.30,12.03 -9.30,11.87 -9.27,11.72 -9.24,11.56 -9.17,11.42 -9.10,11.28 -8.68,10.99 -8.26,10.71 -8.05,10.70 -7.84,10.69 -7.63,10.75 -7.43,10.81 -7.25,10.93 -7.08,11.05 -6.95,11.22 -6.83,11.40 -6.76,11.60 -6.70,11.80 -6.70,12.01 -6.70,12.22 -6.77,12.42 -6.84,12.63 -6.97,12.79 -7.10,12.96 -7.28,13.08 -7.46,13.19 -7.66,13.25 -7.87,13.30 -8.08,13.29 -8.29,13.27 -8.49,13.19 -8.69,13.11 -8.85,12.97 -9.01,12.83 -9.11,12.65 -9.22,12.47 -9.26,12.26 -9.31,12.05 -9.28,11.84 -9.26,11.63 -9.16,11.44 -9.07,11.24 -8.92,11.09 -8.78,10.94 -8.59,10.84 -8.40,10.74 -8.19,10.71 -7.98,10.68 -7.77,10.72 -7.56,10.76 -7.37,10.86 -7.19,10.96 -7.04,11.12 -6.90,11.27 -6.81,11.47 -6.72,11.66 -6.70,11.87 -6.68,12.08 -6.73,12.29 -6.78,12.50 -6.89,12.68 -7.01,12.86 -7.17,12.99 -7.33,13.13 -7.11,12.92 -6.89,12.71 -7.00,12.83 -7.10,12.95 -7.22,13.05 -7.35,13.14 -7.50,13.20 -7.64,13.26 -7.80,13.28 -7.96,13.31 -8.12,13.29 -8.27,13.28 -8.42,13.23 -8.57,13.17 -8.70,13.09 -8.84,13.00 -8.95,12.89 -9.05,12.77 -9.13,12.63 -9.21,12.50 -9.25,12.34 -9.29,12.19 -9.30,12.03 -9.30,11.87 -9.27,11.72 -9.24,11.56 -9.17,11.42 -9.10,11.28 -10.70,10.59 -12.31,9.91 -11.24,8.26 -10.17,6.60 -8.93,5.04 -7.69,3.47 -5.66,1.80 -3.62,0.13 -2.35,-0.33 -1.08,-0.81 -0.96,-0.92 -0.85,-1.04 -0.71,-1.13 -0.58,-1.21 -0.42,-1.27 -0.27,-1.32 -0.10,-1.33 0.05,-1.34 0.21,-1.32 0.37,-1.29 0.52,-1.23 0.67,-1.17 0.80,-1.07 0.93,-0.97 1.03,-0.84 1.14,-0.72 1.21,-0.57 1.28,-0.42 1.31,-0.26 1.34,-0.10 1.33,0.05 1.33,0.21 1.28,0.37 1.24,0.52 1.16,0.66 1.08,0.81 1.08,0.81 L 1.08,0.81 Z"></path></g><g transform="translate(1762.8000183105469 87.60000610351562) rotate(0 -2 2.7999954223632812)" stroke="none"><path fill="#e03131" d="M 1.12,0.67 Q 1.12,0.67 0.66,1.95 0.19,3.24 -1.01,4.76 -2.23,6.29 -2.47,6.04 -2.72,5.79 -2.85,5.89 -2.98,5.98 -3.13,6.04 -3.28,6.10 -3.44,6.12 -3.61,6.15 -3.77,6.13 -3.93,6.11 -4.08,6.06 -4.23,6.00 -4.37,5.91 -4.50,5.82 -4.61,5.70 -4.72,5.58 -4.80,5.44 -4.88,5.30 -4.92,5.14 -4.96,4.98 -4.96,4.82 -4.97,4.66 -4.93,4.50 -4.89,4.34 -4.82,4.20 -4.75,4.05 -4.64,3.93 -4.54,3.81 -2.79,1.50 -1.04,-0.79 -0.89,-0.93 -0.73,-1.08 -0.54,-1.17 -0.35,-1.26 -0.14,-1.28 0.06,-1.31 0.27,-1.26 0.48,-1.22 0.66,-1.11 0.84,-1.00 0.98,-0.84 1.12,-0.67 1.20,-0.48 1.28,-0.28 1.29,-0.07 1.30,0.13 1.24,0.34 1.19,0.54 1.07,0.72 0.95,0.90 0.78,1.02 0.61,1.15 0.41,1.22 0.21,1.29 0.00,1.29 -0.20,1.29 -0.41,1.22 -0.61,1.16 -0.78,1.03 -0.95,0.90 -1.07,0.72 -1.19,0.55 -1.24,0.34 -1.30,0.14 -1.29,-0.06 -1.28,-0.27 -1.20,-0.47 -1.12,-0.67 -0.98,-0.83 -0.85,-0.99 -0.67,-1.10 -0.48,-1.21 -0.28,-1.26 -0.07,-1.31 0.13,-1.28 0.34,-1.26 0.54,-1.17 0.73,-1.08 0.88,-0.94 1.04,-0.79 1.14,-0.60 1.24,-0.42 1.27,-0.21 1.31,-0.00 1.27,0.20 1.24,0.41 1.14,0.60 1.04,0.79 1.04,0.79 1.04,0.79 -0.83,3.29 -2.72,5.79 -2.85,5.89 -2.98,5.98 -3.13,6.04 -3.28,6.10 -3.44,6.12 -3.61,6.15 -3.77,6.13 -3.93,6.11 -4.08,6.06 -4.23,6.00 -4.37,5.91 -4.50,5.82 -4.61,5.70 -4.72,5.58 -4.80,5.44 -4.88,5.30 -4.92,5.14 -4.96,4.98 -4.96,4.82 -4.97,4.66 -4.93,4.50 -4.89,4.34 -4.82,4.20 -4.75,4.05 -4.64,3.93 -4.54,3.81 -4.29,3.56 -4.04,3.31 -3.49,2.33 -2.95,1.35 -2.04,0.34 -1.12,-0.67 -1.02,-0.80 -0.93,-0.92 -0.80,-1.02 -0.68,-1.12 -0.53,-1.18 -0.39,-1.25 -0.23,-1.28 -0.08,-1.31 0.07,-1.30 0.23,-1.29 0.38,-1.24 0.53,-1.19 0.67,-1.11 0.80,-1.03 0.91,-0.92 1.03,-0.81 1.11,-0.67 1.19,-0.54 1.24,-0.39 1.29,-0.24 1.30,-0.08 1.31,0.07 1.28,0.23 1.25,0.38 1.19,0.53 1.12,0.67 1.12,0.67 L 1.12,0.67 Z"></path></g><g transform="translate(1782.8000183105469 74.80000305175781) rotate(0 7.5999755859375 48.79999542236328)" stroke="none"><path fill="#e03131" d="M 0.79,-1.05 Q 0.79,-1.05 2.30,-1.19 3.81,-1.33 5.14,-0.79 6.47,-0.24 8.27,0.87 10.07,1.98 11.53,2.68 12.98,3.38 14.60,2.85 16.21,2.32 17.33,2.13 18.44,1.94 20.00,2.31 21.57,2.68 22.29,3.93 23.01,5.18 23.23,6.24 23.45,7.30 23.52,8.69 23.60,10.08 23.84,12.46 24.08,14.85 24.20,17.75 24.31,20.65 24.13,24.46 23.94,28.28 23.87,34.40 23.80,40.51 23.78,45.65 23.75,50.80 24.67,60.66 25.59,70.53 26.71,76.49 27.83,82.45 28.59,86.41 29.35,90.36 29.73,91.68 30.11,92.99 30.65,93.44 31.19,93.89 31.28,94.25 31.38,94.60 31.38,94.98 31.39,95.35 31.30,95.71 31.22,96.07 31.05,96.40 30.88,96.73 30.63,97.01 30.39,97.29 30.09,97.51 29.79,97.72 29.44,97.86 29.09,97.99 28.73,98.04 28.36,98.09 27.99,98.05 27.62,98.01 27.27,97.88 26.92,97.75 26.61,97.55 26.30,97.34 26.06,97.06 25.81,96.79 25.63,96.46 25.45,96.14 22.98,96.32 20.51,96.51 17.24,96.73 13.97,96.96 7.47,97.03 0.96,97.11 -3.20,97.36 -7.37,97.61 -10.43,97.86 -13.49,98.10 -13.70,98.09 -13.91,98.07 -14.11,97.99 -14.30,97.90 -14.46,97.76 -14.62,97.62 -14.72,97.43 -14.83,97.25 -14.87,97.04 -14.91,96.83 -14.88,96.62 -14.85,96.41 -14.76,96.22 -14.66,96.03 -14.51,95.88 -14.36,95.73 -14.17,95.63 -13.98,95.54 -13.77,95.51 -13.56,95.48 -13.35,95.52 -13.14,95.56 -12.96,95.67 -12.77,95.77 -12.63,95.93 -12.49,96.09 -12.40,96.28 -12.32,96.48 -12.30,96.69 -12.29,96.90 -12.34,97.11 -12.39,97.31 -12.50,97.49 -12.62,97.67 -12.78,97.80 -12.95,97.94 -13.15,98.01 -13.35,98.08 -13.56,98.09 -13.77,98.10 -13.97,98.03 -14.18,97.97 -14.35,97.85 -14.52,97.72 -14.65,97.55 -14.77,97.38 -14.83,97.18 -14.90,96.97 -14.89,96.76 -14.88,96.55 -14.81,96.35 -14.74,96.15 -14.61,95.98 -14.47,95.82 -14.29,95.70 -14.11,95.59 -13.91,95.54 -13.70,95.49 -13.70,95.49 -13.70,95.49 -10.65,95.23 -7.59,94.97 -3.49,94.55 0.60,94.12 7.06,92.60 13.52,91.08 16.96,90.79 20.39,90.51 24.12,90.65 27.85,90.79 29.52,92.34 31.19,93.89 31.28,94.24 31.38,94.60 31.38,94.98 31.39,95.35 31.30,95.71 31.22,96.07 31.05,96.40 30.88,96.73 30.64,97.01 30.39,97.29 30.09,97.51 29.79,97.72 29.44,97.86 29.09,97.99 28.73,98.04 28.36,98.09 27.99,98.05 27.62,98.01 27.27,97.88 26.92,97.76 26.61,97.55 26.31,97.34 26.06,97.06 25.81,96.79 25.63,96.46 25.45,96.14 25.36,96.33 25.26,96.53 24.13,94.01 23.01,91.49 22.40,87.50 21.78,83.52 20.75,77.29 19.72,71.06 18.83,60.91 17.94,50.76 17.98,45.60 18.02,40.44 18.11,34.21 18.20,27.99 18.39,24.42 18.58,20.86 18.49,18.28 18.40,15.71 18.15,13.96 17.89,12.21 17.85,10.20 17.81,8.19 17.50,7.06 17.19,5.92 17.39,6.98 17.59,8.05 15.87,8.78 14.16,9.51 12.45,9.25 10.75,8.99 8.78,8.32 6.82,7.64 4.62,6.41 2.41,5.17 1.14,4.63 -0.13,4.09 -0.46,2.57 -0.79,1.05 -0.90,0.94 -1.01,0.83 -1.10,0.69 -1.18,0.56 -1.23,0.41 -1.29,0.26 -1.30,0.10 -1.31,-0.05 -1.29,-0.20 -1.26,-0.36 -1.20,-0.51 -1.14,-0.65 -1.04,-0.78 -0.95,-0.91 -0.82,-1.01 -0.70,-1.11 -0.56,-1.18 -0.41,-1.24 -0.26,-1.28 -0.10,-1.31 0.05,-1.30 0.21,-1.30 0.36,-1.25 0.51,-1.21 0.65,-1.13 0.79,-1.05 0.79,-1.05 L 0.79,-1.05 Z"></path></g></svg>